<svg xmlns="http://www.w3.org/2000/svg" xmlns:xlink="http://www.w3.org/1999/xlink" viewBox="0 0 1521.22 834.8"><defs><style>.cls-1{isolation:isolate;}.cls-2{fill:url(#radial-gradient);}.cls-3{fill:url(#linear-gradient);}.cls-4{fill:url(#linear-gradient-2);}.cls-5{fill:url(#linear-gradient-3);}.cls-6{fill:url(#linear-gradient-4);}.cls-7{fill:#cfcfcf;}.cls-8{fill:url(#linear-gradient-5);}.cls-9{fill:#fff;}.cls-10{fill:url(#linear-gradient-6);}.cls-11,.cls-16,.cls-20{mix-blend-mode:screen;}.cls-12,.cls-16{fill:#999;}.cls-13{fill:url(#linear-gradient-7);}.cls-14{fill:url(#linear-gradient-8);}.cls-15{fill:url(#linear-gradient-9);}.cls-16{opacity:0.1;}.cls-17{fill:url(#radial-gradient-2);}.cls-18{fill:url(#linear-gradient-10);}.cls-19,.cls-20{fill:#00d107;}.cls-19{mix-blend-mode:multiply;}.cls-21{fill:url(#linear-gradient-11);}.cls-22{fill:url(#radial-gradient-3);}.cls-23{fill:url(#radial-gradient-4);}.cls-24{fill:url(#linear-gradient-12);}.cls-25{fill:url(#linear-gradient-13);}.cls-26{fill:url(#linear-gradient-14);}.cls-27{fill:url(#linear-gradient-15);}</style><radialGradient id="radial-gradient" cx="1748.64" cy="589.75" r="215.93" gradientTransform="matrix(-1, 0, 0, 1, 3063.74, 0)" gradientUnits="userSpaceOnUse"><stop offset="0" stop-color="#99ed9c"/><stop offset="0.43" stop-color="#00d107"/><stop offset="1" stop-color="#009d05"/></radialGradient><linearGradient id="linear-gradient" y1="358.09" x2="1521.22" y2="358.09" gradientUnits="userSpaceOnUse"><stop offset="0" stop-color="#757575"/><stop offset="1" stop-color="#2e2e2e"/></linearGradient><linearGradient id="linear-gradient-2" y1="345" x2="1521.22" y2="345" gradientUnits="userSpaceOnUse"><stop offset="0" stop-color="#ccc"/><stop offset="0.53" stop-color="#999"/><stop offset="1" stop-color="#787878"/></linearGradient><linearGradient id="linear-gradient-3" x1="12.15" y1="310.03" x2="1509.07" y2="310.03" xlink:href="#linear-gradient"/><linearGradient id="linear-gradient-4" x1="760.61" y1="0" x2="760.61" y2="575.84" xlink:href="#linear-gradient-2"/><linearGradient id="linear-gradient-5" x1="760.61" y1="38.68" x2="760.61" y2="537.16" xlink:href="#linear-gradient-2"/><linearGradient id="linear-gradient-6" x1="965.48" y1="560.11" x2="1024.96" y2="560.11" xlink:href="#linear-gradient"/><linearGradient id="linear-gradient-7" x1="1061.72" y1="27.37" x2="1104.5" y2="27.37" xlink:href="#linear-gradient"/><linearGradient id="linear-gradient-8" x1="476.85" y1="559" x2="520.43" y2="559" xlink:href="#linear-gradient"/><linearGradient id="linear-gradient-9" x1="12.15" y1="304.13" x2="45.84" y2="304.13" xlink:href="#linear-gradient"/><radialGradient id="radial-gradient-2" cx="1887.32" cy="587.18" r="677.74" xlink:href="#radial-gradient"/><linearGradient id="linear-gradient-10" x1="-7986.92" y1="-2343.47" x2="-7825.31" y2="-2095.79" gradientTransform="matrix(0.51, 0.86, 0.86, -0.51, 7128.03, 6227.7)" xlink:href="#radial-gradient"/><linearGradient id="linear-gradient-11" x1="-5154.4" y1="-7095.41" x2="-4924.43" y2="-6742.96" gradientTransform="matrix(-0.42, 0.91, 0.91, 0.42, 5351.82, 8042.43)" xlink:href="#radial-gradient"/><radialGradient id="radial-gradient-3" cx="1845.38" cy="616.38" r="73.36" xlink:href="#radial-gradient"/><radialGradient id="radial-gradient-4" cx="-2953.27" cy="636.14" r="2003.48" gradientTransform="translate(2597.23 34.64)" xlink:href="#radial-gradient"/><linearGradient id="linear-gradient-12" x1="-59.63" y1="3979.4" x2="101.97" y2="4227.08" gradientTransform="matrix(0.6, -0.8, -0.8, -0.6, 3662.04, 3035.97)" xlink:href="#radial-gradient"/><linearGradient id="linear-gradient-13" x1="-5926.29" y1="3015.85" x2="-5696.33" y2="3368.29" gradientTransform="matrix(1, 0.05, 0.05, -1, 6012.68, 3998.03)" xlink:href="#radial-gradient"/><linearGradient id="linear-gradient-14" x1="-1344.7" y1="-8253.3" x2="-1183.1" y2="-8005.62" gradientTransform="translate(6877.76 6107.49) rotate(-39.84)" xlink:href="#radial-gradient"/><linearGradient id="linear-gradient-15" x1="3467.58" y1="-4924.95" x2="3697.55" y2="-4572.49" gradientTransform="translate(5808.84 3804.04) rotate(-95.62)" xlink:href="#radial-gradient"/></defs><g class="cls-1"><g id="Layer_2" data-name="Layer 2"><g id="Layer_1-2" data-name="Layer 1"><path class="cls-2" d="M1281,641.19c16.64-5.91,32.28-14.2,47.26-23.7h32c-22.56,16.22-46.4,31.09-73.25,40.61-23.11,8.21-46.58,11.13-68.26,8.94-4.3-6.66-8.68-13.32-12.65-20.27C1228.7,652.17,1255,650.41,1281,641.19Z"/><path class="cls-3" d="M1469.24,109.34c-14.51-14.51-39.61-13.29-58-20.91s-35.29-23.25-55.82-23.25c-29.74,0-29.74,6.61-59.47,6.61s-29.74-5.28-59.48-5.28S1206.72,74,1177,74s-29.74-7.78-59.48-7.78-29.74,5.17-59.48,5.17-29.74-15.05-59.48-15.05S968.8,67.17,939.06,67.17s-29.74,8.57-59.48,8.57S849.84,63,820.1,63s-29.74,3.25-59.47,3.25-29.74,11-59.49,11-29.74-6.13-59.48-6.13-29.74,2.06-59.48,2.06S552.44,65,522.7,65,493,62.38,463.22,62.38s-29.74,1.2-59.48,1.2-29.74,18-59.49,18-29.74-17.23-59.48-17.23S255,74.76,225.28,74.76s-29.74,7-59.48,7c-18.09,0-31.86,1.26-48.15,7.12-16.72,6-40.48-1-54,10.15s-22.2,29.27-31.32,44.52c-8.89,14.85-27.54,29.65-31,47.39-.36,1.84,26.27,6.82,25.94,8.67,0,.17-20.46-3.34-20.49-3.16C5.32,204.88,16,214.67,16,223.19,16,250,4.78,250,4.78,276.9S0,303.75,0,330.6s10.46,26.86,10.46,53.71S20.61,411.17,20.61,438,5.3,464.88,5.3,491.74c0,20.52-1.37,45.49,6.25,63.9s27.51,33.84,42,48.35,37.34,16.51,55.74,24.13,36,16.77,56.49,16.77c29.74,0,29.74,10.35,59.48,10.35s29.74-24.79,59.47-24.79,29.74,9,59.48,9,29.74,18.94,59.48,18.94,29.74-17.92,59.48-17.92,29.74,0,59.48,0,29.74,10.1,59.48,10.1,29.74,1.93,59.48,1.93S671.37,641,701.11,641s29.74,18.89,59.47,18.89,29.75-5.7,59.49-5.7,29.74-23,59.48-23S909.29,643,939,643h59.48c29.74,0,29.74-8,59.48-8h59.48c29.74,0,29.74,9.9,59.49,9.9s29.74-7.18,59.48-7.18,29.74,19.45,59.49,19.45,29.74-12.52,59.48-12.52c20.53,0,36.09-13.75,54.49-21.37s36.33-11.7,50.83-26.21,35.59-25.4,43.22-43.8,14.74-41,14.74-61.53c0-26.85,2.53-26.85,2.53-53.71s-10.72-26.85-10.72-53.71,5.88-26.85,5.88-53.7-1.24-26.86-1.24-53.72-15.33-26.85-15.33-53.71c0-20.52,10.09-42.43,2.47-60.84S1483.76,123.85,1469.24,109.34Zm-6.19,382.4c0,21,8.56,44.53-1.23,61.44-10.09,17.44-33.65,24.27-51.1,34.36-16.91,9.79-34.36,21.41-55.31,21.41-29.74,0-29.74-5.28-59.47-5.28s-29.74,7.45-59.48,7.45-29.74-7.79-59.48-7.79-29.74,5.17-59.48,5.17-29.74-15-59.48-15-29.74,10.89-59.48,10.89-29.74,8.56-59.48,8.56-29.74-12.72-59.48-12.72-29.74,3.24-59.48,3.24-29.74,11-59.47,11-29.74-6.12-59.49-6.12-29.74,2.06-59.48,2.06-29.74-8.22-59.48-8.22-29.74-2.59-59.48-2.59-29.74,1.21-59.48,1.21-29.74,18-59.48,18S374,601.53,344.25,601.53s-29.74,10.39-59.48,10.39-29.74,7-59.49,7-29.74-1.26-59.48-1.26c-21,0-37-22.8-53.87-32.58-17.45-10.1-34-19.29-44.14-36.74-9.78-16.91-3-35.63-3-56.58,0-26.85-27.13-26.85-27.13-53.71s20.79-26.85,20.79-53.71S47,357.47,47,330.62s11.18-26.86,11.18-53.72S63,250.05,63,223.19c0-7.56-9.75-14.62-8.36-21.77,0,0-10-2-10-2,3.45-17.68,24.7-28.12,35.24-41.89,10.69-13.95,24.93-17.7,40.82-25.56,15.35-7.61,26.78-18.65,45.07-18.65,29.74,0,29.74-11.2,59.48-11.2s29.74,5.63,59.47,5.63,29.74,10.35,59.48,10.35,29.74-24.8,59.48-24.8,29.74,9,59.48,9,29.74,18.94,59.48,18.94,29.74-17.92,59.48-17.92,29.74,0,59.48,0,29.74,10.09,59.48,10.09,29.74,1.94,59.47,1.94,29.75-11.5,59.49-11.5,29.74,18.89,59.48,18.89S909.29,117,939,117s29.74-23,59.48-23,29.74,11.74,59.48,11.74h59.48c29.74,0,29.74-8,59.49-8h59.48c29.74,0,29.74,9.9,59.49,9.9s29.74-7.18,59.48-7.18c20.95,0,34.68,23.47,51.59,33.25,17.45,10.1,38.54,14.07,48.63,31.52,9.79,16.91,26.11,36.91,26.11,57.86,0,26.85-6.66,26.85-6.66,53.71s-11.73,26.85-11.73,53.7-2.59,26.86-2.59,53.71,0,25.87-2.48,52.61C1455.82,464,1463.05,464.88,1463.05,491.74Z"/><path class="cls-4" d="M1469.24,96.26c-14.51-14.51-39.61-13.29-58-20.91s-35.29-23.26-55.82-23.26c-29.74,0-29.74,6.61-59.47,6.61s-29.74-5.28-59.48-5.28-29.74,7.45-59.48,7.45-29.74-7.79-59.48-7.79-29.74,5.17-59.48,5.17-29.74-15-59.48-15S968.8,54.09,939.06,54.09s-29.74,8.57-59.48,8.57S849.84,49.93,820.1,49.93s-29.74,3.25-59.47,3.25-29.74,11-59.49,11S671.4,58,641.66,58s-29.74,2.06-59.48,2.06-29.74-8.22-59.48-8.22S493,49.29,463.22,49.29s-29.74,1.21-59.48,1.21-29.74,18-59.49,18-29.74-17.23-59.48-17.23S255,61.67,225.28,61.67s-29.74,7-59.48,7c-18.09,0-31.86,1.26-48.15,7.12-16.72,6-40.48-1-54,10.14S41.4,115.2,32.28,130.44c-8.89,14.86-27.54,29.65-31,47.4-.36,1.84,26.27,6.82,25.94,8.66,0,.18-20.46-3.33-20.49-3.16C5.32,191.79,16,201.58,16,210.11,16,237,4.78,237,4.78,263.81S0,290.67,0,317.52s10.46,26.85,10.46,53.71,10.15,26.86,10.15,53.71S5.3,451.8,5.3,478.65c0,20.53-1.37,45.5,6.25,63.9s27.51,33.84,42,48.35S90.91,607.41,109.31,615s36,16.78,56.49,16.78c29.74,0,29.74,10.35,59.48,10.35s29.74-24.8,59.47-24.8,29.74,9,59.48,9,29.74,18.94,59.48,18.94,29.74-17.92,59.48-17.92,29.74,0,59.48,0,29.74,10.09,59.48,10.09,29.74,1.93,59.48,1.93,29.74-11.49,59.48-11.49,29.74,18.89,59.47,18.89,29.75-5.71,59.49-5.71,29.74-23,59.48-23,29.74,11.74,59.48,11.74h59.48c29.74,0,29.74-8,59.48-8h59.48c29.74,0,29.74,9.9,59.49,9.9s29.74-7.18,59.48-7.18,29.74,19.45,59.49,19.45,29.74-12.52,59.48-12.52c20.53,0,36.09-13.76,54.49-21.38s36.33-11.7,50.83-26.21,35.59-25.39,43.22-43.8,14.74-41,14.74-61.53c0-26.85,2.53-26.85,2.53-53.7s-10.72-26.86-10.72-53.71,5.88-26.86,5.88-53.71-1.24-26.86-1.24-53.71-15.33-26.86-15.33-53.71c0-20.53,10.09-42.44,2.47-60.85S1483.76,110.77,1469.24,96.26Zm-6.19,382.39c0,21,8.56,44.53-1.23,61.44-10.09,17.45-33.65,24.27-51.1,34.37-16.91,9.78-34.36,21.41-55.31,21.41-29.74,0-29.74-5.29-59.47-5.29S1266.2,598,1236.46,598s-29.74-7.78-59.48-7.78-29.74,5.17-59.48,5.17-29.74-15-59.48-15-29.74,10.88-59.48,10.88-29.74,8.57-59.48,8.57-29.74-12.73-59.48-12.73-29.74,3.25-59.48,3.25-29.74,11-59.47,11-29.74-6.13-59.49-6.13-29.74,2.06-59.48,2.06S611.92,589,582.18,589s-29.74-2.58-59.48-2.58-29.74,1.2-59.48,1.2-29.74,18-59.48,18S374,588.45,344.25,588.45s-29.74,10.39-59.48,10.39-29.74,7-59.49,7-29.74-1.27-59.48-1.27c-21,0-37-22.79-53.87-32.58-17.45-10.09-34-19.29-44.14-36.74-9.78-16.91-3-35.63-3-56.58,0-26.85-27.13-26.85-27.13-53.7s20.79-26.86,20.79-53.71S47,344.38,47,317.53s11.18-26.86,11.18-53.71S63,237,63,210.11c0-7.56-9.75-14.62-8.36-21.78,0,0-10-2-10-2,3.45-17.68,24.7-28.13,35.24-41.9,10.69-13.95,24.93-17.69,40.82-25.56,15.35-7.6,26.78-18.64,45.07-18.64,29.74,0,29.74-11.2,59.48-11.2s29.74,5.63,59.47,5.63S314.49,105,344.23,105,374,80.2,403.71,80.2s29.74,9,59.48,9,29.74,19,59.48,19,29.74-17.93,59.48-17.93,29.74,0,59.48,0,29.74,10.09,59.48,10.09,29.74,1.93,59.47,1.93,29.75-11.5,59.49-11.5,29.74,18.89,59.48,18.89,29.74-5.7,59.48-5.7,29.74-23,59.48-23,29.74,11.74,59.48,11.74h59.48c29.74,0,29.74-7.94,59.49-7.94h59.48c29.74,0,29.74,9.89,59.49,9.89s29.74-7.17,59.48-7.17c20.95,0,34.68,23.46,51.59,33.25,17.45,10.09,38.54,14.07,48.63,31.52,9.79,16.91,26.11,36.91,26.11,57.86,0,26.85-6.66,26.85-6.66,53.7s-11.73,26.86-11.73,53.71-2.59,26.85-2.59,53.71,0,25.86-2.48,52.61C1455.82,450.9,1463.05,451.8,1463.05,478.65Z"/><path class="cls-5" d="M1464.05,67.1a152.59,152.59,0,0,0-108.64-45H165.8A153.88,153.88,0,0,0,15,146.17l-.72,3.68v.36a154.48,154.48,0,0,0-2.14,25.55V444.31A153.66,153.66,0,0,0,165.8,598H1355.41a153.66,153.66,0,0,0,153.66-153.64V175.76A152.59,152.59,0,0,0,1464.05,67.1Zm6.34,377.21a115,115,0,0,1-115,115H165.8a115,115,0,0,1-115-115V175.76A115.81,115.81,0,0,1,53,153.66v-.07A115,115,0,0,1,165.8,60.78H1355.41a115,115,0,0,1,115,115Z"/><path class="cls-6" d="M1464.05,45A152.63,152.63,0,0,0,1355.41,0H165.8A153.88,153.88,0,0,0,15,124.07l-.72,3.68v.35a154.58,154.58,0,0,0-2.14,25.55V422.2A153.66,153.66,0,0,0,165.8,575.84H1355.41A153.66,153.66,0,0,0,1509.07,422.2V153.65A152.61,152.61,0,0,0,1464.05,45Zm6.34,377.21a115,115,0,0,1-115,115H165.8a114.94,114.94,0,0,1-115-115V153.65A115.63,115.63,0,0,1,53,131.56v-.08A115,115,0,0,1,165.8,38.68H1355.41a115,115,0,0,1,115,115Z"/><path class="cls-7" d="M1464.05,45A152.63,152.63,0,0,0,1355.41,0H165.8A153.88,153.88,0,0,0,15,124.07l-.72,3.68v.35a154.58,154.58,0,0,0-2.14,25.55v18.79a154.48,154.48,0,0,1,2.14-25.55v-.35l.72-3.68A153.87,153.87,0,0,1,165.8,18.79H1355.41a153.66,153.66,0,0,1,153.66,153.65V153.65A152.61,152.61,0,0,0,1464.05,45Z"/><path class="cls-8" d="M1470.39,153.65V422.2a115,115,0,0,1-115,115H165.8a114.94,114.94,0,0,1-115-115V153.65A115.63,115.63,0,0,1,53,131.56v-.08A115,115,0,0,1,165.8,38.68H1355.41A115,115,0,0,1,1470.39,153.65Z"/><path class="cls-9" d="M1323.1,492.38c-2.77,14.21,62.43,10.15,76,1s31-50.82,15.54-57.27C1407.59,433.15,1325.92,477.89,1323.1,492.38Z"/><path class="cls-9" d="M191,61.72c2.34-12-51.64-6.43-64.28-.82-41.85,18.6-26.21,43-13.15,48.47C119.53,111.85,188.65,74,191,61.72Z"/><path class="cls-9" d="M103.5,129.22C96.08,118,80.15,113.06,74.93,117.68c-6.83,6-11.75,46.1-2.48,45.1C76.66,162.32,108,136.1,103.5,129.22Z"/><polygon class="cls-10" points="965.48 544.38 1000.58 563.41 1024.96 575.84 995.22 575.84 982.06 560.11 965.48 544.38"/><g class="cls-11"><path class="cls-12" d="M965.48,544.38l14,20.71L978,575.84h17.23S976.53,553,965.48,544.38Z"/></g><polygon class="cls-13" points="1104.5 16.06 1079.25 29.74 1061.72 38.68 1083.11 38.68 1092.58 27.37 1104.5 16.06"/><g class="cls-11"><path class="cls-12" d="M1104.5,16.06l-10,14.89,1,7.73h-12.39S1096.55,22.23,1104.5,16.06Z"/></g><polygon class="cls-14" points="476.85 575.84 504.64 563 520.43 542.16 516.3 567.42 502.31 575.84 476.85 575.84"/><polygon class="cls-12" points="520.43 542.16 498.64 559.27 454.27 575.84 476.85 575.84 504.64 563 520.43 542.16"/><polygon class="cls-15" points="12.15 282.34 25 310.13 45.84 325.92 20.57 321.8 12.15 307.8 12.15 282.34"/><polygon class="cls-12" points="45.84 325.92 28.73 304.13 12.15 259.76 12.15 282.34 25 310.13 45.84 325.92"/><path class="cls-16" d="M127.74,210.43c-23.07,28.3-36.85,66.73-26.91,101.86s48.82,62.38,83.66,51.45c38.46-12.07,54.13-59.66,89.24-79.48C325.43,255.08,386.07,297,438.41,325c113.72,60.86,267.52,51.27,359.21-39.44,30.43-30.1,54.7-68.55,93.36-86.92,46.85-22.27,102.68-9.13,150.58,10.79s94.46,46.62,146.12,51.32,111.41-21.66,122.56-72.32c10.54-47.88-28.21-95.71-74.46-111.94s-97.18-8.56-145.2,1.34c-84.51,17.43-168.11,41.42-245.95,78.67-52.53,25.15-107.3,57.2-164.86,48.31-54.34-8.4-95.76-51.09-142.48-80.08C395.29,36.66,227.67,87.83,127.74,210.43Z"/><path class="cls-16" d="M1201.76,334.44c-50.55,23.69-100.65,54-156.44,56-47.78,1.72-94.23-17.8-142-17.61-76,.3-142,49.17-212.65,77.22-87.67,34.79-187.74,37.3-277,7-20.65-7-41.08-15.8-62.82-17.59s-45.78,5-57.92,23.12c-15.32,22.87-5.42,56.05,15.7,73.7S358.6,559,386.12,559.32c140.63,1.86,265.29-99.25,405.75-106.44C868.35,449,943,473.26,1017.24,492s154,31.91,226.24,6.5c58.41-20.54,114-76.64,116.73-141.31C1363.86,270.56,1250.73,311.5,1201.76,334.44Z"/><path class="cls-17" d="M444.13,529.73l7.51-8,1-1.05,9.74,9.09,58.27,54.39c12.26,11.43,24.76,23.09,38.18,33.37a190,190,0,0,0,28.54,18.43A123,123,0,0,0,618.2,647a98.21,98.21,0,0,0,13,1.87,80.26,80.26,0,0,0,34.1-4.18,85.3,85.3,0,0,0,14.22-6.84,126.91,126.91,0,0,0,10.6-7.08c5.59-4.1,11-8.64,16.57-13.32.82-.7,1.65-1.41,2.48-2.1,13.15-11.14,26.74-22.65,43.08-29.87,18.92-8.35,39.39-10,59.2-11.65,15.4-1.25,30-2.44,43.89-6.5,10-2.93,20.33-7.52,30.26-12,22.38-10,45.52-20.35,70.38-14.52a64.25,64.25,0,0,1,14.61,5.39,79.29,79.29,0,0,1,17.12,12.05c9.87,8.9,18.2,19.91,26.39,30.73,7.54,9.94,15.25,20.15,24.05,28.44a83.27,83.27,0,0,0,10.67,8.63c21.64,14.52,52.93,16.67,83.71,5.73,3.32-1.17,6.59-2.47,9.82-3.87a183,183,0,0,0,16.81-8.41c1.22-.67,2.44-1.37,3.64-2.08,12.64-7.39,24.64-16,36.38-24.84l3-2.31c1.07-.8,2.13-1.61,3.19-2.43l2.69-2c.17-.12.33-.25.49-.38l1.63-1.23,3.25,4.26,5.46,7.16c-9.64,7.36-19.42,14.81-29.54,21.81-6.18,4.28-12.51,8.41-19,12.24-5.55,3.25-11.25,6.3-17.12,9.06a167.71,167.71,0,0,1-15.91,6.59c-35.06,12.45-71.14,9.7-96.52-7.33a114.29,114.29,0,0,1-22.49-20.56c-5.53-6.36-10.64-13.12-15.68-19.77-9.47-12.51-18.6-24.56-29.56-32.91a53.38,53.38,0,0,0-20.39-9.94l-1.38-.31c-18.92-3.86-37.69,4.07-57.47,12.9-.79.34-1.58.69-2.38,1.06-10.38,4.63-21.11,9.43-32.11,12.64-15.33,4.47-31.3,5.77-46.74,7-7,.58-13.91,1.13-20.63,2-11.89,1.48-23.26,3.79-33.95,8.51-10.45,4.62-19.74,11.32-29,18.83-3.51,2.86-7,5.84-10.6,8.86-5.4,4.57-10.87,9.2-16.58,13.56-9.64,7.41-19.92,14-31.64,18.31a87.59,87.59,0,0,1-16.94,4.28,97.24,97.24,0,0,1-13,1.06c-15.55.27-32-3-48.12-9.58q-3-1.2-5.9-2.56c-1.87-.87-3.73-1.77-5.59-2.72-16.4-8.46-31-19.42-44.72-31.21-8.68-7.42-17-15.2-25.22-22.87l-68-63.46Z"/><path class="cls-18" d="M1178.56,592c-8.94,2.52-17.68,7.2-26.92,6.28-13.62-1.37-22.74-14-32-24.07a118.37,118.37,0,0,0-60.29-35c16-15.09,37.73-24.61,59.74-24.06s44,11.84,55.5,30.6c4.49,7.3,7.52,15.69,13.68,21.65,4.78,4.62,11.12,7.42,15.71,12.23C1223.67,600.19,1186.65,589.69,1178.56,592Z"/><path class="cls-19" d="M1204,579.56c6.39,6.7,6.79,10.11,4.15,11.74-7.87-12.13-25.84-14.45-35-25.91-3.65-4.56-5.56-10.22-7.73-15.65-3.76-9.39-8.57-18.57-15.87-25.57a44.42,44.42,0,0,0-3.59-3,63.94,63.94,0,0,1,28.62,24.47c4.49,7.3,7.52,15.69,13.68,21.65C1193.05,572,1199.39,574.75,1204,579.56Z"/><path class="cls-20" d="M1167.09,583a37.84,37.84,0,0,1-25.89-13.72c-4.22-5.22-7-11.49-11.18-16.71-6.33-7.86-15.78-12.94-25.72-14.72a56.6,56.6,0,0,0-29.73,3.21c12.5,3.84,23.25,9.89,34.59,16.41,4,2.3,8.1,4.68,11,8.24,4.18,5,5.65,12,10.27,16.68s11.56,6.13,18,5.49A64.48,64.48,0,0,0,1167.09,583Z"/><path class="cls-21" d="M1181.57,558.89c-10.12-8.51-22.63-15-28.93-26.67-9.28-17.12-1.72-38,2.72-56.91a168.49,168.49,0,0,0-7-99c30.58,6.81,59.14,24.71,76.11,51.05s21.24,61.21,8.39,89.8c-5,11.12-12.45,21.4-14.53,33.42-1.61,9.32.16,19-1.82,28.27C1208,618.55,1190.71,566.58,1181.57,558.89Z"/><path class="cls-19" d="M1216.5,578.87c-2.77,12.89-6.47,16.07-10.5,14.28,8-19-3.67-42,2.51-61.88,2.46-7.95,7.58-14.73,12.23-21.63,8-11.92,15-24.94,17.4-39.13a60.2,60.2,0,0,0,.6-6.59c3.22,17.94,1.57,36.65-5.89,53.25-5,11.13-12.45,21.41-14.53,33.43C1216.71,559.92,1218.48,569.62,1216.5,578.87Z"/><path class="cls-20" d="M1182.9,538.23a53.8,53.8,0,0,1-4.57-41.44c2.77-9.13,7.94-17.4,10.72-26.53,4.18-13.73,2.6-28.92-3.26-42s-15.81-24.18-27.57-32.42c5.48,17.78,7,35.27,8.37,53.82.5,6.56,1,13.29-.85,19.6-2.6,9-9.63,16.28-11.41,25.43s2,18.52,8,25.62A91.86,91.86,0,0,0,1182.9,538.23Z"/><path class="cls-22" d="M1153.29,638.79c5.87-2.76,11.57-5.81,17.12-9.06,1.9,1.51,3.86,2.94,5.86,4.29a91.44,91.44,0,0,0,29.78,12.75c4,7,8.35,13.61,12.65,20.27-19.43-2-37.43-8-52.43-18.1A117.52,117.52,0,0,1,1153.29,638.79Z"/><path class="cls-23" d="M1159.2,619.57a119.84,119.84,0,0,0,11.21,10.16c-5.55,3.25-11.25,6.3-17.12,9.06-3.82-3.41-7.43-7-10.9-10.81-3.14-3.4-6.15-6.92-9.08-10.49-5.11-6.21-10-12.65-14.77-19-18.44-24.35-35.86-47.35-62.46-53.59-22.57-5.29-44.93,3.1-68.33,13.41L979.51,562c-2.12.95-4.24,1.9-6.38,2.83-11,4.88-22.26,9.63-33.76,13-19.18,5.59-39.15,7.22-58.45,8.8-24.35,2-47.35,3.87-68.24,13.09-10.34,4.57-19.78,10.77-29,17.81-6.85,5.24-13.6,11-20.51,16.82-9.12,7.72-18.39,15.58-28.3,22.55h0c-2.38,1.68-4.79,3.31-7.26,4.88a128.66,128.66,0,0,1-24.71,12.4,104.85,104.85,0,0,1-13.55,3.93,115.08,115.08,0,0,1-17,2.44l-.86.08c-25.77,1.67-53.82-4.59-80.57-18.36q-8.78-4.53-17-9.76h0c-16.29-10.28-31.22-22.36-45.48-35-8.5-7.52-16.77-15.23-24.94-22.87l-55.09-51.4L434,529.73l-9.84-9.17-.92-.86-4.74-4.43h0l0,0,7-7.48,1.92-2.06,0,0,1.74-1.87,0,0,1.54-1.64,20.95,19.56,8.62,8,55.48,51.77c13.09,12.19,26.39,24.62,40.43,36,13.5,10.92,27.67,20.88,43,28.78,2.35,1.21,4.72,2.35,7.09,3.44,2,.92,4,1.79,6,2.62a145,145,0,0,0,32,9.07c3,.48,6,.84,9,1.1,15.42,1.31,30.17-.4,43.37-5.22a111,111,0,0,0,22.45-11.46c11.12-7.19,21.57-16.06,32.4-25.22l3.68-3.11C766.8,607.73,778.73,598,792,590.15a132,132,0,0,1,13.39-6.9c23.67-10.45,49.28-12.54,74-14.56,4.88-.39,9.68-.78,14.43-1.23,14-1.33,27.43-3.13,40.44-6.92,5.65-1.64,11.35-3.7,17-6,6.46-2.58,12.92-5.46,19.27-8.29l1.55-.7c13.23-5.91,26.67-11.92,40.45-15.84,15.38-4.37,31.16-6.15,47.54-2.31a75.31,75.31,0,0,1,7.9,2.31c.68.22,1.35.47,2,.73a81.7,81.7,0,0,1,15.22,7.62,118,118,0,0,1,21.91,18.3c9.23,9.61,17.49,20.53,25.64,31.29l1.79,2.35c7.17,9.47,14.53,19,22.55,27.47C1157.86,618.19,1158.53,618.89,1159.2,619.57Z"/><path class="cls-24" d="M439.87,533.25c5.7,7.33,13.34,13.66,16,22.57,3.86,13.13-4.39,26.33-10.23,38.71a118.42,118.42,0,0,0-9.72,69.05c-20-9.18-37-25.67-44.81-46.27s-5.6-45.18,7.43-62.94c5.06-6.91,11.7-12.87,14.89-20.83,2.48-6.17,2.69-13.09,5.41-19.16C430.49,488.37,434.72,526.62,439.87,533.25Z"/><path class="cls-19" d="M418.8,514.38c3.8-8.45,6.81-10.1,9.31-8.27-8.27,11.86-3.64,29.38-10.81,42.16-2.86,5.1-7.38,9-11.59,13.06-7.28,7-14,14.94-17.7,24.33a40.87,40.87,0,0,0-1.38,4.45,63.89,63.89,0,0,1,11.87-35.74c5.06-6.91,11.7-12.88,14.89-20.83C415.87,527.37,416.08,520.45,418.8,514.38Z"/><path class="cls-20" d="M435.92,547.25A37.77,37.77,0,0,1,433,576.39c-3.24,5.87-8,10.79-11.27,16.66-4.89,8.82-6,19.49-3.93,29.36A56.46,56.46,0,0,0,432,648.74c-1.15-13,.4-25.26,2.16-38.21.62-4.58,1.28-9.28,3.46-13.35,3.11-5.77,9-9.77,11.58-15.8s1.33-13-1.7-18.77A64.53,64.53,0,0,0,435.92,547.25Z"/><path class="cls-25" d="M408.1,542.93c-4.07,12.58-5.41,26.63-13.79,36.84-12.36,15.06-34.5,15.91-53.75,18.94a168.52,168.52,0,0,0-89,43.8c-5.22-30.9.59-64.09,18.6-89.74s48.69-42.74,80-41.62c12.18.43,24.51,3.47,36.43.86,9.24-2,17.56-7.32,26.88-9C453.41,496,411.78,531.57,408.1,542.93Z"/><path class="cls-19" d="M413.45,503.05c13-2.3,17.32-.08,17.18,4.34-20.57-.25-37.49,19.21-58.27,21-8.28.71-16.5-1.47-24.64-3.18-14.07-3-28.76-4.5-42.79-1.37a60.94,60.94,0,0,0-6.34,1.93C314,516,332,510.5,350.13,511.15c12.19.43,24.52,3.47,36.44.86C395.81,510,404.13,504.69,413.45,503.05Z"/><path class="cls-20" d="M388.47,549.48a53.85,53.85,0,0,1-36.66,19.85c-9.51.89-19.11-.8-28.62.07-14.3,1.31-27.77,8.5-37.7,18.87S269.06,612,265.85,626c14.4-11.78,30-19.74,46.7-28,5.89-2.93,11.93-5.91,18.48-6.6,9.27-1,18.7,2.79,27.85,1s16.39-8.86,20.73-17A91.77,91.77,0,0,0,388.47,549.48Z"/><path class="cls-26" d="M703,640.66c-7.59-5.35-14.27-12.69-23.29-14.9-13.29-3.25-26.1,5.6-38.2,12A118.45,118.45,0,0,1,573,650.66c10.09,19.57,27.35,35.79,48.29,42.62s45.39,3.52,62.53-10.31c6.67-5.38,12.32-12.29,20.12-15.84,6.05-2.76,13-3.29,18.89-6.29C748.23,648,709.83,645.5,703,640.66Z"/><path class="cls-19" d="M722.78,660.84c8.27-4.18,9.77-7.26,7.84-9.68-11.47,8.81-29.18,5-41.62,12.74-5,3.09-8.66,7.79-12.51,12.18-6.67,7.59-14.28,14.65-23.5,18.8a41.39,41.39,0,0,1-4.37,1.59A63.92,63.92,0,0,0,683.77,683c6.67-5.38,12.32-12.29,20.12-15.84C709.94,664.37,716.85,663.84,722.78,660.84Z"/><path class="cls-20" d="M689.16,645.26a37.77,37.77,0,0,0-29,4.29c-5.71,3.5-10.4,8.5-16.12,12-8.59,5.29-19.19,6.92-29.15,5.28a56.58,56.58,0,0,1-26.95-13c13.06.56,25.21-1.56,38.07-3.91,4.55-.83,9.21-1.7,13.18-4.08,5.62-3.36,9.34-9.44,15.24-12.29s12.95-1.92,18.84.84A64.4,64.4,0,0,1,689.16,645.26Z"/><path class="cls-27" d="M694.75,672.85c-12.37,4.64-26.34,6.63-36.16,15.47-14.47,13-14.3,35.2-16.44,54.56a168.51,168.51,0,0,1-39.66,91c31.11,3.79,64-3.55,88.79-22.72s40.45-50.6,37.89-81.83c-1-12.16-4.59-24.34-2.54-36.36,1.59-9.32,6.51-17.88,7.72-27.26C739.56,625.42,705.94,668.65,694.75,672.85Z"/><path class="cls-19" d="M734.35,665.67c1.69-13.07-.72-17.31-5.13-17,1.2,20.55-17.46,38.34-18.29,59.18-.34,8.3,2.23,16.41,4.31,24.46,3.6,13.93,5.82,28.53,3.33,42.69a59.16,59.16,0,0,1-1.63,6.42c9-15.83,13.72-34,12.23-52.16-1-12.16-4.59-24.34-2.54-36.36C728.22,683.61,733.14,675.05,734.35,665.67Z"/><path class="cls-20" d="M689.11,692.76A53.79,53.79,0,0,0,671,730.3c-.45,9.53,1.67,19.05,1.24,28.58-.64,14.35-7.21,28.14-17.11,38.54s-23,17.5-36.81,21.35c11.11-14.93,18.34-30.92,25.86-47.94,2.66-6,5.36-12.19,5.74-18.76.54-9.31-3.64-18.55-2.27-27.78s8.1-16.78,16.06-21.49A92,92,0,0,1,689.11,692.76Z"/></g></g></g></svg>