<svg xmlns="http://www.w3.org/2000/svg" viewBox="0 0 280.74 74.1"><defs><style>.cls-1{fill:#111423;}.cls-13,.cls-2{fill:#1c233d;}.cls-10,.cls-2{opacity:0.3;}.cls-3{fill:#d3ccbe;}.cls-12,.cls-4,.cls-5{fill:#232313;}.cls-11,.cls-4{opacity:0.15;}.cls-5{opacity:0.26;}.cls-6{fill:#e0dace;}.cls-7{fill:#f4ecdc;}.cls-10,.cls-8,.cls-9{fill:#fff;}.cls-8{opacity:0.36;}.cls-13{opacity:0.59;}</style></defs><g id="Layer_2" data-name="Layer 2"><g id="Layer_1-2" data-name="Layer 1"><path class="cls-1" d="M269.66,15.39c-.9-9-1.35-14-1.35-14s-44.32,2-69.2,1.81-43-.23-70.1.22q-15.39.25-30,.1C96.65,4.18,95.47,5,89.07,5c-7.4,0-12.43-.56-14.67-1.53a15.45,15.45,0,0,0-3.22-.76q-9.5-.44-18.82-1.13C27.94-.22,12.11,0,12.11,0s-.5,10.45.09,24.45,2.32,29.71,1.34,35.19-1,5.48-1,6.16v5.43s20.89,5,51.5,1.81c53.63-5.54,35.31-.4,53.34-.09,19.29.34,37.73.88,51.64,1,15.45.13,29.94-2.23,46.29-2.29,19.15-.08,39.38,2,44.38.71,6.75-1.81,8.14-3.39,8.14-3.39S270.57,24.43,269.66,15.39Z"/><path class="cls-2" d="M49.82,57.07s-9.34,1.71-13,2.29-3.43.76-4.58,2.28a20.43,20.43,0,0,1-3.05,3.06,143.76,143.76,0,0,0,14.5-3.25C49.25,59.74,49.82,57.07,49.82,57.07Z"/><path class="cls-2" d="M39.21,9.23c-1.79.62-14.49,5.25-11.13,5.88s13.86,3.57,17.64,7.56S52,30.23,56,32.12s8.82-1.89,39.06,4.2,72,19.32,75,17.22S80.58,20.36,80.58,18.26s64.89-.42,96-1.89,77.12-10.48,69-10.87-87.05.39-131.35,1.16S50.93,5.2,39.21,9.23Z"/><path class="cls-3" d="M6.84,23.67a4.57,4.57,0,0,0-3.91,1.68c-1.91,2-1.68,4.14-1.14,4.46a6.13,6.13,0,0,0,3.28.27c.68-.27,2.8-4.4,3.22-5S8.66,23.89,6.84,23.67Z"/><path class="cls-4" d="M6.84,23.67a4.21,4.21,0,0,0-2.92.82c.44-.07.88.05.92.77.07,1.51-.91,3.57-2.17,3.6a1.45,1.45,0,0,1-1.24-.58c-.09.79.09,1.37.36,1.53a6.13,6.13,0,0,0,3.28.27c.68-.27,2.8-4.4,3.22-5S8.66,23.89,6.84,23.67Z"/><path class="cls-5" d="M6.84,23.67s-2.08.17-1.5,1.28,3.5,1.34,4.49.87S9.5,24,6.84,23.67Z"/><path class="cls-3" d="M3.74,29.85a4.32,4.32,0,0,0-2.4.22C.62,30.57,0,33.64,0,35.82s.11,4,.73,4.4.33,1,2.06,1,3.4-2.12,3.74-2.79S5.3,29.85,3.74,29.85Z"/><path class="cls-4" d="M3.74,29.85a4.32,4.32,0,0,0-2.4.22,1.61,1.61,0,0,0-.4.53c1.29-.75,2.33.55,2,2.54s.1,5.68-.61,6.39c-.42.42-1.3.27-1.94.08a1.28,1.28,0,0,0,.38.61c.61.45.33,1,2.06,1s3.4-2.12,3.74-2.79S5.3,29.85,3.74,29.85Z"/><path class="cls-3" d="M4.3,40.28S1.79,40.05.78,41.62s.34,7.25,1.73,10a9.44,9.44,0,0,0,7.42,4.85c3,.28,3.18-1.73,3.18-4.74S16.79,39.27,4.3,40.28Z"/><path class="cls-4" d="M13.11,51.77c0-3,3.68-12.5-8.81-11.49,0,0-2.4-.21-3.45,1.24l.28-.09c1-.39,2.41.42,2.29,3.19a30.67,30.67,0,0,0,.8,7c.24,1.44-1,.82-1.42.55a9.53,9.53,0,0,0,7.13,4.34C12.89,56.79,13.11,54.78,13.11,51.77Z"/><path class="cls-5" d="M5.8,26.06A4.38,4.38,0,0,0,3.39,28.9a6.79,6.79,0,0,0,.42,3.69A7.13,7.13,0,0,0,3.06,36c-.14,2.47-.19,4.52.33,5.27l.79,1.16a11.2,11.2,0,0,0-.51,4c.09,2.43,1,4.85,1.72,5.51s.89.88.94,1a.79.79,0,0,0,1.3.33c.75-.65,2.52-4,2.66-7.18S6.76,26.24,5.8,26.06Z"/><path class="cls-6" d="M4.52,42.73c-1.22,2-.48,6.35.79,8.06s5.52,2.74,7.13,1.91.93-5.18,1-7.48,0-3.28-.73-3.86S5.75,40.72,4.52,42.73Z"/><path class="cls-4" d="M13.42,45.22c.05-2.3,0-3.28-.73-3.86s-6.91-.64-8.16,1.35c1.77-1,3.12.52,3.17,2.64,0,2.29,1.27,4-.44,4.95a2.17,2.17,0,0,1-2.46-.4,4.42,4.42,0,0,0,.51.89c1.27,1.71,5.52,2.74,7.13,1.91S13.37,47.52,13.42,45.22Z"/><path class="cls-6" d="M25,10.06c-.2,0-5.18.62-5.8,1.43s.73,3.41,2,3.21,2.4-2,3.44-2.94S26.1,10,25,10.06Z"/><path class="cls-4" d="M20.66,12a1,1,0,0,1-.29-.86,1.69,1.69,0,0,0-.74.41c-.54.7.64,2.95,1.71,2.78s2.08-1.78,3-2.55c.66-.56,1-1.09.83-1.34a18.12,18.12,0,0,1-1.66,1.3C22.28,12.57,21.35,12.83,20.66,12Z"/><path class="cls-6" d="M18.94,11.3a3,3,0,0,0-2.6,1,6.11,6.11,0,0,1-2.78,2.47c-2.05,1.2-3.21,1.47-4,2s-.46,2,.82,2.83,2,1.51,3,.93,1.59-1.28,2.94-2a16.2,16.2,0,0,1,3.72-1.78c.93-.16,1.2-1.44,1-2.56A4,4,0,0,0,18.94,11.3Z"/><path class="cls-4" d="M20.3,12.91v.3c-.11,1.44-1.6,1.69-2.47,2.43s-3.52,2.8-4.32,1.86A3.53,3.53,0,0,0,11,16.3a.47.47,0,0,1-.2-.07,4.86,4.86,0,0,0-.72.41c-.72.51-.43,1.85.76,2.56s1.87,1.32,2.8.77,1.47-1.21,2.73-1.91a15.63,15.63,0,0,1,3.45-1.72c.86-.16,1.11-1.34.9-2.36A4.38,4.38,0,0,0,20.3,12.91Z"/><path class="cls-4" d="M9.36,17.27s.3-.63,2.06-.22,2.28,2.4,1.79,3S8.83,18.66,9.36,17.27Z"/><path class="cls-6" d="M10.36,17.2s-3-.38-2.93,2c.06,1.83-.16,3.16-1.24,4.24s-.51,1.82,2.1,2.73,3.92,0,4-1.34a10.49,10.49,0,0,1,.62-3C13.29,20.52,14.14,18.05,10.36,17.2Z"/><path class="cls-4" d="M12.3,18.58a2.13,2.13,0,0,1-.12,1.94A11.15,11.15,0,0,0,10.91,24c-.27,1.17-1.06,1.55-3.23,1.07-1.21-.27-1.49-.86-1.51-1.33-.54.8.12,1.41,2.22,2.14,2.39.83,3.59,0,3.66-1.22a10.06,10.06,0,0,1,.57-2.76C12.88,21,13.35,19.59,12.3,18.58Z"/><path class="cls-7" d="M9.69,17.39c-.15,0-1.65.26-1.65,1.53s.27,1.43-.44,2.77S6.32,23.94,7,24.32a3.73,3.73,0,0,0,3,.15c.63-.45.67-2.48,1.53-3.71s1-1.61.6-2.36S10.7,17.46,9.69,17.39Z"/><path class="cls-8" d="M8.27,22.45c-.13,0-2.18.1-1.43,1.22a2.48,2.48,0,0,0,3.55,0C11,22.83,8.27,22.45,8.27,22.45Z"/><path class="cls-8" d="M8.94,17.65s-.86.56,0,1.05,2.58,1.05,3.14.15S10.33,17,8.94,17.65Z"/><path class="cls-7" d="M18.35,11.51a2.29,2.29,0,0,0-1.54,1A8,8,0,0,1,14,14.73c-1.16.67-2.25,1.23-1.42,1.57a2.1,2.1,0,0,0,2.21.11c1-.48,3.18-2,4.34-2.58A1.25,1.25,0,0,0,18.35,11.51Z"/><path class="cls-7" d="M24.68,10.19c-.34,0-4.24.68-4.2,1.2s.67.72,1.5.27Z"/><path class="cls-8" d="M18.35,11.51s-1.19.07-.65.92,1.49,1.16,1.9.67S19.3,11.48,18.35,11.51Z"/><path class="cls-9" d="M24.51,10.25s-3.08.38-3.39.74.25.49.95.21S24.51,10.25,24.51,10.25Z"/><path class="cls-6" d="M8.63,25.13s-3.37.05-4.35,2.93-.64,3.87.49,4.79,6.16.4,7.48-.53,1.51-1.76,1.51-3.33a7.25,7.25,0,0,0-.44-3c-.29-.73-2.93-1.61-5-.93Z"/><path class="cls-4" d="M13.76,29a7.25,7.25,0,0,0-.44-3c-.29-.73-2.93-1.61-5-.93l.34.05a5.74,5.74,0,0,0-2.83.93c.89-.21,1.52.57,1.71,1.86.24,1.66-1.18,2.49-2.69,2.93a.83.83,0,0,1-1.09-.59,2.56,2.56,0,0,0,1,2.59c1.12.93,6.16.4,7.48-.53S13.76,30.56,13.76,29Z"/><path class="cls-6" d="M5.06,31.39c-1.61,1.9-1.37,5.08-1.51,6.94s.24,2.83,1.66,3.42,2.15,0,5.42-.2,3.47-.92,3.77-3.08a22.37,22.37,0,0,0-.54-6.54,1.88,1.88,0,0,0-2.15-1.23C9,30.9,6.67,29.48,5.06,31.39Z"/><path class="cls-4" d="M14.4,38.47a22.37,22.37,0,0,0-.54-6.54,1.88,1.88,0,0,0-2.15-1.23c-2.2.16-4.17-.75-5.69-.05a3,3,0,0,1,2.66.4c.63.53,1,1.36-.49,1.8s-1.81,3.28-1.61,4.84.93,3-1.27,2.89a2,2,0,0,1-1.78-1.22,2.44,2.44,0,0,0,1.68,2.39c1.42.59,2.15,0,5.42-.2S14.1,40.63,14.4,38.47Z"/><path class="cls-4" d="M13.52,40.86a54.28,54.28,0,0,0-7.33.21,4.77,4.77,0,0,1-2,0,2.84,2.84,0,0,0,1.06.7c1.42.59,2.15,0,5.42-.2A5,5,0,0,0,13.52,40.86Z"/><path class="cls-5" d="M8.48,26.5s-1.39-.44-1.17,1.29.45,2.9,2.12,3.95,4,2,4-.16S9.71,26.5,8.48,26.5Z"/><path class="cls-7" d="M41.09,24.28a1.73,1.73,0,0,1,2.23.26,5.07,5.07,0,0,1,1.84,4.51c-.14.65-2.21-.4-3.92-1.13S39.34,25.6,41.09,24.28Z"/><path class="cls-4" d="M45.16,29.05s0-.09,0-.14a.58.58,0,0,1-.54-.17A5.84,5.84,0,0,1,42.24,26a1.07,1.07,0,0,1,.9-1.54,1.68,1.68,0,0,0-2-.13c-1.75,1.32-1.57,2.92.15,3.64S45,29.7,45.16,29.05Z"/><path class="cls-4" d="M41.58,25.34a1.87,1.87,0,0,0,.6,2.07,9.48,9.48,0,0,0,2,1.36A5.35,5.35,0,0,1,42.15,28c-.84-.57-1.09-.67-1.28-.94S41.21,25.41,41.58,25.34Z"/><path class="cls-4" d="M42.41,25.47A1.81,1.81,0,0,0,42.24,24a1.55,1.55,0,0,0-1.15.26c-1.42,1.07-1.57,2.34-.64,3.16a.84.84,0,0,0,.39,0C41.76,27.14,42.11,26.65,42.41,25.47Z"/><path class="cls-7" d="M34.53,20.41a1.35,1.35,0,0,0-1.61,1.12c-.24,1.08-2.63,3.55.49,4.67.7.33.91-.33,4.49,1.08.68.78,2.75.94,3.46-.17,1-1.6,1.22-3.72,0-4.37a7.65,7.65,0,0,0-2.63-.69,9.51,9.51,0,0,1-2-.69A8.34,8.34,0,0,0,34.53,20.41Z"/><path class="cls-4" d="M41.77,23A3.87,3.87,0,0,1,41,26.26c-.75.91-1.22.83-2.14,0a3.68,3.68,0,0,0-2.64-.86c-.49,0-1.74.17-1.72-1.19a19.64,19.64,0,0,0-.13-3.14,1.27,1.27,0,0,1,.08-.71,1.33,1.33,0,0,0-1.51,1.13c-.24,1.08-2.63,3.55.49,4.67.7.33.91-.33,4.49,1.08.68.78,2.75.94,3.46-.17C42.27,25.7,42.53,23.89,41.77,23Z"/><path class="cls-4" d="M41.36,27.11a6.44,6.44,0,0,0,.4-.73,2.28,2.28,0,0,1-1.91,1c-1.11,0-1.35-.89-2.42-1.26s-2.14-.2-2.83-.59-.54-1.48-.54-1.61-1.34.49-.94,1.19a1.34,1.34,0,0,0,1.26.86,12.13,12.13,0,0,1,2.39.47,27.75,27.75,0,0,0,2.66,1.14A2.75,2.75,0,0,0,41,27.48,1.34,1.34,0,0,0,41.36,27.11Z"/><path class="cls-4" d="M34.17,24.47a5.9,5.9,0,0,0-.26-3.75.7.7,0,0,0-.21-.21,1.33,1.33,0,0,0-.78,1,13.68,13.68,0,0,1-.77,1.66c0,1.39.3,2.78.77,2.7C33.81,25.75,33.82,25.51,34.17,24.47Z"/><path class="cls-7" d="M21.92,19.79s-1.21.25-.73,2.68.94,4,2.58,4a3.75,3.75,0,0,0,2.43-.65,15.68,15.68,0,0,1,4.49,0,2.57,2.57,0,0,0,2.36.09c.94-.52,1.08-2.25.91-3.88a1.78,1.78,0,0,0-2.3-1.79c-1.11.19-3.86-.09-5.67,0S23.73,19,21.92,19.79Z"/><path class="cls-4" d="M34,22a4.12,4.12,0,0,0-.11-.57,7.73,7.73,0,0,1-.05,1.66,1.52,1.52,0,0,1-2.31,1.12c-.85-.48-2.3-.42-4.12-.64s-1.51.11-2,.59a1.16,1.16,0,0,1-1.93-.37A12.27,12.27,0,0,0,22,20.42a.47.47,0,0,1,0-.63h0s-1.21.25-.73,2.68.94,4,2.58,4a3.75,3.75,0,0,0,2.43-.65,15.68,15.68,0,0,1,4.49,0,2.57,2.57,0,0,0,2.36.09C34,25.37,34.13,23.64,34,22Z"/><path class="cls-4" d="M34,24.18a1.61,1.61,0,0,1-1.75,1,5.36,5.36,0,0,0-1.78-.47,16.63,16.63,0,0,0-4-.16,3.17,3.17,0,0,1-2,.73c-1.06-.1-1.71-1.86-1.8-1.92-.37-.22-.86.55-1,1,.05.17.1.32.16.47a4.94,4.94,0,0,0,.95,1c.59.47,1,.45,2,.29s1.14-.55,1.65-.69a16.73,16.73,0,0,1,3.33-.07c1,.07,1.61.41,2.71.51a1.43,1.43,0,0,0,1-.27A2.82,2.82,0,0,0,34,24.18Z"/><path class="cls-4" d="M21.26,20.44a3.34,3.34,0,0,0-.07,2c.42,2.09.82,3.52,1.95,3.9.72-.73.22-1.39-.33-3.59A3.54,3.54,0,0,0,21.26,20.44Z"/><path class="cls-7" d="M20.07,20.63c-.48-.16-1-.17-2.16.76a48.36,48.36,0,0,1-6.84,3.74c-2.84.6-2.88,1-3.17,1.92s.95,4,2.67,4.56,1.81.17,3.43-1,3.15-1.43,4.86-2.44c2-1.2,2.83-.71,3.62-1.44C23.56,25.73,23.26,21.72,20.07,20.63Z"/><path class="cls-4" d="M22.59,24.33c-.48,1.34-2.3.91-3.53,1s-6.54,2.36-7,3.16-1.77,2.36-3.21.43a3.24,3.24,0,0,1-.53-2.76,2.18,2.18,0,0,0-.39.87c-.29.93.95,4,2.67,4.56s1.81.17,3.43-1,3.15-1.43,4.86-2.44c2-1.2,2.83-.71,3.62-1.44.59-.54.76-2,.28-3.35A2.94,2.94,0,0,1,22.59,24.33Z"/><path class="cls-8" d="M19.22,20.9a4.23,4.23,0,0,0-1.4,1,17,17,0,0,1-4.61,2.84,15.09,15.09,0,0,1-3.54,1.12c-1,.27-1.34,1.07-.48,2.15s1.82.48,2.41-.16a44.12,44.12,0,0,1,6.71-3.7c1.28-.54,1.82-.16,2.73-.54s.75-1.39.05-2S20,20.69,19.22,20.9Z"/><path class="cls-4" d="M21.32,26.92a3,3,0,0,0,1.21-.27A2,2,0,0,0,23,25.52a2.82,2.82,0,0,1-2.26.75c-1.28,0-3.24,1-5.65,2.1S12.33,30.29,11,30.79a2.1,2.1,0,0,1-1.85-.28,3.22,3.22,0,0,0,1.4,1.1,4.82,4.82,0,0,0,.73.2,3,3,0,0,0,1.83-1.24,25.09,25.09,0,0,1,3.48-1.81C17.87,28.11,20.24,26.94,21.32,26.92Z"/><path class="cls-8" d="M22.61,20.09a1.75,1.75,0,0,1,1.62.14c.67.54,2.71.36,4.17.36a17.79,17.79,0,0,0,3.05-.05c.52-.16,1-.37,1.52.05a2.11,2.11,0,0,1,.4,2.27c-.38.64-1.09.31-1.61.12a43.63,43.63,0,0,0-5.17-.37c-1.13,0-1.17.46-1.73.6a1.38,1.38,0,0,1-1.59-1C22.88,21.3,22.13,20.23,22.61,20.09Z"/><path class="cls-8" d="M34.89,20.89s-.46.08-.31,1.09.25,2.15,1,2.05a4,4,0,0,1,2.42.2,3.54,3.54,0,0,1,2,1.19c.36.48,1.22,0,1.47-1s0-1.63-.75-1.84-.24.13-1.65-.17a11.48,11.48,0,0,1-2.63-.86C35.8,21.27,35.55,20.66,34.89,20.89Z"/><path class="cls-10" d="M43.37,25.11s-.66.41.09,1.23a24.31,24.31,0,0,1,1.48,2A4.12,4.12,0,0,0,43.37,25.11Z"/><path class="cls-5" d="M11.15,42.07a2.54,2.54,0,0,0-3.06,2.1c-.72,2.69.17,5.64,2,6.11s2.84-.68,3.07-2.74S12.48,42.18,11.15,42.07Z"/><path class="cls-7" d="M38.4,48.36a5.19,5.19,0,0,1,3,.29c2,.63,5.15,1.84,4.19,2.41a18.23,18.23,0,0,1-6.05,1.21c-1.62,0-1.56,0-2.16-.51S36.9,48.82,38.4,48.36Z"/><path class="cls-4" d="M45.75,50.68a7.65,7.65,0,0,1-2.51.42c-2.73.16-3.38-.33-3.46-1.5a.89.89,0,0,1,.7-1,4.94,4.94,0,0,0-2.08,0,2,2,0,0,0-1,3c.6.46.54.46,2.16.46A20.41,20.41,0,0,0,45.59,51C45.75,50.89,45.79,50.79,45.75,50.68Z"/><path class="cls-4" d="M38.91,50.83s0,.85,1.63.85a39,39,0,0,0,4.31-.48,18.48,18.48,0,0,1-3.28.76c-1.81.27-2.31,0-2.71-.19S38.91,50.83,38.91,50.83Z"/><path class="cls-4" d="M38.4,48.36c-1.5.46-1.62,2.88-1,3.4a1.56,1.56,0,0,0,1.43.51,3.86,3.86,0,0,0,.66-1.92,3.26,3.26,0,0,0-.5-2.08A2.84,2.84,0,0,0,38.4,48.36Z"/><path class="cls-7" d="M31.42,47a1.49,1.49,0,0,1,1.38-.41c.89.17.82.58,1.52.82a5.55,5.55,0,0,0,2.63.24c.88-.17,1.66-.27,2,.54a5,5,0,0,1-.14,3.54c-.5,1.26-1.17,1.4-2,1.26a7.22,7.22,0,0,0-2.37-.41c-1.14.07-1.42.27-2.2.27A1.32,1.32,0,0,1,31,52.21C30.6,51.7,31,47.45,31.42,47Z"/><path class="cls-4" d="M38.86,51.77c.07-.2.14-.4.19-.6a1.06,1.06,0,0,1-1.77.18c-.33-.33-1-.31-1.81-.41s-.85.7-1.78.52,0-2.69-.8-3.77c-.61-.89-1-.93-1.12-.91a1.26,1.26,0,0,0-.35.26c-.46.41-.82,4.66-.43,5.17a1.32,1.32,0,0,0,1.35.68c.78,0,1.06-.2,2.2-.27a7.22,7.22,0,0,1,2.37.41C37.69,53.17,38.36,53,38.86,51.77Z"/><g class="cls-11"><path class="cls-12" d="M32.55,50.7v.07l.09-.07Z"/><path class="cls-12" d="M36.79,52.26a3.61,3.61,0,0,0-1.65-.41c-.61-.06-1,.31-1.84.2s-.76-1-.75-1.28c-.27.22-1,.9-.86,1.3s.68.46,1.1.44.93-.17,1.47-.2a5,5,0,0,1,2.2.19,1.63,1.63,0,0,0,1.32.31,1.4,1.4,0,0,0,.76-.42.57.57,0,0,0,.08-.13,1,1,0,0,1-.59.25A1.66,1.66,0,0,1,36.79,52.26Z"/></g><path class="cls-4" d="M31.73,46.78c.22,0,1,.13,1.29,2.17s-.44,3.15-1.21,3.36S31.27,46.86,31.73,46.78Z"/><path class="cls-7" d="M22,45.89a2.72,2.72,0,0,1,2.22-.63c1.5.16,1.26.74,2.26,1a8.21,8.21,0,0,0,3.3.26c.56-.19,1.73-.35,2.28.28a5.46,5.46,0,0,1,.45,4.21,2,2,0,0,1-2.75,1.61,10.72,10.72,0,0,0-4.74-.43,3.93,3.93,0,0,1-3.8-.65C20.25,50.56,22,45.89,22,45.89Z"/><path class="cls-4" d="M32.55,51.05a7.26,7.26,0,0,0,.17-2.28,4.67,4.67,0,0,1-.66,1.81c-.64.88-1.27.42-2.12.18a16.39,16.39,0,0,0-4-.21c-.63.09-.82.84-1.91.48-.62-.21-.48-.27-.21-2a4.31,4.31,0,0,0-.61-3.28.42.42,0,0,1-.07-.39,2.36,2.36,0,0,0-1.09.56s-1.79,4.67-.78,5.69a3.93,3.93,0,0,0,3.8.65,10.72,10.72,0,0,1,4.74.43A2,2,0,0,0,32.55,51.05Z"/><path class="cls-4" d="M31.94,52.24a2.23,2.23,0,0,0,.46-.72,2.26,2.26,0,0,1-.28.19,2,2,0,0,1-1.88-.12,13,13,0,0,0-3.62-.42c-1,0-1.43.46-2.59.39S22.72,50,22.72,50s-1.12,1-.83,1.32.53.35,1.13.63a4.08,4.08,0,0,0,2.37-.15,7,7,0,0,1,2.85,0c1.57.16,1.84.51,3,.58A1.3,1.3,0,0,0,31.94,52.24Z"/><path class="cls-4" d="M22,45.89s-.16.41-.35,1c-.22,1.72-.56,4.53-.37,4.62s.94-.06,1.64-.88a5.35,5.35,0,0,0,.21-4.49,1.29,1.29,0,0,0-.61-.62A2.06,2.06,0,0,0,22,45.89Z"/><path class="cls-7" d="M11.15,42.07c-.2,0-2.21-.33-2.67,2.21s.06,4.84,1.15,5.24a5,5,0,0,0,2.57-.07A30,30,0,0,1,17.74,51c.83.43,1.18,1.07,2.8,1,1.81-.06,2.31-2.27,2.58-4.22s-.56-2.48-1.42-2.68-2.15.14-3-.22-5.4-1.68-5.63-1.74S12.23,42.1,11.15,42.07Z"/><path class="cls-4" d="M20.54,52c1.27,0,1.9-1.15,2.25-2.49a2.34,2.34,0,0,1-1.25,1c-1.8.6-2-.14-2.74-.74s-1.5-.63-3.93-1.36-3.51-.8-5.31-1.27a1.68,1.68,0,0,1-1.25-1.11c0,1.77.5,3.17,1.32,3.47a5,5,0,0,0,2.57-.07A30,30,0,0,1,17.74,51C18.57,51.4,18.92,52,20.54,52Z"/><path class="cls-4" d="M20.4,51.23c-1.16-.1-1.3-.57-1.83-.84s-4.8-1.5-5.74-1.73a21.47,21.47,0,0,0-3.2-.37,1.59,1.59,0,0,1-1.16-.61,3.87,3.87,0,0,0,.24.77c.74.93,2.13.71,2.82.54s1.74.24,3.57.74,3,.7,4.14,1.6a2.81,2.81,0,0,0,2.4.27,2.83,2.83,0,0,0,.77-1A2.22,2.22,0,0,1,20.4,51.23Z"/><path class="cls-10" d="M10.82,42.47a1.4,1.4,0,0,0-1.58,1.16c-.42,1.39-.36,2.58.52,2.73s1.33-.37,2.49-.31a22.72,22.72,0,0,1,5.28,1.16c1.51.57,1.73.45,2.09,1.15s1.4,1.94,2.4.49.45-3.13-.43-3.4-1.27.24-2.09,0-6.13-1.61-6.83-1.91S11.49,42.5,10.82,42.47Z"/><path class="cls-10" d="M25,46a.53.53,0,0,0-.83.37c-.24.75.14,1.3.11,2.37s.89,1.15,1.56.86a6.49,6.49,0,0,1,3.37-.34c1.76.17,1.27.49,2.11.63s1.1-.69,1-1.5-.55-1.73-1.36-1.61A8.47,8.47,0,0,1,29,47,7.47,7.47,0,0,1,26,46.57,2.36,2.36,0,0,0,25,46Z"/><path class="cls-10" d="M33.14,47.06s-.27.29.1.94a4.67,4.67,0,0,1,.45,2c0,.5.88,1,1.19.47s.14-.69,1.31-.69,1.75.12,1.82.59.83.75,1-.1S38.62,48,38.23,48s-.37.41-1.31.29A11.34,11.34,0,0,1,34.49,48C34.1,47.73,33.64,46.78,33.14,47.06Z"/><path class="cls-9" d="M10.82,42.47a1.87,1.87,0,0,0-1.24,1.4c-.34,1.19.21,1.66,1.23.8S11.85,42,10.82,42.47Z"/><path class="cls-10" d="M41.34,48.88s-1-.18-.94.56,5.18,1.16,5.18,1.16A13,13,0,0,0,41.34,48.88Z"/><path class="cls-9" d="M33.78,47.63s-.46.09-.12.93.1,1.38.58,1.27S34.58,47.81,33.78,47.63Z"/><path class="cls-9" d="M38.13,48.29s-.43.25-.27,1.05.8,1.24.87.46S38.75,48.15,38.13,48.29Z"/><path class="cls-9" d="M31.42,47s-.51-.22-.39.91.32,1.56.85,1.21S32.16,47.05,31.42,47Z"/><path class="cls-9" d="M24.52,45.81c-.1,0-.63-.09-.38.53s.1,2.32.88,1.72S25.09,45.86,24.52,45.81Z"/><path class="cls-9" d="M24.84,48.59a.53.53,0,0,0-.21.89c.32.39.71.05.85-.36S25.11,48.59,24.84,48.59Z"/><path class="cls-6" d="M26.41,62.06a4.68,4.68,0,0,0,2.37-.67c1-.7,2.29-2.29,1.31-2.27s-3.32.28-3.66.28S25.62,61.27,26.41,62.06Z"/><path class="cls-4" d="M26.41,62.06l.32,0a1.94,1.94,0,0,0,.69-2,1.72,1.72,0,0,0-.2-.73c-.39,0-.68.06-.79.06C26.1,59.4,25.62,61.27,26.41,62.06Z"/><path class="cls-4" d="M28,61.14A.57.57,0,0,1,27.9,60a11.3,11.3,0,0,0,1.35-.62c-.93.07-2.31.21-2.54.21s-.67,1.55,0,2.19a3.74,3.74,0,0,0,2-.55,4.64,4.64,0,0,0,1.08-1A2.5,2.5,0,0,1,28,61.14Z"/><path class="cls-6" d="M20.23,61.3c0,.11-.19.87.9,1a16.61,16.61,0,0,0,2.29-.12,11.3,11.3,0,0,1,1.87.17A1.36,1.36,0,0,0,27,61.66c.36-.78.53-2.51-.53-2.93s-1.12.09-1.73,0a12.22,12.22,0,0,1-2.26-.36,1.06,1.06,0,0,0-1.32-.23C20.35,58.51,20.07,60.72,20.23,61.3Z"/><path class="cls-4" d="M20.4,61.1c0,.1-.18.8.85,1a15.61,15.61,0,0,0,2.18-.1,10.29,10.29,0,0,1,1.79.15,1.29,1.29,0,0,0,1.64-.68,3.12,3.12,0,0,0,.23-1.73,4,4,0,0,1-.17.75,1.38,1.38,0,0,1-1.55,1.06,6.58,6.58,0,0,1-1.93-.16c-.23-.18-.16,0-.68.28s-1.43.14-1-.42a2.56,2.56,0,0,0,.66-2.37c-.24-.74-.68-.77-.92-.72l-.16.05C20.51,58.48,20.24,60.55,20.4,61.1Z"/><path class="cls-4" d="M21.6,58.12s.81.06.66,1.46-1.05,2.07-1.67,2.05,1-3.33,1-3.33Z"/><path class="cls-6" d="M14,59.33s0,1.28,1.18,1.42a8.38,8.38,0,0,1,2.62.44c.88.37,1.15,1,2.19.77a3.11,3.11,0,0,0,2.16-2.63,1.51,1.51,0,0,0-1.32-1.81A7.37,7.37,0,0,1,19,57.11c-.84-.27-.84-.91-1.85-1S14.12,57.62,14,59.33Z"/><path class="cls-4" d="M21.12,60.57a1.34,1.34,0,0,1-1.88.07,3.56,3.56,0,0,0-1.78-.51c-.58,0-.76-.48-.19-1.76a2.11,2.11,0,0,0-.15-2.06,3.78,3.78,0,0,0-2.87,3s0,1.19,1.1,1.32a7.86,7.86,0,0,1,2.43.4c.82.35,1.06.91,2,.72a2.88,2.88,0,0,0,2-2.44.11.11,0,0,1,0-.05A2.53,2.53,0,0,1,21.12,60.57Z"/><path class="cls-4" d="M16.4,55.68s.91,0,.89,1.38a3,3,0,0,1-1.58,2.64c-.69.35-1.65.49-1.85-.22S16.4,55.68,16.4,55.68Z"/><path class="cls-5" d="M10.56,50.41S8.1,50,7,51.89s-.62,3,.53,3.69a3.28,3.28,0,0,0,3.65,0C12.17,54.8,13.38,50.78,10.56,50.41Z"/><path class="cls-6" d="M10.56,50.41a3.42,3.42,0,0,0-2.67,1C6.75,52.53,6.28,54,7.15,54.82s.71.34,1.82.94a11,11,0,0,1,2.9,2.33c.23.44.34,1.75,1.62,1.82a3.22,3.22,0,0,0,3.16-1.52c.81-1.25.74-2.32-.13-2.93s-1.35-.5-2.16-1.18-2.56-2.42-2.69-2.59S11.26,50.41,10.56,50.41Z"/><path class="cls-4" d="M16.45,58.17A3.25,3.25,0,0,0,17,56.76v0a3.53,3.53,0,0,1-1.36,1.9c-.95.49-2.51.34-3-.52s-.5-.77-1.81-2.07-2-1.8-3.08-2c-.62-.11-.64-1-.54-1.77a1.93,1.93,0,0,0,.09,2.34c.84.84.68.34,1.75.94a10.62,10.62,0,0,1,2.79,2.33c.22.43.32,1.75,1.55,1.81A3.06,3.06,0,0,0,16.45,58.17Z"/><path class="cls-7" d="M10.09,50.63a2.16,2.16,0,0,0-1.95,1.13c-.45,1.11.24,1.46,1,1.65a8.15,8.15,0,0,1,3,2.17c.74.89.92.92,1.19,1.53a1.48,1.48,0,0,0,2.19.82c1.16-.67,1.38-1.85.45-2.42a10.75,10.75,0,0,1-4.74-3.75C11.17,51.46,11,50.53,10.09,50.63Z"/><path class="cls-7" d="M17.68,56.67A2.26,2.26,0,0,1,17.73,58c-.2.77-.29,1.29.54,1.11a2.81,2.81,0,0,1,2.12.62c.4.32.3.62.92.2a1.45,1.45,0,0,0,.1-1.88c-.32-.29-.4,0-.79-.09a10.1,10.1,0,0,1-1.88-.62C18.55,57.23,17.88,56.55,17.68,56.67Z"/><path class="cls-7" d="M22.59,58.94a4.59,4.59,0,0,1-.12,1.9c-.3.76.29.71.74.29s1.11-.27,1.87-.17,1.09.42,1.53,0A1.63,1.63,0,0,0,26.46,59c-.42-.4-.81-.23-.89,0s-1,.3-1.55.27S22.74,58.47,22.59,58.94Z"/><path class="cls-7" d="M30.21,59.28c0-.1-2,.49-2.07.94S29.33,61.39,30.21,59.28Z"/><path class="cls-9" d="M9.82,50.79S8.5,50.91,8.36,52s1.07.72,2,.19S11,50.51,9.82,50.79Z"/><path class="cls-9" d="M15.83,55.66c-.49.05-.82-.19-1.23.58s0,1.79,1.16,1.28S16.75,55.57,15.83,55.66Z"/><path class="cls-9" d="M18.05,56.66s-.37-.23-.3.6a9.31,9.31,0,0,0,.07,1.44c.11.39.32.48.74-.1A1.34,1.34,0,0,0,18.05,56.66Z"/><path class="cls-9" d="M21,57.79s-.62-.09-.46.68S20.58,60,21,60,22,58.44,21,57.79Z"/><path class="cls-9" d="M22.78,59c-.1.06.23.63,0,1.28s0,1,.49.37S23.22,58.77,22.78,59Z"/><path class="cls-9" d="M26,58.86c-.08,0-.54-.12-.33.67s.56,1.42,1.05.91A1,1,0,0,0,26,58.86Z"/><path class="cls-9" d="M30.13,59.32a5.91,5.91,0,0,0-1.11.84c-.4.42-.16.65.37.18A2.82,2.82,0,0,0,30.13,59.32Z"/><path class="cls-7" d="M6.48,30.93c-.31.05-2.05,1-2.38,3.82S5.24,38,5.72,36.37s.62-2.86,1.53-3.62S8.2,30.7,6.48,30.93Z"/><path class="cls-7" d="M5.91,26.41a2.39,2.39,0,0,0-1.34,2c-.14,1.49.91.72,1.72-.28S6.91,26.17,5.91,26.41Z"/><path class="cls-7" d="M5.62,43.19s-1.43-.1-1.19,3,2,3.2,2.53,1.63S7.58,42.71,5.62,43.19Z"/><path class="cls-5" d="M10.54,33S7.85,31.65,6.8,34.88s.29,6.18,2.91,6.35,3.29-1.85,3.23-4S11.66,33.31,10.54,33Z"/><path class="cls-7" d="M43.82,38s-.16.55,1.22.63,3.91.84,4.28.63c.77-.45-.8-3.23-2.92-4.54s-2.17-.38-2.82,0A2,2,0,0,0,43.82,38Z"/><path class="cls-4" d="M49.32,39.28a.47.47,0,0,0,.2-.44c-.18,0-.6-.33-1.32-.54-1.28-.38-2.67-.74-2.51-1.38a5.47,5.47,0,0,0,0-2.1.43.43,0,0,1,.12-.41c-1.54-.79-1.64,0-2.23.37A2,2,0,0,0,43.82,38s-.16.55,1.22.63S49,39.49,49.32,39.28Z"/><path class="cls-4" d="M44.93,36.85s-.19,1.09,1.47,1.5,2.75.7,2.75.7a18.36,18.36,0,0,1-2.48-.41c-1.5-.35-1.76-.17-2.05-.72S44.93,36.85,44.93,36.85Z"/><path class="cls-4" d="M45.78,36a2.58,2.58,0,0,0-.57-1.8,1.27,1.27,0,0,0-.76,0l-.19.09c-.24.15-.41.41-.68.58a1.51,1.51,0,0,0-.43.49,1,1,0,0,0,0,.1,4.48,4.48,0,0,0,.24,2.31,2.19,2.19,0,0,0,.47.34s-.09.33.51.52C45,38.35,45.84,37.61,45.78,36Z"/><path class="cls-7" d="M35.17,33a2.06,2.06,0,0,1,2.11-.8c1.42.26,1.08.61,2,.69s3,.38,3.62.38,1.59-.61,2.11.54.73,3.81-.6,4.77-2.07.58-2.55.23a6.26,6.26,0,0,0-2.63-.54c-.73,0-.9.62-2.11.58s-1.55-.27-1.94-.92S35.17,33,35.17,33Z"/><path class="cls-4" d="M45.41,35.3a4.68,4.68,0,0,1-.29,1.58,1.21,1.21,0,0,1-2,.26c-.41-.41-.45-.52-2.18-.64s-1.7-.22-2.08.64-1.8,1-1.59-.12-.14-4.45-1.13-4.64a1.37,1.37,0,0,0-.35,0,2,2,0,0,0-.64.58s-.35,4.27,0,4.93.74.88,1.94.92,1.38-.58,2.11-.58a6.26,6.26,0,0,1,2.63.54c.48.35,1.21.73,2.55-.23C45.33,37.89,45.53,36.5,45.41,35.3Z"/><path class="cls-4" d="M42.45,37.77a7.39,7.39,0,0,0-2.83-.45c-.61.07-.86,1-2.26.68s-1.1-2.15-1.1-2.15A2.09,2.09,0,0,0,36,37.94c.56,1.06,1.79.49,2.26.29a3.73,3.73,0,0,1,1.86-.43,4,4,0,0,1,2.36.8,1.85,1.85,0,0,0,1.28.32,4,4,0,0,0,.65-.39,2,2,0,0,0,.54-.61,2.48,2.48,0,0,1-.73.35C43.41,38.51,43.06,38.1,42.45,37.77Z"/><path class="cls-4" d="M35.81,32.38a2,2,0,0,0-.64.57s-.35,4.27,0,4.93a1.91,1.91,0,0,0,.49.58c1.28-.88,1.44-1.93.89-4.27A3.9,3.9,0,0,0,35.81,32.38Z"/><path class="cls-7" d="M22.28,33.57a2,2,0,0,1,2.54-1.31,6.86,6.86,0,0,0,3,.35c2.2-.08,3.67.07,4.35-.08a5.83,5.83,0,0,1,3-.38c1.3.3,1.25,3.73.95,5s-1,1.89-1.77,1.7a10,10,0,0,0-2.93-.54,39,39,0,0,0-5.21.27,3.17,3.17,0,0,1-2.89.5C21.85,38.53,22.08,34.13,22.28,33.57Z"/><path class="cls-4" d="M36.16,37.18a8.39,8.39,0,0,0,.17-1.46c-.14,1-.48,1.68-1.41,1.66-1.19,0-.47-.56-1.72-.53a51.47,51.47,0,0,1-6.1,0c-.69-.17-.69.74-1.45,1.06s-1.19-.2-1.16-1.37a7.85,7.85,0,0,0-.84-3.83.93.93,0,0,0-.41-.29,2,2,0,0,0-1,1.16c-.2.56-.43,5,1.08,5.54a3.17,3.17,0,0,0,2.89-.5,39,39,0,0,1,5.21-.27,10,10,0,0,1,2.93.54C35.17,39.07,35.86,38.49,36.16,37.18Z"/><path class="cls-4" d="M35.11,38.11c-.78,0-1-.46-1.73-.56s-5,.13-6.35.13-.93.81-2.16.74-1.3-1.84-1.35-2-.72.8-.61,1.19A2,2,0,0,0,24,38.83a2.12,2.12,0,0,0,2-.41c.42-.3,1-.28,2.27-.33s3.93,0,4.73,0,.89.27,1.6.47a1.46,1.46,0,0,0,.8,0A2.07,2.07,0,0,0,36,37.8C35.8,38,35.61,38.08,35.11,38.11Z"/><path class="cls-4" d="M22.15,34.54c0,.74,0,1.62.1,2.4a3.22,3.22,0,0,0,.86,2c.46,0,.71-.39.91-1.59a7,7,0,0,0-.81-4.32,1.41,1.41,0,0,0-.37-.37,2.26,2.26,0,0,0-.56.88A4.49,4.49,0,0,0,22.15,34.54Z"/><path class="cls-7" d="M9.53,32.87A2.6,2.6,0,0,0,7,35.07a5.36,5.36,0,0,0,1.11,4.84c.86.79,2.8.36,3.42.08a8.36,8.36,0,0,1,3.6-.82,29.48,29.48,0,0,1,4.72.11,3.05,3.05,0,0,0,2.83,0c1.23-.7,1.19-2,1-3.56-.23-2.08-.86-3.47-2.32-3.35s-1.43.75-2.51.82-6.13,0-6.8.06C10.78,33.35,10.81,32.68,9.53,32.87Z"/><path class="cls-4" d="M23.67,35.74a9.93,9.93,0,0,0-.25-1.39v0c.1,1.33.1,3.09-1.37,3.48s-1.62-.71-3.13-.67-7.54.28-8,.49-1.34,2-3,.63c-1.1-.89-.88-2.9-.6-4.18a3,3,0,0,0-.33.92,5.36,5.36,0,0,0,1.11,4.84c.86.79,2.8.36,3.42.08a8.36,8.36,0,0,1,3.6-.82,29.48,29.48,0,0,1,4.72.11,3.05,3.05,0,0,0,2.83,0C23.88,38.6,23.84,37.3,23.67,35.74Z"/><path class="cls-10" d="M7.77,34.8c0,1.76,1,2.81,2,2.09s2.58-.66,4.15-.71a58.21,58.21,0,0,1,5.91-.24c.53.19,1.2,1.19,2.34.38s.91-3.24-.28-3.29a3,3,0,0,0-2,.43c-.48.24-8.55.69-9.25.38C9.25,33.22,7.77,33,7.77,34.8Z"/><path class="cls-10" d="M24.76,32.54s-.57.11-.21,1a10.72,10.72,0,0,1,.63,2.5c.07.56.77.6,1,0s1.62-.81,4-.81,3.84-.21,4.15.18,1.38,1.48,1.62.17-.45-3-1-3.2a1.09,1.09,0,0,0-1.34.28c-.46.46-1.76.49-4,.53s-3.07-.11-3.45-.11S25.81,32.16,24.76,32.54Z"/><path class="cls-10" d="M37.83,32.44s-.78-.18-.46.77A11.82,11.82,0,0,1,37.65,36c.07.85.84.74,1.41-.21s3.31-.25,4.12,0,1.06.92,1.55.53.32-2.25,0-2.68a.82.82,0,0,0-1.23-.14c-.43.32-2.22.18-3.14,0s-1.51-.22-1.51-.22S38.53,32.47,37.83,32.44Z"/><path class="cls-4" d="M16.31,38.71a14.49,14.49,0,0,1,5,.45,2.11,2.11,0,0,0,2-.44,2.32,2.32,0,0,0,.39-.94,2.94,2.94,0,0,1-3.21.61c-1.4-.47-2.83-.55-6-.33s-3.17.74-4.85,1.26a2.45,2.45,0,0,1-2.55-1.15,4.86,4.86,0,0,0,.48,1.1,2.25,2.25,0,0,0,1.07.61,5.64,5.64,0,0,0,3.53-.74C12.69,38.82,14.18,38.8,16.31,38.71Z"/><path class="cls-9" d="M21.35,33s-.65.1-.72.64-3.17.47-4.73.65-3.39.72-.79.69,4.8-.47,5.27-.22.83,1.27,1.73.54S22.72,32.7,21.35,33Z"/><path class="cls-9" d="M9.3,33.75s-1,0-.79,1.4S9.7,35.77,10,35,9.7,33.6,9.3,33.75Z"/><path class="cls-9" d="M25,33s-.54-.22-.11.75.43,2.24,1.08,1.52S26,32.7,25,33Z"/><path class="cls-9" d="M34.52,32.67s-.54.36-.11,1.47,1,1.85,1.27.8S35.46,32.09,34.52,32.67Z"/><path class="cls-9" d="M37.84,32.81s-.36-.18-.22.83.29,2.31.62,1.73S38.85,33.28,37.84,32.81Z"/><path class="cls-9" d="M44.25,33.53s-.55-.06-.41.95.27,1.41.68,1.12S44.87,33.57,44.25,33.53Z"/><path class="cls-10" d="M46.32,35.05s-.8.26-.1.84,2.91,2.36,3,2.46S48,35.56,46.32,35.05Z"/><path class="cls-7" d="M4.87,37.83a.72.72,0,0,0-.38.91c.17.7.84.91,1.15.14S5.26,37.66,4.87,37.83Z"/><path class="cls-6" d="M3.88,24.81a6.39,6.39,0,0,0-1.81,2.34c-.53,1.35.54.49,1.36-.42S4.53,24.52,3.88,24.81Z"/><path class="cls-6" d="M1.5,30.84S.43,31.54.27,34.2,0,38,.84,38.67s1-.49,1.07-3.11S2.2,30.47,1.5,30.84Z"/><path class="cls-6" d="M1.37,41.88s-1.06.9-.37,4.38S2.32,51,2.81,51.15s-.57-2.83-.74-5.58S1.87,41.71,1.37,41.88Z"/><path class="cls-8" d="M14.15,15.25c-.17,0-1.94.09-1.31.72a1.44,1.44,0,0,0,1.95.09C15.47,15.68,15.17,15.29,14.15,15.25Z"/><path class="cls-8" d="M6.28,31.17a2.73,2.73,0,0,0-1.65,2.25c-.34,1.73,1.31.13,2.16-.93S7.51,30.71,6.28,31.17Z"/><path class="cls-8" d="M5.77,42.74s-1.31.12-1.14,2.11,1,2,1.69.38S6.66,42.78,5.77,42.74Z"/><path class="cls-3" d="M273.9,23.67a4.57,4.57,0,0,1,3.91,1.68c1.91,2,1.68,4.14,1.13,4.46a6.1,6.1,0,0,1-3.27.27c-.68-.27-2.8-4.4-3.22-5S272.08,23.89,273.9,23.67Z"/><path class="cls-4" d="M273.9,23.67a4.19,4.19,0,0,1,2.91.82c-.44-.07-.88.05-.91.77-.07,1.51.91,3.57,2.16,3.6a1.45,1.45,0,0,0,1.24-.58c.1.79-.09,1.37-.36,1.53a6.1,6.1,0,0,1-3.27.27c-.68-.27-2.8-4.4-3.22-5S272.08,23.89,273.9,23.67Z"/><path class="cls-5" d="M273.9,23.67s2.08.17,1.49,1.28-3.5,1.34-4.49.87S271.23,24,273.9,23.67Z"/><path class="cls-3" d="M277,29.85a4.28,4.28,0,0,1,2.39.22c.73.5,1.4,3.57,1.34,5.75s-.11,4-.72,4.4-.34,1-2.07,1-3.4-2.12-3.73-2.79S275.43,29.85,277,29.85Z"/><path class="cls-4" d="M277,29.85a4.28,4.28,0,0,1,2.39.22,1.49,1.49,0,0,1,.4.53c-1.29-.75-2.33.55-2,2.54s-.1,5.68.61,6.39c.42.42,1.29.27,1.93.08a1.2,1.2,0,0,1-.37.61c-.62.45-.34,1-2.07,1s-3.4-2.12-3.73-2.79S275.43,29.85,277,29.85Z"/><path class="cls-3" d="M276.44,40.28s2.51-.23,3.51,1.34-.33,7.25-1.73,10a9.43,9.43,0,0,1-7.41,4.85c-3,.28-3.18-1.73-3.18-4.74S263.94,39.27,276.44,40.28Z"/><path class="cls-4" d="M267.63,51.77c0-3-3.69-12.5,8.81-11.49,0,0,2.4-.21,3.44,1.24l-.27-.09c-1-.39-2.42.42-2.29,3.19a30.6,30.6,0,0,1-.81,7c-.24,1.44,1,.82,1.43.55a9.55,9.55,0,0,1-7.13,4.34C267.85,56.79,267.63,54.78,267.63,51.77Z"/><path class="cls-5" d="M274.94,26.06a4.38,4.38,0,0,1,2.41,2.84,6.79,6.79,0,0,1-.42,3.69,7.24,7.24,0,0,1,.74,3.36c.14,2.47.19,4.52-.32,5.27s-.8,1.16-.8,1.16a11.05,11.05,0,0,1,.52,4c-.09,2.43-1,4.85-1.73,5.51s-.88.88-.93,1a.8.8,0,0,1-1.31.33,13.28,13.28,0,0,1-2.66-7.18C270.31,42.9,274,26.24,274.94,26.06Z"/><path class="cls-6" d="M276.21,42.73c1.22,2,.49,6.35-.78,8.06s-5.52,2.74-7.14,1.91-.92-5.18-1-7.48,0-3.28.73-3.86S275,40.72,276.21,42.73Z"/><path class="cls-4" d="M267.32,45.22c-.05-2.3,0-3.28.73-3.86s6.91-.64,8.15,1.35c-1.76-1-3.12.52-3.16,2.64-.05,2.29-1.28,4,.44,4.95a2.17,2.17,0,0,0,2.46-.4,5.65,5.65,0,0,1-.51.89c-1.27,1.71-5.52,2.74-7.14,1.91S267.37,47.52,267.32,45.22Z"/><path class="cls-6" d="M255.73,10.06c.19,0,5.18.62,5.8,1.43s-.74,3.41-2,3.21-2.4-2-3.45-2.94S254.64,10,255.73,10.06Z"/><path class="cls-4" d="M260.07,12a1,1,0,0,0,.29-.86,1.74,1.74,0,0,1,.75.41c.53.7-.64,2.95-1.71,2.78s-2.08-1.78-3-2.55c-.65-.56-1-1.09-.82-1.34a16.81,16.81,0,0,0,1.66,1.3C258.46,12.57,259.38,12.83,260.07,12Z"/><path class="cls-6" d="M261.8,11.3a3,3,0,0,1,2.59,1,6.2,6.2,0,0,0,2.79,2.47c2.05,1.2,3.21,1.47,4,2s.47,2-.81,2.83-2,1.51-3,.93-1.58-1.28-2.94-2a16,16,0,0,0-3.71-1.78c-.93-.16-1.2-1.44-1-2.56A4,4,0,0,1,261.8,11.3Z"/><path class="cls-4" d="M260.44,12.91a1.5,1.5,0,0,0,0,.3c.1,1.44,1.6,1.69,2.47,2.43s3.51,2.8,4.31,1.86a3.53,3.53,0,0,1,2.54-1.2.47.47,0,0,0,.2-.07,4.28,4.28,0,0,1,.71.41c.72.51.43,1.85-.75,2.56s-1.87,1.32-2.8.77-1.48-1.21-2.74-1.91a15.38,15.38,0,0,0-3.44-1.72c-.87-.16-1.12-1.34-.9-2.36A4,4,0,0,1,260.44,12.91Z"/><path class="cls-4" d="M271.38,17.27s-.3-.63-2.06-.22-2.28,2.4-1.8,3S271.9,18.66,271.38,17.27Z"/><path class="cls-6" d="M270.38,17.2s3-.38,2.93,2c-.06,1.83.15,3.16,1.23,4.24s.51,1.82-2.1,2.73-3.92,0-4-1.34a10.84,10.84,0,0,0-.62-3C267.44,20.52,266.59,18.05,270.38,17.2Z"/><path class="cls-4" d="M268.44,18.58a2.1,2.1,0,0,0,.12,1.94A11.14,11.14,0,0,1,269.82,24c.28,1.17,1.07,1.55,3.23,1.07,1.21-.27,1.5-.86,1.51-1.33.54.8-.12,1.41-2.21,2.14-2.4.83-3.6,0-3.67-1.22a9.37,9.37,0,0,0-.57-2.76C267.86,21,267.39,19.59,268.44,18.58Z"/><path class="cls-7" d="M271,17.39c.15,0,1.65.26,1.65,1.53s-.26,1.43.45,2.77,1.27,2.25.64,2.63a3.73,3.73,0,0,1-3,.15c-.64-.45-.68-2.48-1.54-3.71s-1-1.61-.6-2.36S270,17.46,271,17.39Z"/><path class="cls-8" d="M272.47,22.45c.12,0,2.18.1,1.43,1.22a2.48,2.48,0,0,1-3.55,0C269.76,22.83,272.47,22.45,272.47,22.45Z"/><path class="cls-8" d="M271.79,17.65s.86.56,0,1.05-2.59,1.05-3.15.15S270.41,17,271.79,17.65Z"/><path class="cls-7" d="M262.39,11.51a2.29,2.29,0,0,1,1.54,1,7.82,7.82,0,0,0,2.81,2.18c1.16.67,2.24,1.23,1.42,1.57s-1.24.6-2.21.11-3.18-2-4.35-2.58A1.26,1.26,0,0,1,262.39,11.51Z"/><path class="cls-7" d="M256.06,10.19c.34,0,4.23.68,4.19,1.2s-.67.72-1.49.27Z"/><path class="cls-8" d="M262.39,11.51s1.18.07.64.92-1.49,1.16-1.9.67S261.44,11.48,262.39,11.51Z"/><path class="cls-9" d="M256.23,10.25s3.08.38,3.39.74-.26.49-.95.21S256.23,10.25,256.23,10.25Z"/><path class="cls-6" d="M272.11,25.13s3.37.05,4.35,2.93.63,3.87-.49,4.79-6.16.4-7.48-.53S267,30.56,267,29a7.28,7.28,0,0,1,.43-3c.3-.73,2.94-1.61,5-.93Z"/><path class="cls-4" d="M267,29a7.28,7.28,0,0,1,.43-3c.3-.73,2.94-1.61,5-.93l-.34.05a5.74,5.74,0,0,1,2.83.93c-.89-.21-1.52.57-1.71,1.86-.24,1.66,1.17,2.49,2.69,2.93a.82.82,0,0,0,1.08-.59,2.57,2.57,0,0,1-1,2.59c-1.13.93-6.16.4-7.48-.53S267,30.56,267,29Z"/><path class="cls-6" d="M275.67,31.39c1.62,1.9,1.37,5.08,1.52,6.94s-.25,2.83-1.66,3.42-2.15,0-5.43-.2-3.47-.92-3.76-3.08a22,22,0,0,1,.54-6.54A1.87,1.87,0,0,1,269,30.7C271.72,30.9,274.06,29.48,275.67,31.39Z"/><path class="cls-4" d="M266.34,38.47a22,22,0,0,1,.54-6.54A1.87,1.87,0,0,1,269,30.7c2.19.16,4.16-.75,5.69-.05a3,3,0,0,0-2.66.4c-.64.53-1,1.36.49,1.8s1.8,3.28,1.61,4.84-.93,3,1.27,2.89a2,2,0,0,0,1.78-1.22,2.47,2.47,0,0,1-1.68,2.39c-1.42.59-2.15,0-5.43-.2S266.63,40.63,266.34,38.47Z"/><path class="cls-4" d="M267.22,40.86a54.38,54.38,0,0,1,7.33.21,4.77,4.77,0,0,0,2,0,3,3,0,0,1-1.06.7c-1.42.59-2.15,0-5.43-.2A4.93,4.93,0,0,1,267.22,40.86Z"/><path class="cls-5" d="M272.26,26.5s1.39-.44,1.17,1.29-.45,2.9-2.12,3.95-4,2-4-.16S271,26.5,272.26,26.5Z"/><path class="cls-7" d="M239.64,24.28a1.72,1.72,0,0,0-2.23.26,5,5,0,0,0-1.83,4.51c.13.65,2.21-.4,3.92-1.13S241.39,25.6,239.64,24.28Z"/><path class="cls-4" d="M235.58,29.05a.59.59,0,0,1,0-.14.58.58,0,0,0,.54-.17A5.84,5.84,0,0,0,238.5,26a1.07,1.07,0,0,0-.91-1.54,1.68,1.68,0,0,1,2-.13c1.75,1.32,1.57,2.92-.14,3.64S235.71,29.7,235.58,29.05Z"/><path class="cls-4" d="M239.15,25.34a1.86,1.86,0,0,1-.59,2.07,9.48,9.48,0,0,1-2,1.36,5.41,5.41,0,0,0,2.05-.76c.83-.57,1.08-.67,1.28-.94S239.52,25.41,239.15,25.34Z"/><path class="cls-4" d="M238.32,25.47a1.85,1.85,0,0,1,.17-1.45,1.53,1.53,0,0,1,1.15.26c1.43,1.07,1.57,2.34.65,3.16a.9.9,0,0,1-.4,0C239,27.14,238.63,26.65,238.32,25.47Z"/><path class="cls-7" d="M246.2,20.41a1.35,1.35,0,0,1,1.61,1.12c.25,1.08,2.64,3.55-.49,4.67-.69.33-.91-.33-4.48,1.08-.69.78-2.76.94-3.47-.17-1-1.6-1.22-3.72-.05-4.37a7.7,7.7,0,0,1,2.64-.69,9.71,9.71,0,0,0,2-.69A8.31,8.31,0,0,1,246.2,20.41Z"/><path class="cls-4" d="M239,23a3.87,3.87,0,0,0,.79,3.23c.74.91,1.22.83,2.13,0a3.69,3.69,0,0,1,2.64-.86c.49,0,1.75.17,1.73-1.19a19.64,19.64,0,0,1,.13-3.14,1.27,1.27,0,0,0-.08-.71,1.33,1.33,0,0,1,1.5,1.13c.25,1.08,2.64,3.55-.49,4.67-.69.33-.91-.33-4.48,1.08-.69.78-2.76.94-3.47-.17C238.47,25.7,238.21,23.89,239,23Z"/><path class="cls-4" d="M239.37,27.11a5.12,5.12,0,0,1-.39-.73,2.25,2.25,0,0,0,1.9,1c1.11,0,1.36-.89,2.42-1.26s2.15-.2,2.84-.59.54-1.48.54-1.61,1.33.49.94,1.19-.74.84-1.26.86a12,12,0,0,0-2.39.47,28.07,28.07,0,0,1-2.67,1.14,2.72,2.72,0,0,1-1.58-.11A1.24,1.24,0,0,1,239.37,27.11Z"/><path class="cls-4" d="M246.56,24.47a6,6,0,0,1,.26-3.75,1,1,0,0,1,.21-.21,1.31,1.31,0,0,1,.78,1,14,14,0,0,0,.78,1.66c-.05,1.39-.31,2.78-.78,2.7C246.93,25.75,246.91,25.51,246.56,24.47Z"/><path class="cls-7" d="M258.81,19.79s1.22.25.73,2.68-.94,4-2.57,4a3.79,3.79,0,0,1-2.44-.65,15.61,15.61,0,0,0-4.48,0,2.59,2.59,0,0,1-2.37.09c-.94-.52-1.08-2.25-.9-3.88a1.77,1.77,0,0,1,2.29-1.79c1.12.19,3.86-.09,5.67,0S257,19,258.81,19.79Z"/><path class="cls-4" d="M246.78,22a3,3,0,0,1,.11-.57,7.13,7.13,0,0,0,.05,1.66,1.51,1.51,0,0,0,2.3,1.12c.86-.48,2.31-.42,4.13-.64s1.5.11,2,.59a1.16,1.16,0,0,0,1.93-.37,12.32,12.32,0,0,1,1.51-3.38.49.49,0,0,0,0-.63h0s1.22.25.73,2.68-.94,4-2.57,4a3.79,3.79,0,0,1-2.44-.65,15.61,15.61,0,0,0-4.48,0,2.59,2.59,0,0,1-2.37.09C246.74,25.37,246.6,23.64,246.78,22Z"/><path class="cls-4" d="M246.78,24.18a1.62,1.62,0,0,0,1.76,1,5.36,5.36,0,0,1,1.77-.47,16.64,16.64,0,0,1,4-.16,3.18,3.18,0,0,0,2,.73c1.06-.1,1.7-1.86,1.79-1.92.37-.22.86.55,1,1-.05.17-.11.32-.16.47a5.25,5.25,0,0,1-.95,1c-.59.47-1,.45-2,.29s-1.15-.55-1.66-.69a16.62,16.62,0,0,0-3.32-.07c-1,.07-1.61.41-2.72.51a1.39,1.39,0,0,1-1-.27A2.82,2.82,0,0,1,246.78,24.18Z"/><path class="cls-4" d="M259.48,20.44a3.44,3.44,0,0,1,.06,2c-.41,2.09-.81,3.52-1.94,3.9-.73-.73-.22-1.39.33-3.59A3.51,3.51,0,0,1,259.48,20.44Z"/><path class="cls-7" d="M260.66,20.63c.49-.16,1-.17,2.17.76a47.8,47.8,0,0,0,6.84,3.74c2.84.6,2.88,1,3.17,1.92s-1,4-2.67,4.56-1.81.17-3.43-1-3.15-1.43-4.87-2.44c-2-1.2-2.82-.71-3.62-1.44C257.18,25.73,257.48,21.72,260.66,20.63Z"/><path class="cls-4" d="M258.14,24.33c.48,1.34,2.31.91,3.54,1s6.54,2.36,7,3.16,1.77,2.36,3.22.43a3.24,3.24,0,0,0,.52-2.76,2.19,2.19,0,0,1,.4.87c.28.93-1,4-2.67,4.56s-1.81.17-3.43-1-3.15-1.43-4.87-2.44c-2-1.2-2.82-.71-3.62-1.44-.58-.54-.76-2-.28-3.35A3.57,3.57,0,0,0,258.14,24.33Z"/><path class="cls-8" d="M261.52,20.9a4.25,4.25,0,0,1,1.39,1,17,17,0,0,0,4.61,2.84,15.09,15.09,0,0,0,3.54,1.12c1,.27,1.34,1.07.48,2.15s-1.82.48-2.41-.16a44,44,0,0,0-6.7-3.7c-1.29-.54-1.82-.16-2.73-.54s-.75-1.39-.06-2S260.77,20.69,261.52,20.9Z"/><path class="cls-4" d="M259.41,26.92a3,3,0,0,1-1.2-.27,2,2,0,0,1-.48-1.13,2.85,2.85,0,0,0,2.27.75c1.28,0,3.24,1,5.65,2.1s2.76,1.92,4.06,2.42a2.12,2.12,0,0,0,1.86-.28,3.22,3.22,0,0,1-1.4,1.1,5.16,5.16,0,0,1-.73.2,3.05,3.05,0,0,1-1.84-1.24,24.29,24.29,0,0,0-3.47-1.81C262.87,28.11,260.5,26.94,259.41,26.92Z"/><path class="cls-8" d="M258.12,20.09a1.73,1.73,0,0,0-1.61.14c-.68.54-2.71.36-4.17.36a17.92,17.92,0,0,1-3.06-.05c-.52-.16-1-.37-1.51.05a2.14,2.14,0,0,0-.41,2.27c.39.64,1.1.31,1.62.12a43.44,43.44,0,0,1,5.16-.37c1.14,0,1.18.46,1.73.6a1.39,1.39,0,0,0,1.6-1C257.85,21.3,258.6,20.23,258.12,20.09Z"/><path class="cls-8" d="M245.85,20.89s.46.08.3,1.09-.24,2.15-1,2.05a4,4,0,0,0-2.42.2,3.61,3.61,0,0,0-2,1.19c-.36.48-1.21,0-1.46-1s0-1.63.74-1.84.25.13,1.66-.17a11.48,11.48,0,0,0,2.63-.86C244.93,21.27,245.18,20.66,245.85,20.89Z"/><path class="cls-10" d="M237.37,25.11s.66.41-.1,1.23-1.48,2.11-1.48,2A4.14,4.14,0,0,1,237.37,25.11Z"/><path class="cls-5" d="M269.59,42.07a2.53,2.53,0,0,1,3.05,2.1c.73,2.69-.16,5.64-2,6.11s-2.85-.68-3.07-2.74S268.26,42.18,269.59,42.07Z"/><path class="cls-7" d="M242.33,48.36a5.15,5.15,0,0,0-3,.29c-2,.63-5.15,1.84-4.19,2.41a18.23,18.23,0,0,0,6,1.21c1.61,0,1.55,0,2.15-.51S243.83,48.82,242.33,48.36Z"/><path class="cls-4" d="M235,50.68a7.58,7.58,0,0,0,2.51.42c2.73.16,3.38-.33,3.45-1.5a.89.89,0,0,0-.7-1,4.92,4.92,0,0,1,2.08,0,2,2,0,0,1,1,3c-.6.46-.54.46-2.15.46a20.41,20.41,0,0,1-6-1.07C235,50.89,235,50.79,235,50.68Z"/><path class="cls-4" d="M241.82,50.83s0,.85-1.62.85a38.65,38.65,0,0,1-4.31-.48,18.21,18.21,0,0,0,3.28.76c1.81.27,2.3,0,2.71-.19S241.82,50.83,241.82,50.83Z"/><path class="cls-4" d="M242.33,48.36c1.5.46,1.62,2.88,1,3.4a1.55,1.55,0,0,1-1.42.51,4,4,0,0,1-.67-1.92,3.26,3.26,0,0,1,.5-2.08A2.84,2.84,0,0,1,242.33,48.36Z"/><path class="cls-7" d="M249.32,47a1.5,1.5,0,0,0-1.39-.41c-.88.17-.81.58-1.52.82a5.5,5.5,0,0,1-2.62.24c-.89-.17-1.66-.27-2,.54a4.92,4.92,0,0,0,.14,3.54c.49,1.26,1.17,1.4,2,1.26a7.22,7.22,0,0,1,2.37-.41c1.13.07,1.42.27,2.2.27a1.31,1.31,0,0,0,1.34-.68C250.13,51.7,249.78,47.45,249.32,47Z"/><path class="cls-4" d="M241.88,51.77c-.08-.2-.14-.4-.2-.6a1.07,1.07,0,0,0,1.78.18c.33-.33,1-.31,1.8-.41s.85.7,1.78.52.05-2.69.8-3.77c.61-.89,1-.93,1.12-.91a1.44,1.44,0,0,1,.36.26c.46.41.81,4.66.42,5.17a1.31,1.31,0,0,1-1.34.68c-.78,0-1.07-.2-2.2-.27a7.22,7.22,0,0,0-2.37.41C243.05,53.17,242.37,53,241.88,51.77Z"/><g class="cls-11"><path class="cls-12" d="M248.18,50.7a.32.32,0,0,0,0,.07l-.09-.07Z"/><path class="cls-12" d="M244,52.26a3.55,3.55,0,0,1,1.65-.41c.61-.06,1,.31,1.83.2s.76-1,.76-1.28c.26.22,1,.9.85,1.3s-.67.46-1.1.44-.93-.17-1.47-.2a5,5,0,0,0-2.2.19,1.6,1.6,0,0,1-1.31.31,1.42,1.42,0,0,1-.77-.42l-.08-.13a1.07,1.07,0,0,0,.6.25A1.68,1.68,0,0,0,244,52.26Z"/></g><path class="cls-4" d="M249,46.78c-.22,0-1,.13-1.29,2.17s.44,3.15,1.22,3.36S249.47,46.86,249,46.78Z"/><path class="cls-7" d="M258.7,45.89a2.73,2.73,0,0,0-2.23-.63c-1.49.16-1.25.74-2.26,1a8.17,8.17,0,0,1-3.29.26c-.57-.19-1.73-.35-2.28.28a5.45,5.45,0,0,0-.46,4.21,2,2,0,0,0,2.76,1.61,10.67,10.67,0,0,1,4.73-.43,3.94,3.94,0,0,0,3.81-.65C260.48,50.56,258.7,45.89,258.7,45.89Z"/><path class="cls-4" d="M248.18,51.05a7,7,0,0,1-.16-2.28,4.51,4.51,0,0,0,.65,1.81c.64.88,1.28.42,2.13.18a16.33,16.33,0,0,1,4-.21c.64.09.82.84,1.92.48.62-.21.48-.27.21-2a4.32,4.32,0,0,1,.6-3.28.4.4,0,0,0,.08-.39,2.36,2.36,0,0,1,1.09.56s1.78,4.67.78,5.69a3.94,3.94,0,0,1-3.81.65,10.67,10.67,0,0,0-4.73.43A2,2,0,0,1,248.18,51.05Z"/><path class="cls-4" d="M248.79,52.24a2.4,2.4,0,0,1-.45-.72,3.15,3.15,0,0,0,.27.19,2,2,0,0,0,1.88-.12,13.06,13.06,0,0,1,3.63-.42c1,0,1.42.46,2.59.39S258,50,258,50s1.12,1,.83,1.32-.54.35-1.14.63a4,4,0,0,1-2.36-.15,7,7,0,0,0-2.85,0c-1.57.16-1.85.51-3,.58A1.32,1.32,0,0,1,248.79,52.24Z"/><path class="cls-4" d="M258.7,45.89s.15.41.35,1a24.8,24.8,0,0,1,.37,4.62c-.28.12-.94-.06-1.64-.88s-.82-3.43-.22-4.49a1.37,1.37,0,0,1,.61-.62A2.28,2.28,0,0,1,258.7,45.89Z"/><path class="cls-7" d="M269.59,42.07c.2,0,2.21-.33,2.67,2.21s-.07,4.84-1.16,5.24a5,5,0,0,1-2.57-.07A30.18,30.18,0,0,0,263,51c-.82.43-1.17,1.07-2.79,1-1.81-.06-2.32-2.27-2.58-4.22s.56-2.48,1.42-2.68,2.15.14,3-.22,5.4-1.68,5.63-1.74S268.5,42.1,269.59,42.07Z"/><path class="cls-4" d="M260.2,52c-1.28,0-1.91-1.15-2.26-2.49a2.36,2.36,0,0,0,1.26,1c1.8.6,2-.14,2.73-.74s1.5-.63,3.94-1.36,3.5-.8,5.3-1.27a1.64,1.64,0,0,0,1.25-1.11c0,1.77-.49,3.17-1.32,3.47a5,5,0,0,1-2.57-.07A30.18,30.18,0,0,0,263,51C262.17,51.4,261.82,52,260.2,52Z"/><path class="cls-4" d="M260.33,51.23c1.17-.1,1.3-.57,1.84-.84s4.8-1.5,5.73-1.73a21.64,21.64,0,0,1,3.21-.37,1.57,1.57,0,0,0,1.15-.61,4.69,4.69,0,0,1-.23.77c-.75.93-2.14.71-2.82.54s-1.74.24-3.57.74-3,.7-4.14,1.6a2.84,2.84,0,0,1-2.41.27,2.92,2.92,0,0,1-.76-1A2.2,2.2,0,0,0,260.33,51.23Z"/><path class="cls-10" d="M269.92,42.47a1.39,1.39,0,0,1,1.57,1.16c.43,1.39.37,2.58-.51,2.73s-1.34-.37-2.49-.31a22.72,22.72,0,0,0-5.28,1.16c-1.52.57-1.73.45-2.09,1.15s-1.4,1.94-2.4.49-.46-3.13.42-3.4,1.28.24,2.1,0,6.13-1.61,6.82-1.91S269.25,42.5,269.92,42.47Z"/><path class="cls-10" d="M255.76,46a.54.54,0,0,1,.84.37c.23.75-.14,1.3-.12,2.37s-.89,1.15-1.55.86a6.55,6.55,0,0,0-3.38-.34c-1.76.17-1.27.49-2.11.63s-1.09-.69-1-1.5.55-1.73,1.35-1.61a8.55,8.55,0,0,0,2,.29,7.52,7.52,0,0,0,2.95-.47A2.33,2.33,0,0,1,255.76,46Z"/><path class="cls-10" d="M247.59,47.06s.28.29-.1.94a4.67,4.67,0,0,0-.45,2c0,.5-.87,1-1.18.47s-.15-.69-1.31-.69-1.75.12-1.82.59-.83.75-1-.1.41-2.28.8-2.28.36.41,1.31.29a11.34,11.34,0,0,0,2.43-.32C246.64,47.73,247.09,46.78,247.59,47.06Z"/><path class="cls-9" d="M269.92,42.47a1.87,1.87,0,0,1,1.24,1.4c.34,1.19-.21,1.66-1.24.8S268.89,42,269.92,42.47Z"/><path class="cls-10" d="M239.4,48.88s1-.18.94.56-5.19,1.16-5.19,1.16A13.09,13.09,0,0,1,239.4,48.88Z"/><path class="cls-9" d="M247,47.63s.46.09.11.93-.09,1.38-.57,1.27S246.16,47.81,247,47.63Z"/><path class="cls-9" d="M242.6,48.29s.44.25.28,1.05-.8,1.24-.87.46S242,48.15,242.6,48.29Z"/><path class="cls-9" d="M249.32,47s.5-.22.39.91-.32,1.56-.85,1.21S248.58,47.05,249.32,47Z"/><path class="cls-9" d="M256.22,45.81c.09,0,.63-.09.38.53s-.11,2.32-.89,1.72S255.64,45.86,256.22,45.81Z"/><path class="cls-9" d="M255.9,48.59a.53.53,0,0,1,.2.89c-.31.39-.71.05-.85-.36S255.62,48.59,255.9,48.59Z"/><path class="cls-6" d="M254.33,62.06a4.68,4.68,0,0,1-2.37-.67c-1-.7-2.29-2.29-1.32-2.27s3.33.28,3.66.28S255.11,61.27,254.33,62.06Z"/><path class="cls-4" d="M254.33,62.06,254,62a2,2,0,0,1-.69-2,1.72,1.72,0,0,1,.2-.73c.39,0,.69.06.79.06C254.64,59.4,255.11,61.27,254.33,62.06Z"/><path class="cls-4" d="M252.74,61.14a.57.57,0,0,0,.1-1.12,11.3,11.3,0,0,1-1.35-.62c.92.07,2.3.21,2.54.21s.67,1.55,0,2.19a3.78,3.78,0,0,1-2-.55,5.07,5.07,0,0,1-1.08-1A2.5,2.5,0,0,0,252.74,61.14Z"/><path class="cls-6" d="M260.5,61.3c0,.11.2.87-.89,1a16.61,16.61,0,0,1-2.29-.12,11.21,11.21,0,0,0-1.87.17,1.36,1.36,0,0,1-1.73-.73c-.37-.78-.54-2.51.52-2.93s1.12.09,1.74,0a12.37,12.37,0,0,0,2.26-.36,1,1,0,0,1,1.31-.23C260.39,58.51,260.67,60.72,260.5,61.3Z"/><path class="cls-4" d="M260.33,61.1c0,.1.19.8-.85,1a15.61,15.61,0,0,1-2.18-.1,10.26,10.26,0,0,0-1.78.15,1.3,1.3,0,0,1-1.65-.68,3.12,3.12,0,0,1-.22-1.73,4,4,0,0,0,.17.75,1.37,1.37,0,0,0,1.55,1.06,6.51,6.51,0,0,0,1.92-.16c.24-.18.17,0,.68.28s1.44.14,1-.42a2.56,2.56,0,0,1-.66-2.37c.23-.74.68-.77.92-.72l.16.05C260.23,58.48,260.49,60.55,260.33,61.1Z"/><path class="cls-4" d="M259.13,58.12s-.81.06-.65,1.46,1,2.07,1.66,2.05-1-3.33-1-3.33Z"/><path class="cls-6" d="M266.78,59.33s0,1.28-1.18,1.42a8.45,8.45,0,0,0-2.63.44c-.87.37-1.14,1-2.19.77a3.1,3.1,0,0,1-2.15-2.63,1.5,1.5,0,0,1,1.31-1.81,7.44,7.44,0,0,0,1.79-.41c.84-.27.84-.91,1.85-1S266.61,57.62,266.78,59.33Z"/><path class="cls-4" d="M259.62,60.57a1.33,1.33,0,0,0,1.87.07,3.62,3.62,0,0,1,1.79-.51c.57,0,.75-.48.18-1.76a2.13,2.13,0,0,1,.16-2.06,3.78,3.78,0,0,1,2.86,3s0,1.19-1.09,1.32A8,8,0,0,0,263,61c-.81.35-1.06.91-2,.72a2.89,2.89,0,0,1-2-2.44v-.05A2.53,2.53,0,0,0,259.62,60.57Z"/><path class="cls-4" d="M264.34,55.68s-.92,0-.89,1.38A3,3,0,0,0,265,59.7c.69.35,1.65.49,1.85-.22S264.34,55.68,264.34,55.68Z"/><path class="cls-5" d="M270.18,50.41s2.45-.37,3.56,1.48.62,3-.53,3.69a3.28,3.28,0,0,1-3.65,0C268.57,54.8,267.36,50.78,270.18,50.41Z"/><path class="cls-6" d="M270.18,50.41a3.41,3.41,0,0,1,2.66,1c1.15,1.14,1.62,2.59.74,3.43s-.71.34-1.82.94a10.74,10.74,0,0,0-2.89,2.33c-.24.44-.34,1.75-1.62,1.82a3.23,3.23,0,0,1-3.17-1.52c-.8-1.25-.74-2.32.14-2.93s1.35-.5,2.16-1.18,2.55-2.42,2.69-2.59S269.47,50.41,270.18,50.41Z"/><path class="cls-4" d="M264.29,58.17a3.25,3.25,0,0,1-.53-1.41v0a3.49,3.49,0,0,0,1.35,1.9c.95.49,2.52.34,3-.52s.5-.77,1.8-2.07,2-1.8,3.09-2c.61-.11.63-1,.53-1.77a1.92,1.92,0,0,1-.08,2.34c-.85.84-.68.34-1.75.94a10.45,10.45,0,0,0-2.79,2.33c-.23.43-.33,1.75-1.56,1.81A3,3,0,0,1,264.29,58.17Z"/><path class="cls-7" d="M270.65,50.63a2.18,2.18,0,0,1,2,1.13c.44,1.11-.25,1.46-1,1.65a8.09,8.09,0,0,0-3,2.17c-.74.89-.91.92-1.18,1.53a1.49,1.49,0,0,1-2.2.82c-1.15-.67-1.38-1.85-.44-2.42a10.59,10.59,0,0,0,2.71-1.6,10.81,10.81,0,0,0,2-2.15C269.56,51.46,269.71,50.53,270.65,50.63Z"/><path class="cls-7" d="M263.05,56.67A2.36,2.36,0,0,0,263,58c.2.77.3,1.29-.54,1.11a2.81,2.81,0,0,0-2.12.62c-.39.32-.3.62-.91.2a1.44,1.44,0,0,1-.1-1.88c.32-.29.39,0,.79-.09a10,10,0,0,0,1.87-.62C262.19,57.23,262.86,56.55,263.05,56.67Z"/><path class="cls-7" d="M258.14,58.94a4.48,4.48,0,0,0,.13,1.9c.29.76-.3.71-.74.29s-1.11-.27-1.88-.17-1.08.42-1.52,0a1.62,1.62,0,0,1,.14-1.94c.42-.4.82-.23.89,0s1,.3,1.56.27S258,58.47,258.14,58.94Z"/><path class="cls-7" d="M250.52,59.28c0-.1,2,.49,2.08.94S251.4,61.39,250.52,59.28Z"/><path class="cls-9" d="M270.92,50.79s1.32.12,1.46,1.18-1.07.72-1.95.19S269.76,50.51,270.92,50.79Z"/><path class="cls-9" d="M264.91,55.66c.49.05.81-.19,1.23.58s0,1.79-1.16,1.28S264,55.57,264.91,55.66Z"/><path class="cls-9" d="M262.68,56.66s.38-.23.31.6a10.84,10.84,0,0,1-.07,1.44c-.12.39-.33.48-.74-.1A1.34,1.34,0,0,1,262.68,56.66Z"/><path class="cls-9" d="M259.69,57.79s.63-.09.47.68,0,1.53-.44,1.48S258.74,58.44,259.69,57.79Z"/><path class="cls-9" d="M258,59c.1.06-.24.63,0,1.28s0,1-.49.37S257.51,58.77,258,59Z"/><path class="cls-9" d="M254.78,58.86c.07,0,.53-.12.32.67s-.55,1.42-1,.91A1,1,0,0,1,254.78,58.86Z"/><path class="cls-9" d="M250.6,59.32a6.19,6.19,0,0,1,1.12.84c.39.42.16.65-.37.18A2.78,2.78,0,0,1,250.6,59.32Z"/><path class="cls-7" d="M274.25,30.93c.32.05,2.05,1,2.39,3.82S275.49,38,275,36.37s-.62-2.86-1.53-3.62S272.54,30.7,274.25,30.93Z"/><path class="cls-7" d="M274.83,26.41a2.39,2.39,0,0,1,1.34,2c.13,1.49-.92.72-1.73-.28S273.82,26.17,274.83,26.41Z"/><path class="cls-7" d="M275.11,43.19s1.43-.1,1.19,3-2,3.2-2.52,1.63S273.16,42.71,275.11,43.19Z"/><path class="cls-5" d="M270.19,33s2.7-1.38,3.75,1.85-.29,6.18-2.91,6.35-3.29-1.85-3.24-4S269.08,33.31,270.19,33Z"/><path class="cls-7" d="M236.92,38s.15.55-1.23.63-3.9.84-4.27.63c-.77-.45.8-3.23,2.92-4.54s2.16-.38,2.81,0A2,2,0,0,1,236.92,38Z"/><path class="cls-4" d="M231.42,39.28a.47.47,0,0,1-.2-.44c.17,0,.6-.33,1.32-.54,1.27-.38,2.67-.74,2.5-1.38a5.9,5.9,0,0,1,0-2.1.41.41,0,0,0-.12-.41c1.55-.79,1.65,0,2.23.37a2,2,0,0,1-.23,3.24s.15.55-1.23.63S231.79,39.49,231.42,39.28Z"/><path class="cls-4" d="M235.81,36.85s.18,1.09-1.48,1.5-2.75.7-2.75.7a18.1,18.1,0,0,0,2.48-.41c1.5-.35,1.77-.17,2.05-.72S235.81,36.85,235.81,36.85Z"/><path class="cls-4" d="M235,36a2.58,2.58,0,0,1,.57-1.8,1.3,1.3,0,0,1,.77,0l.18.09c.25.15.42.41.68.58a1.51,1.51,0,0,1,.43.49l0,.1a4.48,4.48,0,0,1-.24,2.31,2.47,2.47,0,0,1-.47.34s.09.33-.51.52C235.74,38.35,234.89,37.61,235,36Z"/><path class="cls-7" d="M245.57,33a2.07,2.07,0,0,0-2.12-.8c-1.42.26-1.07.61-2,.69s-3,.38-3.62.38-1.6-.61-2.11.54-.74,3.81.6,4.77,2.07.58,2.54.23a6.33,6.33,0,0,1,2.63-.54c.73,0,.91.62,2.11.58s1.56-.27,1.94-.92S245.57,33,245.57,33Z"/><path class="cls-4" d="M235.33,35.3a4.69,4.69,0,0,0,.28,1.58,1.22,1.22,0,0,0,2,.26c.4-.41.45-.52,2.17-.64s1.71-.22,2.09.64,1.79,1,1.58-.12.14-4.45,1.14-4.64a1.29,1.29,0,0,1,.34,0,2.12,2.12,0,0,1,.65.58s.34,4.27,0,4.93-.73.88-1.94.92-1.38-.58-2.11-.58a6.33,6.33,0,0,0-2.63.54c-.47.35-1.2.73-2.54-.23C235.41,37.89,235.21,36.5,235.33,35.3Z"/><path class="cls-4" d="M238.29,37.77a7.33,7.33,0,0,1,2.83-.45c.61.07.86,1,2.25.68s1.11-2.15,1.11-2.15a2.08,2.08,0,0,1,.22,2.09c-.55,1.06-1.78.49-2.25.29a3.77,3.77,0,0,0-1.87-.43,3.94,3.94,0,0,0-2.35.8,1.86,1.86,0,0,1-1.28.32,3.6,3.6,0,0,1-.65-.39,1.86,1.86,0,0,1-.54-.61,2.41,2.41,0,0,0,.72.35C237.32,38.51,237.67,38.1,238.29,37.77Z"/><path class="cls-4" d="M244.93,32.38a2.2,2.2,0,0,1,.64.57s.34,4.27,0,4.93a1.78,1.78,0,0,1-.49.58c-1.28-.88-1.43-1.93-.89-4.27A3.88,3.88,0,0,1,244.93,32.38Z"/><path class="cls-7" d="M258.46,33.57a2,2,0,0,0-2.55-1.31,6.84,6.84,0,0,1-3,.35c-2.19-.08-3.66.07-4.35-.08a5.8,5.8,0,0,0-3-.38c-1.29.3-1.25,3.73-1,5s1,1.89,1.77,1.7a10.15,10.15,0,0,1,2.93-.54,39.15,39.15,0,0,1,5.22.27,3.17,3.17,0,0,0,2.89.5C258.89,38.53,258.66,34.13,258.46,33.57Z"/><path class="cls-4" d="M244.57,37.18a8.52,8.52,0,0,1-.16-1.46c.13,1,.48,1.68,1.41,1.66,1.19,0,.46-.56,1.71-.53a51.63,51.63,0,0,0,6.11,0c.68-.17.69.74,1.45,1.06s1.19-.2,1.16-1.37a7.85,7.85,0,0,1,.84-3.83.9.9,0,0,1,.4-.29,2.06,2.06,0,0,1,1,1.16c.2.56.43,5-1.08,5.54a3.17,3.17,0,0,1-2.89-.5,39.15,39.15,0,0,0-5.22-.27,10.15,10.15,0,0,0-2.93.54C245.57,39.07,244.88,38.49,244.57,37.18Z"/><path class="cls-4" d="M245.62,38.11c.78,0,1-.46,1.73-.56s5,.13,6.36.13.93.81,2.16.74,1.3-1.84,1.34-2,.73.8.61,1.19a1.9,1.9,0,0,1-1.13,1.18,2.1,2.1,0,0,1-2-.41c-.42-.3-1-.28-2.28-.33s-3.92,0-4.72,0-.9.27-1.61.47a1.46,1.46,0,0,1-.8,0,2.32,2.32,0,0,1-.53-.81C244.94,38,245.12,38.08,245.62,38.11Z"/><path class="cls-4" d="M258.58,34.54c0,.74,0,1.62-.09,2.4a3.22,3.22,0,0,1-.87,2c-.46,0-.7-.39-.9-1.59a7,7,0,0,1,.81-4.32,1.17,1.17,0,0,1,.37-.37,2.52,2.52,0,0,1,.56.88A5.61,5.61,0,0,1,258.58,34.54Z"/><path class="cls-7" d="M271.21,32.87a2.6,2.6,0,0,1,2.56,2.2,5.36,5.36,0,0,1-1.11,4.84c-.86.79-2.81.36-3.42.08a8.37,8.37,0,0,0-3.61-.82,29.39,29.39,0,0,0-4.71.11c-.76.2-1.61.73-2.84,0s-1.19-2-1-3.56c.23-2.08.86-3.47,2.31-3.35s1.44.75,2.52.82,6.13,0,6.79.06C270,33.35,269.92,32.68,271.21,32.87Z"/><path class="cls-4" d="M257.07,35.74a8.66,8.66,0,0,1,.25-1.39v0c-.11,1.33-.11,3.09,1.37,3.48s1.61-.71,3.12-.67,7.55.28,8,.49,1.33,2,3,.63c1.1-.89.88-2.9.6-4.18a3,3,0,0,1,.33.92,5.36,5.36,0,0,1-1.11,4.84c-.86.79-2.81.36-3.42.08a8.37,8.37,0,0,0-3.61-.82,29.39,29.39,0,0,0-4.71.11c-.76.2-1.61.73-2.84,0S256.89,37.3,257.07,35.74Z"/><path class="cls-10" d="M273,34.8c0,1.76-1,2.81-2,2.09s-2.57-.66-4.15-.71a58,58,0,0,0-5.91-.24c-.52.19-1.19,1.19-2.34.38s-.9-3.24.29-3.29a3.07,3.07,0,0,1,2,.43c.47.24,8.55.69,9.25.38C271.49,33.22,273,33,273,34.8Z"/><path class="cls-10" d="M256,32.54s.56.11.21,1a10.72,10.72,0,0,0-.63,2.5c-.07.56-.78.6-1,0s-1.63-.81-4-.81-3.84-.21-4.16.18-1.37,1.48-1.62.17.46-3,1-3.2a1.09,1.09,0,0,1,1.34.28c.45.46,1.76.49,4,.53s3.06-.11,3.45-.11S254.92,32.16,256,32.54Z"/><path class="cls-10" d="M242.91,32.44s.77-.18.46.77a11.33,11.33,0,0,0-.28,2.82c-.07.85-.85.74-1.41-.21s-3.31-.25-4.12,0-1.06.92-1.55.53-.32-2.25,0-2.68a.82.82,0,0,1,1.23-.14c.42.32,2.22.18,3.13,0s1.52-.22,1.52-.22S242.21,32.47,242.91,32.44Z"/><path class="cls-4" d="M264.43,38.71a14.55,14.55,0,0,0-5,.45,2.12,2.12,0,0,1-2-.44,2.17,2.17,0,0,1-.38-.94,2.93,2.93,0,0,0,3.2.61c1.4-.47,2.84-.55,6-.33s3.18.74,4.86,1.26a2.44,2.44,0,0,0,2.54-1.15,4.45,4.45,0,0,1-.48,1.1,2.2,2.2,0,0,1-1.07.61,5.65,5.65,0,0,1-3.53-.74C268,38.82,266.55,38.8,264.43,38.71Z"/><path class="cls-9" d="M259.38,33s.65.1.72.64,3.18.47,4.73.65,3.39.72.8.69-4.8-.47-5.27-.22-.83,1.27-1.73.54S258,32.7,259.38,33Z"/><path class="cls-9" d="M271.43,33.75s1,0,.8,1.4-1.19.62-1.48-.14S271,33.6,271.43,33.75Z"/><path class="cls-9" d="M255.78,33s.54-.22.1.75-.43,2.24-1.08,1.52S254.69,32.7,255.78,33Z"/><path class="cls-9" d="M246.22,32.67s.54.36.1,1.47-1,1.85-1.26.8S245.28,32.09,246.22,32.67Z"/><path class="cls-9" d="M242.9,32.81s.36-.18.21.83-.29,2.31-.61,1.73S241.89,33.28,242.9,32.81Z"/><path class="cls-9" d="M236.48,33.53s.56-.06.41.95-.26,1.41-.67,1.12S235.87,33.57,236.48,33.53Z"/><path class="cls-10" d="M234.41,35.05s.8.26.11.84-2.91,2.36-3,2.46S232.73,35.56,234.41,35.05Z"/><path class="cls-7" d="M275.86,37.83a.73.73,0,0,1,.39.91c-.18.7-.84.91-1.15.14A.7.7,0,0,1,275.86,37.83Z"/><path class="cls-6" d="M276.86,24.81a6.3,6.3,0,0,1,1.8,2.34c.54,1.35-.53.49-1.35-.42S276.2,24.52,276.86,24.81Z"/><path class="cls-6" d="M279.24,30.84s1.07.7,1.23,3.36.25,3.78-.58,4.47-1-.49-1.06-3.11S278.54,30.47,279.24,30.84Z"/><path class="cls-6" d="M279.36,41.88s1.07.9.37,4.38-1.31,4.72-1.8,4.89.57-2.83.73-5.58S278.87,41.71,279.36,41.88Z"/><path class="cls-8" d="M266.58,15.25c.17,0,1.95.09,1.31.72a1.42,1.42,0,0,1-1.94.09C265.27,15.68,265.56,15.29,266.58,15.25Z"/><path class="cls-8" d="M274.46,31.17a2.73,2.73,0,0,1,1.65,2.25c.34,1.73-1.31.13-2.16-.93S273.23,30.71,274.46,31.17Z"/><path class="cls-8" d="M275,42.74s1.31.12,1.14,2.11-1.06,2-1.69.38S274.08,42.78,275,42.74Z"/><path class="cls-2" d="M245.72,10.66l-22.63,10.5c-5.65,2.63-44,7.28-37.78,8.49s28.49,2.22,34.75,2.83,8.89.81,10.11-1.42,4.24-8.08,7.47-9.9,6.87-3.23,9.3-5.65,1.21-6.06,4.64-7.28,12.12-1,9.7-1.41-6.87-1-8.69-.4S245.72,10.66,245.72,10.66Z"/><path class="cls-13" d="M75.1,7.67c.56.14,13.13.84,18.44.56s7.4-1.54,8.94-.7-4.89,5.86-11,4.89S75.1,7.67,75.1,7.67Z"/><path class="cls-2" d="M52.21,39.43s-1.3,2.4-6.46,3.14-5.9,0-.92,2.77,7,6.08,6.82,7.38-3.87,2-3.32,3,3.51-2.4,8.12-2.4,15.49.55,26.38-.18,14.57.92-1.48-4.43S53.31,38.88,52.21,39.43Z"/><path class="cls-2" d="M230.79,46.32s-1.76,3.3,2,5.49,10.76,3.74,11.42,4.17-.22.22.87,2.86,9.23,5.93,11.2,7.25-19.76.22-37.55-4-43-9-30.74-8.12,33.38,3.29,36.67,2.85S226.18,50.93,230.79,46.32Z"/><path class="cls-2" d="M230.91,68.54S205.54,63,196,60.75s-21.59-5.56-14-1.11,7.56,5.79,11.57,8,14,1.34,22,1.56S240.25,70.77,230.91,68.54Z"/><path class="cls-2" d="M95.63,57.86c-2.67-.22-20.24-2.45-22-1.56S83,64.76,90.07,66.09s9.57.89,18.47,2.45,18.24,1.11,22.25,1.56S95.63,57.86,95.63,57.86Z"/><path class="cls-13" d="M81.39,24.93C80.5,24.93,66.71,22,62,22s-9.57-.22-13.8-2-8.68-3.78-3.78-.45,6.45,3.79,8.46,6.23,2.22,2.67,5.78,2.23,18,.44,27.81,2.67,26.25,6,39.38,9.34S81.39,24.93,81.39,24.93Z"/><path class="cls-13" d="M231.14,7.38c-.86-.08-35.13-1.44-43.49-.86s-37.43-1.44-33.11.57,22.17,4.9,36,6.05,18.72,1.44,28.22-1.15S236.9,8,231.14,7.38Z"/><path class="cls-13" d="M53.16,35.89c1.63,1.22,3.46,5.19.29,5.76s-8.64,2-4.9,2.31,6.91-.29,16.71,1.44,19.87,4,13.24,1.15S59.78,39.06,58.06,38.2,50.85,34.16,53.16,35.89Z"/><path class="cls-13" d="M234,23.15s-2,3.34-1.17,5.68-.27,1.13-2.64,2.23-.87-.56-5.38-1.06-16.2,0-20.88-1,15.2-3,21.05-3.68S235,21.31,234,23.15Z"/><path class="cls-13" d="M229.8,36.85c.34.4-2.17,2.5-.83,4.17s5.67,2.17,4.51,2.34-2.68,2-3.35,1.84-1.16-1.67-3.5-2.68-8.52-3.34-7-3.34S229,35.84,229.8,36.85Z"/><path class="cls-13" d="M231,50.71c.36-.61,2.17,2,3.84,2.84s.84,1.67-2.34,1.17S229.8,52.71,231,50.71Z"/><path class="cls-13" d="M184.75,58.83s18.61,8.07,25.34,9a136.37,136.37,0,0,0,15,.89s-26-7.8-29.13-7.94S181.61,56.81,184.75,58.83Z"/></g></g></svg>