<svg xmlns="http://www.w3.org/2000/svg" viewBox="0 0 301.8 78.68"><defs><style>.cls-1{isolation:isolate;}.cls-2{fill:#844f41;}.cls-10,.cls-13,.cls-3{fill:#f4c0ae;}.cls-12,.cls-16,.cls-26,.cls-3{opacity:0.38;}.cls-10,.cls-16,.cls-27,.cls-28,.cls-3{mix-blend-mode:overlay;}.cls-23,.cls-4,.cls-7{fill:#68382f;}.cls-5{fill:#d1bf93;}.cls-11,.cls-12,.cls-6{fill:#c18267;}.cls-7,.cls-9{opacity:0.42;}.cls-25,.cls-8{fill:#f4efd7;}.cls-8{opacity:0.47;}.cls-24,.cls-9{fill:#fff;}.cls-10{opacity:0.64;}.cls-11{opacity:0.5;}.cls-13{opacity:0.62;}.cls-14{fill:#8c6b4f;}.cls-15{fill:#6d4629;}.cls-16,.cls-27,.cls-28{fill:#f2d4af;}.cls-17,.cls-19,.cls-22{fill:#1e0602;}.cls-17{opacity:0.17;}.cls-18{opacity:0.1;}.cls-20,.cls-21{fill:#512f18;}.cls-20{opacity:0.28;}.cls-21{opacity:0.39;}.cls-22{opacity:0.24;}.cls-23{opacity:0.48;}.cls-24{opacity:0.54;}.cls-25{opacity:0.36;}.cls-26{fill:#3a1c05;}.cls-27{opacity:0.15;}.cls-28{opacity:0.35;}.cls-29{fill:#492e12;}</style></defs><g class="cls-1"><g id="Layer_2" data-name="Layer 2"><g id="Layer_1-2" data-name="Layer 1"><path class="cls-2" d="M13.17,12.68a13,13,0,0,0,.75,3l.46.82a6.75,6.75,0,0,1,.9-2.18l.53-.6a5.27,5.27,0,0,0-.15,2c.15.82.3,1.9.37,1.29s1.36-1.67,1.36-1.67L17,17s4.44-.68,4.82-.68,7.33-5,7.84-3.7.06,45.55.21,46.3.9,12.94.9,12.94-2.93-.75-3.76-1.5a8.45,8.45,0,0,1-1.28-1.43s2,2.93,2.26,3.54.53,1.13.53,1.13a3.27,3.27,0,0,1-1.81-.83c-1.06-.83-2.56-2.34-2.56-2.34a2.24,2.24,0,0,1,.08,1.51,10.17,10.17,0,0,1-.91,2.18,7,7,0,0,0-.75-3.31c-.83-1.43-.66-1.64-.66-1.64a5.35,5.35,0,0,0-1,1.56,12.17,12.17,0,0,1-1,1.89,30.71,30.71,0,0,0-.16-4.37c-.22-.68-1.05,1.13-1.12,2a16.75,16.75,0,0,1-.3,1.89,8.3,8.3,0,0,1-1-3.32c-.08-1.73-.08-3-.08-3s-1,2.86-2.11,3.77l-1.13.9A13.25,13.25,0,0,0,15.28,67a8.5,8.5,0,0,0-.08-2,9.89,9.89,0,0,0-1.28,2,13.74,13.74,0,0,0-.9,2.33s-.75-2.41-.23-3.76,1-2.64,1-2.64-1.65,1.21-3,2.34a5.17,5.17,0,0,1-3.31,1,13.56,13.56,0,0,0,2.64-2.78,4,4,0,0,0,.6-2.78S7.23,63,7,63.48,8.28,60.24,9.71,59c0,0-3,1.13-4.07.83a12.3,12.3,0,0,0,2.79-2.49L6.32,58s.6-2.71,1.88-3.54c0,0-3.08.83-4.29,2.63a14,14,0,0,1,1.21-3.54l1.13-2S4.74,52.87,4.52,53s-.68-2.64,1.58-3.61a12.29,12.29,0,0,1-4.6,1.43,9,9,0,0,0,2.71-2.79c.76-1.51,1.43-3,1.43-3l-1.8.9s1.13-2.63,2-2.86c0,0-2.71.76-3.46,2,0,0,0-2.56,3-4.74s-.45-.45-2-1.21l-1.58-.75s3.08-1,4.14-1.2a4.74,4.74,0,0,0,1.58-.6,11.46,11.46,0,0,0-4.82-1.43H0a6.37,6.37,0,0,1,4.29-2.26c2.86-.3,3.61.07,3.61.07a10.56,10.56,0,0,1-3.46-1.8c-1.2-1.13-2-4.37-1.43-5.5,0,0,1.88,2.79,3,3.46l1.13.68A14,14,0,0,0,6.1,25.85l-.68-1.06a4.08,4.08,0,0,1,2.63,1.06l1.06,1s.75-2.18.37-2.78-2-1.66-1.8-1.58,2.86.82,3.16.82S8.5,20.88,8.43,19.6l-.08-1.28s1.81,1.05,2.49,1.43.68.6.68.38-1.36-2.49-1.28-3.39.07-1.58.07-1.58l2.56,3.16A8.49,8.49,0,0,1,13.17,12.68Z"/><path class="cls-3" d="M21.25,64.25c-.29,0-.82-.08-.74,2.32a41.1,41.1,0,0,1-.14,4.68,13.53,13.53,0,0,0,1.22-3.6C22,65.49,22.33,64.17,21.25,64.25Z"/><path class="cls-3" d="M18,61.92a3.16,3.16,0,0,0-1.84,2.54,24.47,24.47,0,0,1-.48,3.91c-.21.14,1.64-3,2-4S18.67,61.56,18,61.92Z"/><path class="cls-3" d="M15.12,54.33s-2,.34-2.67,1.43a5.76,5.76,0,0,0-.82,1.85,30,30,0,0,1,4.07-1.74C17.11,55.49,17.25,53.91,15.12,54.33Z"/><path class="cls-3" d="M15.46,62.27a4.19,4.19,0,0,0-2,2.54,6,6,0,0,0-.48,2.6,11.7,11.7,0,0,1,1.64-2.74C15.6,63.57,16.49,61.72,15.46,62.27Z"/><path class="cls-3" d="M14.36,57.43a31.48,31.48,0,0,1-1,3.33,7.86,7.86,0,0,0-.55,1.72,13,13,0,0,0,2.47-3.91C15.74,56.86,15,56.23,14.36,57.43Z"/><path class="cls-3" d="M10.71,45.13a7,7,0,0,1-2.09,2.32,15,15,0,0,0-3.3,3.63,27.55,27.55,0,0,1,4.29-2.31c2.26-.77,2.54-.66,2.92-1.71S11.71,44.42,10.71,45.13Z"/><path class="cls-3" d="M10.66,42.49s-2.26.61-2.53,1c0,0,2.09.11,2.86.22S12.26,42.44,10.66,42.49Z"/><path class="cls-3" d="M10.64,16s.95,4.23,2.9,4.34S12.42,18.66,10.64,16Z"/><path class="cls-3" d="M8.75,18.94s1.82,3,3.8,3.6,1.6-.71.09-1.26A21.9,21.9,0,0,1,8.75,18.94Z"/><path class="cls-3" d="M3.32,26.57c0-.08.39,2.82,2.16,4.11S8,32.12,8.3,31.73,4.22,28.7,3.32,26.57Z"/><path class="cls-3" d="M6,25.1a6.34,6.34,0,0,1,1.71,2.73C8,29.33,8.85,29,9,28.4S8.24,25.49,6,25.1Z"/><path class="cls-4" d="M10.39,34.81c1,1.79.45,1.79.33,5s-.22,7.3,1.8,9.32,2.47,3.48,2.36,5.73,1.46,7.3,4.27,9.32S25,66,26.56,67.38s2.69,1.57,3.93,3.25a2.09,2.09,0,0,0,.24.28c-.18-2.84-.73-11.39-.85-12s.15-29.43,0-41.3L10.61,30.2S9.38,33,10.39,34.81Z"/><path class="cls-5" d="M32.43,2.06A12.29,12.29,0,0,1,38,3.35a11.82,11.82,0,0,1,4,4.73c.14.43-7.82.15-9.18.43S31.86,3.35,32.43,2.06Z"/><path class="cls-6" d="M29.79,0s-5.68.54-7.7,3-1.48,4.35-2.8,5.91-5.76,8-6.46,10.74-.31,4.2.31,4.82,11.36-8.25,13.69-10,3.58-4.67,5.37-4.9,1.56-4.2,1.09-6.38S31.5.47,29.79,0Z"/><path class="cls-7" d="M33.41,3.8a2.27,2.27,0,0,0,0,.41c-.15,3.51-2.87,3.23-4.31,4.38a23.92,23.92,0,0,1-6.24,3.3c-2.65,1-2.65,2.65-4.52,2.43-1-.11-1.25-1.23-1.31-2.29-1.72,2.54-3.71,5.83-4.16,7.58-.7,2.72-.31,4.2.31,4.82s11.36-8.25,13.69-10,3.58-4.67,5.37-4.9C33.84,9.36,33.78,6,33.41,3.8Z"/><path class="cls-3" d="M25.87,1.19s-4,1.5-4.4,3.43-1.37,2.5-2.18,4.25.47,2.71,3.36,1a17.82,17.82,0,0,1,6.64-2.68c2.25-.43,3.11-1.5,2.79-3.64S29.93.33,25.87,1.19Z"/><path class="cls-3" d="M23,3.13s-1.43.65-.71,2.66,1.93,2.58,2,1.72S24.83,2.56,23,3.13Z"/><path class="cls-8" d="M38,3.35a9.61,9.61,0,0,0-3.47-1.13,1.21,1.21,0,0,0-.48,1c-.14,2,3.59,2.52,6,3.66A5.16,5.16,0,0,1,41.81,8.2q.25,0,.24-.12A11.82,11.82,0,0,0,38,3.35Z"/><path class="cls-3" d="M28.2,1.12a1.89,1.89,0,0,0-.64,1.94c.35,1.15,1.22,4,2.94,2.94s1.14-3.37.36-4.23S29,.41,28.2,1.12Z"/><path class="cls-9" d="M23,3.13s-1.08.12-.41,1.82,1.13.57,1.13-.37S23.57,2.83,23,3.13Z"/><path class="cls-10" d="M30.46.87c-.21-.17-2.7-.39-3.09.19s1.1.58,2.51,1.8,1.48,2.19,1.94,1.87C31.82,4.73,33,2.93,30.46.87Z"/><path class="cls-11" d="M24.67,62.4c.24.12,2.92,1.85,3.75,3.46s1.43.18,1-2S24.67,62.4,24.67,62.4Z"/><path class="cls-12" d="M24,26.79s3,1.32,3.29,14.76-2,17.66-4.48,16.87-4.51-4.71-3-6,4-2.59,3.7-5.88-4.21-7.78-3-9.1,3.56-5.4,2.37-7.64A2,2,0,0,1,24,26.79Z"/><path class="cls-3" d="M7.45,39.79s-1,.08-3.06,1.77a8,8,0,0,0-1.47,2.33S6.35,42,7.13,41.64,9,39.79,7.45,39.79Z"/><path class="cls-3" d="M8.16,36.42a6.64,6.64,0,0,1-2.54,1.17c-1.76.48-2.87.74-2.87.74s.72.6,2.87.36,2.69-1.07,3-1.49S8.58,36.15,8.16,36.42Z"/><path class="cls-3" d="M7.89,33.25A6.66,6.66,0,0,0,4.4,33a6.81,6.81,0,0,0-3.26,1.47,11.18,11.18,0,0,1,4.45-.06c2.27.48,2.78.72,3.23.21S8.76,33.61,7.89,33.25Z"/><path class="cls-3" d="M7.52,42a7.22,7.22,0,0,0-2.19,1.91c-.69,1-.69,1.21-.69,1.21A17.68,17.68,0,0,1,6.5,43.83,5.62,5.62,0,0,0,8,42.72C8.39,42.29,8.27,41.72,7.52,42Z"/><path class="cls-3" d="M9.71,36.92A12.56,12.56,0,0,1,8.24,38.6a6.69,6.69,0,0,1-1,.75,4.58,4.58,0,0,0,2.67-1C11.18,37.4,10.43,36.35,9.71,36.92Z"/><path class="cls-3" d="M7.25,44.47a5.53,5.53,0,0,0-1.87,2.26A11.1,11.1,0,0,1,3.45,50a9.8,9.8,0,0,0,3.3-2.86C8,45.3,8,44.09,7.25,44.47Z"/><path class="cls-13" d="M3.78,27.66S5,30.11,6.24,30.39,4.65,28.89,3.78,27.66Z"/><path class="cls-13" d="M6.39,33a5.2,5.2,0,0,0-2.69.2l-1.18.52A11.57,11.57,0,0,1,6,33.44C7.15,33.68,7.42,33.08,6.39,33Z"/><path class="cls-13" d="M8,36.84s-1.74.6-2.93.87L3.86,38a9,9,0,0,0,2.89-.28C8,37.32,8.37,36.88,8,36.84Z"/><path class="cls-3" d="M10.26,49.83s-3.34,1.38-4.23,3a9,9,0,0,0-1,2.45,11.85,11.85,0,0,1,3.46-2.86C10,51.86,12.1,49.66,10.26,49.83Z"/><path class="cls-13" d="M6.05,40.49s-1.71,1-1.94,1.85S7.38,40.49,6.05,40.49Z"/><path class="cls-13" d="M7.25,44.47a5.43,5.43,0,0,0-1.59,2.29,5.52,5.52,0,0,1-.94,1.89S7.11,46.79,7.25,44.47Z"/><path class="cls-3" d="M12.54,52a11.63,11.63,0,0,0-3.66,2.27,7.07,7.07,0,0,0-1.44,2.5,17.58,17.58,0,0,1,3.66-2.5C12.54,53.7,14.1,51.75,12.54,52Z"/><path class="cls-3" d="M12.32,58.14a5.21,5.21,0,0,0-1,2.61,8.2,8.2,0,0,1-1.83,4.16,4.48,4.48,0,0,0,2.44-2.28C13,60.69,14,57.25,12.32,58.14Z"/><path class="cls-3" d="M10.77,55.86s-2,2.55-3.67,3.28a6.55,6.55,0,0,0,3.39-1.5C12,56.31,11.65,55.2,10.77,55.86Z"/><path class="cls-3" d="M18.94,65.08A12.41,12.41,0,0,0,18,68.39a11.44,11.44,0,0,0-.08,2.82c.08.25.91-2.9,1.41-3.73S20.26,64.25,18.94,65.08Z"/><path class="cls-3" d="M22.45,66.77a7.17,7.17,0,0,0,.09,2.75c.35,1.38.75,1.41.92,2.15s.16,1.13.21,1.17A3.5,3.5,0,0,0,24,70.78c-.14-1-.44-1.24-.51-2.17S22.87,65.43,22.45,66.77Z"/><path class="cls-13" d="M9.05,47.56a5.54,5.54,0,0,0-2.46,1.8c-1,1.23-1,1.56-1,1.56a29.12,29.12,0,0,1,3.31-2.36C9.76,48.18,10.57,47.23,9.05,47.56Z"/><path class="cls-13" d="M9.52,50.46a6.56,6.56,0,0,0-2.41,1.19,4.41,4.41,0,0,0-1.13,2,26.58,26.58,0,0,1,2.19-1.8C9.07,51.25,10.65,50.41,9.52,50.46Z"/><path class="cls-13" d="M11.77,52.71a5.88,5.88,0,0,0-2.39,1.37,4.66,4.66,0,0,0-.81,1s1.91-1.13,2.7-1.58S12.67,52.6,11.77,52.71Z"/><path class="cls-13" d="M10.37,56.65s-.79.67-1.58,1.24S10.76,57.89,10.37,56.65Z"/><path class="cls-13" d="M11.32,60.75a6.68,6.68,0,0,1-.73,2.82c-.62.78-1.1,1.34-1.1,1.34a4,4,0,0,0,2.44-3.29C12.39,59,11.38,60.4,11.32,60.75Z"/><path class="cls-13" d="M14.25,63.28a10,10,0,0,0-1,2.08,4.61,4.61,0,0,0-.05,1.47s.79-2.2,1.07-2.76S14.92,62.72,14.25,63.28Z"/><path class="cls-13" d="M6,25.1a9.58,9.58,0,0,1,2,2c.44.83.83.44.59-.15A4.16,4.16,0,0,0,6,25.1Z"/><path class="cls-13" d="M9.33,19.58a3.56,3.56,0,0,0,1.72,1.53C12.08,21.4,10.65,20.17,9.33,19.58Z"/><path class="cls-13" d="M10.85,16.45a21.2,21.2,0,0,0,1.67,2C12.91,18.7,11.24,19.14,10.85,16.45Z"/><path class="cls-3" d="M24.07,67.14A5.33,5.33,0,0,0,24.7,70a8.3,8.3,0,0,0,2.87,2.62A16.59,16.59,0,0,1,25.75,70a13.91,13.91,0,0,1-.88-2.32C24.7,67.35,24.23,66.59,24.07,67.14Z"/><path class="cls-3" d="M27.06,68.58c-.18-.16-1.52-1.52-1.43-1.1a5.18,5.18,0,0,0,2.23,2.79,5.39,5.39,0,0,0,1.78.63C29.76,70.94,27.86,69.3,27.06,68.58Z"/><path class="cls-5" d="M269.37,2.06a12.29,12.29,0,0,0-5.6,1.29,11.77,11.77,0,0,0-4,4.73c-.15.43,7.82.15,9.18.43S269.94,3.35,269.37,2.06Z"/><path class="cls-6" d="M272,0s5.68.54,7.71,3,1.48,4.35,2.8,5.91,5.75,8,6.45,10.74.32,4.2-.31,4.82-11.36-8.25-13.69-10-3.58-4.67-5.37-4.9-1.55-4.2-1.09-6.38S270.3.47,272,0Z"/><path class="cls-7" d="M268.4,3.8a3.79,3.79,0,0,1,0,.41c.14,3.51,2.87,3.23,4.3,4.38a24.25,24.25,0,0,0,6.24,3.3c2.66,1,2.66,2.65,4.52,2.43,1-.11,1.26-1.23,1.32-2.29,1.71,2.54,3.71,5.83,4.15,7.58.7,2.72.32,4.2-.31,4.82s-11.36-8.25-13.69-10-3.58-4.67-5.37-4.9C268,9.36,268,6,268.4,3.8Z"/><path class="cls-3" d="M275.94,1.19s4,1.5,4.39,3.43,1.38,2.5,2.19,4.25-.48,2.71-3.37,1a17.82,17.82,0,0,0-6.64-2.68c-2.25-.43-3.1-1.5-2.78-3.64S271.87.33,275.94,1.19Z"/><path class="cls-3" d="M278.84,3.13s1.43.65.72,2.66-1.94,2.58-2,1.72S277,2.56,278.84,3.13Z"/><path class="cls-8" d="M263.77,3.35a9.67,9.67,0,0,1,3.47-1.13,1.19,1.19,0,0,1,.48,1c.14,2-3.59,2.52-6,3.66A5.22,5.22,0,0,0,260,8.2c-.16,0-.25-.07-.23-.12A11.77,11.77,0,0,1,263.77,3.35Z"/><path class="cls-3" d="M273.6,1.12a1.89,1.89,0,0,1,.65,1.94c-.36,1.15-1.22,4-2.94,2.94s-1.15-3.37-.36-4.23S272.81.41,273.6,1.12Z"/><path class="cls-9" d="M278.84,3.13s1.08.12.42,1.82-1.14.57-1.14-.37S278.23,2.83,278.84,3.13Z"/><path class="cls-10" d="M271.34.87c.21-.17,2.71-.39,3.09.19s-1.09.58-2.51,1.8S270.44,5.05,270,4.73C270,4.73,268.76,2.93,271.34.87Z"/><path class="cls-14" d="M272,70.6c.43-17.13-.41-65.51-.41-65.51S163.4,2.8,156,3.19s-45.29,2.09-45.29,2.09l-2.18,2.65-1.92-3.55S89.56,5.91,85.29,5.52s-36.14.39-36.92.39S29.29,7.19,29.29,7.19s-2.2,20.69-1.55,27.47,2.19,39,2.19,39l6.13,5s99-2.19,105.11-2.19c5.56,0,101,2.07,124.63.1C267.68,74.46,269.94,72.63,272,70.6Z"/><path class="cls-15" d="M109,10.42a26,26,0,0,0,1.34-3.21c0-.19.09-1,.18-1.72l-2,2.44-1.92-3.55s.66,2.7.93,3.77A6.37,6.37,0,0,0,109,10.42Z"/><path class="cls-16" d="M37.63,8.7S72.45,9.81,87.46,8c5.92-.69,13.76-2.63,18-2.7,2.85,9.87,7,1.11,11.23,1,7-.22,65.16-1.58,86.91-1.36s50.48,2.21,57.23,2.21,7,.22,7.43,2.1S270,29.7,270,41s-1.3,23.7-.87,26-54.82,1.41-60,1.41-22.62-3.09-27.19-4-8,2-11.32,3.09-22.84,1.1-35.46,1.33-77.89,1.54-84.64,1.54-15.23,1.55-16.75.89-2.83-23.87-3-29.17-.43-32.93-.43-32.93Z"/><path class="cls-17" d="M265.75,13.35c-3,3.18-7.64,8.72-6.62,11.54s3.14,1.32,4.81,5.1-1.27,5.86-3.66,8-4.51,3.5-1.79,5.16,5.14,6.51,3.93,7.72-4.94,2.09-4.66,3.84,10.52,10.68,9.71,13.17-4.29,3.25-4.29,3.25,8.14.11,8.77-.52c.39-15.69-.28-57.57-.4-64.52L271.31,6C271.65,6.85,268.77,10.18,265.75,13.35Z"/><g class="cls-18"><path class="cls-19" d="M143.83,19.71a33.19,33.19,0,0,0-4.56-.25c-1.52,0-3,0-4.56.12-3,.14-6.06.42-9.08.7-6,.61-12.13,1.31-18.19,2.08s-12.12,1.56-18.13,2.56c-1.49.25-3,.51-4.43.84l-.51.13-.22.07L84,26l0,0a.74.74,0,0,0,.21-.23c.3,0,0-1.69-.18-1.33a.6.6,0,0,0-.16-.1l.1,0a4.93,4.93,0,0,0,.49.13c.7.16,1.45.31,2.19.44,3,.53,6,1,9,1.42q9.07,1.3,18.18,2.34c6.08.69,12.16,1.33,18.25,1.69,1.52.08,3,.15,4.56.15l4.58-.08,9.18-.1q9.18-.09,18.36-.26c6.12-.14,12.23-.31,18.34-.58,1.53-.07,3.06-.14,4.58-.23s3.06-.17,4.58-.29q4.58-.29,9.12-.82c6.07-.76,12.16-1.43,18.25-2.08l4.55-.51c.76-.09,1.51-.19,2.24-.3l.53-.1.22,0h0l-.07,0s-.47.28-.29,1c.27.45.32.34.38.4h0l-.23,0-.54,0L221.41,26q-18.34-.69-36.68-1.56c-6.11-.31-12.23-.52-18.33-1.08-3.06-.25-6.11-.54-9.15-.89s-6.09-.74-9.13-1.25c3.08-.13,6.15-.16,9.21-.13s6.12.1,9.17.22c1.53,0,3.06.12,4.59.19l4.58.24,9.17.44c12.23.58,24.46,1.27,36.68,2l9.18.54.61.06.33.05.22,0L232,25c.1.09.19,0,.49.48a.89.89,0,0,1-.36,1.08l-.2.1-.12,0-.1,0-.34.07-.6.1c-.79.11-1.55.19-2.31.27l-4.59.41c-6.1.53-12.18,1.07-18.27,1.71s-12.24.87-18.36,1.09-12.24.38-18.36.5l-18.36.36-9.18.21-4.59.15c-1.55,0-3.09,0-4.62-.06-6.14-.24-12.25-.76-18.35-1.32s-12.2-1.24-18.28-2c-3-.38-6.08-.77-9.13-1.26-.77-.12-1.53-.25-2.32-.42l-.62-.15A3.18,3.18,0,0,1,83,26.2a1.56,1.56,0,0,1-.28-.18c-.2.34-.55-1.38-.21-1.45a1.41,1.41,0,0,1,.31-.33l.18-.11a3.08,3.08,0,0,1,.42-.18l.32-.11.6-.16c1.55-.4,3-.67,4.58-.94,3-.53,6.06-1,9.1-1.44s6.07-.86,9.11-1.24,6.08-.75,9.13-1.1c1.52-.17,3-.35,4.58-.49l2.3-.2,2.3-.15a81.73,81.73,0,0,1,9.26,0c1.54.1,3.09.24,4.61.48.77.11,1.53.26,2.29.44A13.13,13.13,0,0,1,143.83,19.71Z"/><path class="cls-19" d="M150.07,17c-1,0-2.1,0-3.14-.05s-2.09-.09-3.14-.12l-6.26-.25c-4.17-.17-8.35-.28-12.52-.26s-8.35.11-12.51.38l-1.57.08-1.55.12-3.12.25c-2.08.22-4.15.41-6.23.66-8.32.93-16.66,1.7-25,2.59-4.15.45-8.31.92-12.42,1.55a57,57,0,0,0-6.06,1.2,14.36,14.36,0,0,0-1.4.47,5.2,5.2,0,0,0-.63.28,1.73,1.73,0,0,0-.41.3l0,0a0,0,0,0,0,0,0,.23.23,0,0,0,0-.12,1.2,1.2,0,0,0,.24.23c.07.06.17.11.25.17l.31.16.31.17.34.14a39,39,0,0,0,5.85,1.79c2,.48,4,.9,6.1,1.3,4.09.78,8.21,1.43,12.34,2,8.26,1.15,16.58,2,24.9,2.6s16.67,1,25,1c4.17,0,8.34-.07,12.52-.19s8.36-.24,12.54-.38c16.71-.57,33.42-1.33,50.1-2.49,8.33-.59,16.67-1.25,24.95-2.25,2.06-.25,4.13-.52,6.18-.84s4.1-.68,6.09-1.15c.5-.11,1-.25,1.47-.39s1-.3,1.49-.45c1-.31,2-.61,3-.9,2-.58,4.05-1.12,6-1.77a9.31,9.31,0,0,0,1.29-.53l.19-.12s0,0-.11.24a.81.81,0,0,0,0,.22.74.74,0,0,0,.06.18.37.37,0,0,0,.06.08s0,0,0,0,0,0,0,0l-.09-.05a8,8,0,0,0-1.29-.44c-.48-.12-1-.23-1.48-.33-2-.41-4.08-.72-6.14-1s-4.13-.58-6.2-.86l-3.11-.4-3.11-.37c-8.28-1-16.61-1.55-24.95-1.84s-16.7-.26-25.06-.1c-4.17.06-8.38.18-12.56.1S163.22,17.38,159,17c4.18-.41,8.37-.55,12.55-.63,2.09,0,4.17,0,6.26-.08l6.27-.16c8.37-.22,16.76-.33,25.14-.1,4.19.09,8.38.3,12.57.56s8.37.63,12.54,1.11l3.12.36,3.12.39c2.08.27,4.15.54,6.23.83s4.16.6,6.25,1c.52.1,1,.21,1.58.35a9,9,0,0,1,1.67.58l.25.14a1.45,1.45,0,0,1,.28.21,1.35,1.35,0,0,1,.17.17,1.31,1.31,0,0,1,.28,1,.91.91,0,0,1-.11.34,1,1,0,0,1-.15.24,1.56,1.56,0,0,1-.28.29,2.81,2.81,0,0,1-.47.32,10,10,0,0,1-1.59.68c-2,.7-4.05,1.23-6.06,1.83l-3,.9c-.5.15-1,.31-1.51.45s-1,.3-1.56.41c-2.08.5-4.16.87-6.24,1.19s-4.17.59-6.25.85c-8.34,1-16.69,1.68-25.05,2.27-16.71,1.16-33.43,1.93-50.17,2.5q-6.27.2-12.55.35c-4.18.1-8.38.19-12.58.16-8.39-.06-16.77-.44-25.13-1.07s-16.71-1.51-25-2.68c-4.16-.58-8.3-1.25-12.43-2.05-2.06-.4-4.12-.83-6.17-1.34L59.48,28,58,27.54a26.55,26.55,0,0,1-3.05-1.09l-.38-.17-.38-.21-.39-.21a3,3,0,0,1-.39-.27,2.26,2.26,0,0,1-.76-.95,1.43,1.43,0,0,1-.09-.43,1.8,1.8,0,0,1,.05-.46,3.17,3.17,0,0,1,.17-.37,2.48,2.48,0,0,1,1.05-.91,7.17,7.17,0,0,1,.81-.36,14.32,14.32,0,0,1,1.57-.51,60.31,60.31,0,0,1,6.25-1.2c4.17-.6,8.34-1,12.5-1.46,8.34-.82,16.67-1.52,25-2.39,2.07-.23,4.17-.41,6.25-.61l3.14-.22,1.57-.11,1.57-.08c4.19-.23,8.39-.3,12.58-.28s8.38.13,12.57.4l3.13.24,3.13.31C145.92,16.42,148,16.73,150.07,17Z"/><path class="cls-19" d="M169.59,26.43c-.63,0-17.6-2.34-26.51-2.76a123.68,123.68,0,0,0-20.57,1.06c-4,.42-8.69,2.12,4.67,2.54s17,.85,26.51.43S173.2,26.21,169.59,26.43Z"/><path class="cls-19" d="M267.36,29.82a21.73,21.73,0,0,0,4.49-2.71c0-3.33-.08-6.48-.12-9.3-5.24-2.29-15-5.89-22.82-6.23-9.76-.42-38.18-2.76-52.38-3.39S153.9,9.25,153.9,9.25s22.48.42,38.81.63,63.41,2.76,74.44,8.06-4.67,11.88-9.33,13.79-5.31,5.51-20.36,7.21-61.08,5.94-58.11,4.24-30.54-.21-46.66-.64S93.24,40,80.52,37.24s-36.69-6.15-36.69-6.15c1.7.85,12.09,5.09,18.24,5.73a221.4,221.4,0,0,1,28,5.09c10,2.54,51.75,2.75,67,3s15.9,1.06,35.2.63,52.39-5.94,58.33-7.21S260.36,33,267.36,29.82Z"/><path class="cls-19" d="M100.56,11.75s-30.72,3.42-39.37,4.33-19.8,5.69-19.8,8.42.69,3.41.69,3.41-3.87-2.5-5-4.1,8-7,14.11-8.19S83.49,9.48,100.56,11.75Z"/><path class="cls-19" d="M139,8.34c-1.36,0-13.42.23-19.79,1.14l-6.38.91s11.16,1.36,17.75.22S145.16,8.34,139,8.34Z"/><path class="cls-19" d="M50,52.49c-.73-.55,41.41,5.91,63.71,5.23s62.81-5.69,76-5.92,12.29.69,24.57.69,31.41-.69,42.56-2.74a26.17,26.17,0,0,0,16.45-10.22s1.53,9.51-18.61,13.28-66.34,1.27-75.21,1.72-44.83,5.24-57.35,5.69-35,0-46.64-2S51,53.17,50,52.49Z"/><path class="cls-19" d="M44.58,42.93c5.23.68,19.8,4.09,31.17,6.37S106,50,106,50s-15.93-1.14-21.16-1.59-16.39-3-28-5.46c-9.43-2-24-6.3-29.09-7.83.13,1.43.29,3.66.45,6.36l.44.24C34.6,45,39.34,42.25,44.58,42.93Z"/><path class="cls-19" d="M78,72.06h.12C78,72.05,78,72.06,78,72.06Z"/><path class="cls-19" d="M29.18,58.46c.07,1.45.14,2.86.21,4.21,3.35.13,6.5-1,14.51-.63,10,.46,16.61,2.73,25.25,4.1S91,70,89.41,70.46,79.54,72,78.15,72.05l16.49-.22s5-1.14,6.14-1.82-23-3.87-40.5-8C48.87,59.38,36.46,58.64,29.18,58.46Z"/><path class="cls-19" d="M268.12,53.41c1.81-1,.14,5.73-21.91,7.91s-39.74-1-49.43-1.21-19.39,0-25.93,1.69-8.48,2.91-6.78,3.39,7,1.7,9.93,1.46a162.78,162.78,0,0,1,17.21-.49c6.78.25,15,1.94,7,2.18S181,67.13,175,67.86s-13.57-1.7-17.2-2.42-6.06-3.88,9.2-5.58a323.54,323.54,0,0,1,40-2.18c9.93.24,21.32,3.4,35.86,2.18S265.79,54.72,268.12,53.41Z"/><path class="cls-19" d="M262.93,65.44s-6.3-2.67-18.66-1.22-28.83,3.15-30.77,3.15h-1.94s12.84,1,19.14.49S247.67,64.71,262.93,65.44Z"/></g><path class="cls-17" d="M42.4,52.76c-.73-2.43-7.29-3.4-5.35-6.69s7.42-2.19,6-5.23-9.12-5.47-9.36-9.12,6-4.13,8.63-7.29-6.57-12-10.21-13.75c-2.22-1-2.69-2.43-2.71-3.5h-.07s-2.2,20.69-1.55,27.47c.57,5.82,1.77,30.24,2.11,37.15,1.07-2,3.94-5.46,8.78-9.69C45.32,56.29,43.13,55.19,42.4,52.76Z"/><path class="cls-20" d="M38.29,18.59s6.57,3.17,7.79,4.14,2.5,1.11,11.31,1.07c10.82-.06,20.09,2.1,18.87,2.1s-24.1,1.7-28,1.7-15.83-2-16.56-2S38.29,18.59,38.29,18.59Z"/><path class="cls-21" d="M38.17,21.35a42.35,42.35,0,0,0,7.74,3.06A106.79,106.79,0,0,0,57.08,26s-9.55.18-13.87,0a24.33,24.33,0,0,1-8.89-2.63Z"/><path class="cls-20" d="M34.74,36.82a65.4,65.4,0,0,1,9.45,1.93c4.22,1.28,10.36.18,19.63.73s14.76,1.38,14.76,1.38L52.63,42.69c-3.76.28-12.75.92-15.05,1.1a18,18,0,0,0-4.36,1Z"/><path class="cls-21" d="M38.14,39.54c.13,0,5.42.21,8.76.75s8.75.59,8.87.67a63.17,63.17,0,0,1-7.41,1.13c-1.33.14-4,.06-4.92.2-4,.59-5.3.8-5.3.8Z"/><path class="cls-21" d="M35.71,54.83c.45-.46,3.53-1.28,6.44-1.18s4.47-.19,6.47.24a84.65,84.65,0,0,0,8.56.72c2.14.14,5.42.42,5.42.42S50.47,56.6,47.91,56.6a69.71,69.71,0,0,0-7.56.72c-1.29.14-2.17,1.11-3,.84S35.22,55.34,35.71,54.83Z"/><path class="cls-21" d="M39,55.19a11.56,11.56,0,0,1,5.47-1c3,.17,10.15.6,9.8.69s-10.15.61-10.93.69a19.78,19.78,0,0,1-2.6.44C39.74,56,37.83,55.71,39,55.19Z"/><path class="cls-22" d="M42.12,41.49S43,42.68,39.73,44s-4.54,2.16-5.79,3.52a9.87,9.87,0,0,1-3.3,2.5c-1.13.57-3.86-.22-4-3.29s-.17-3.17.65-5.22,3-6.14,3-6.14Z"/><path class="cls-22" d="M28.46,51.15a9,9,0,0,1,6.95.22c3.37,1.43,8.3,1.82,7.91,2.33s-1,4.67-5.18,7-4.41,3.88-6.09,4.4a3.12,3.12,0,0,1-2.72-.26Z"/><path class="cls-23" d="M27.62,31.42A5.8,5.8,0,0,1,29.05,31c1.14-.11,2.05-.8,5.12-3.07s4.54-1,5.9-1.93-.12-2.6-.12-2.6-2.72-6.26-5.56-6.6c-2.13-.25-4,2.12-6.4,5.48C27.78,25.55,27.62,28.82,27.62,31.42Z"/><path class="cls-6" d="M28,33.59a24.64,24.64,0,0,0-4.12.71,9,9,0,0,1-3.73.07c-1.49-.13-6.38.38-7.93,2.31S9,42.61,10.75,46.15s7,2.77,8.25,2.52.83-.91,3.47-.91,6.45,1.36,9.41-1a8.26,8.26,0,0,0,1.67-10.3A6.36,6.36,0,0,0,28,33.59Z"/><path class="cls-3" d="M18.42,34.82s-3.14,0-4.34,1-2.46,1.05-2.88,3.66,1.19,5.14,3,5.35,1.55-1,2.88-.49,3.76.18,4.07-.37,1.08.37,2.77.72,2.32,1,2.25-2a10.75,10.75,0,0,1,2.47-7.4c1.48-1.55-1.39-1.82-3.27-.77s-2.58,1.19-3.35,1A25.43,25.43,0,0,0,18.42,34.82Z"/><path class="cls-22" d="M33.55,36.43a5.79,5.79,0,0,0-2.8-2.34.7.7,0,0,1-.1.69c-.63.78-3.35,1.94-4,5a6.35,6.35,0,0,0,1.09,5.37c.46.7-1,2.72-3.43,1.94a24,24,0,0,0-6.61-.93c-1.24,0-2.26.7-.39.85s1.71-.07,1.17.47-4.75.62-6.54-.86A8.46,8.46,0,0,1,10,43.67a7.16,7.16,0,0,0,.72,2.48c1.8,3.55,7,2.77,8.25,2.52s.83-.91,3.47-.91,6.45,1.36,9.41-1A8.26,8.26,0,0,0,33.55,36.43Z"/><path class="cls-22" d="M28.66,38.81s-1.58,3.3-.26,5.48.79,2.25.26,2.58.27.73,2.18-.27,1.92-1.25,2.44-2.31S31.7,38.09,28.66,38.81Z"/><path class="cls-5" d="M33.22,35.86a4.6,4.6,0,0,0-3.44.87,4.49,4.49,0,0,0-1.64,2.34c-.9,3-.16,5.44,2.19,6a11.31,11.31,0,0,0,7-.84c2.25-1.09,4.38-1.8,5.28-2.31s.32-1-1.35-2.32A19.44,19.44,0,0,0,33.22,35.86Z"/><path class="cls-8" d="M31.44,36.29a3.65,3.65,0,0,0-2.79,2.12,1.94,1.94,0,0,0-.18,1.12c.17.84,4.9.85,8.48,1s5.76.62,5.52.38a43.82,43.82,0,0,0-4.28-2.64C36.71,37.47,34.8,35.73,31.44,36.29Z"/><path class="cls-3" d="M18.42,34.82s-3.8-.2-4.16,2.74S16,43.28,17,43.28s1.24-2.14,2-4.9S19,34.64,18.42,34.82Z"/><path class="cls-3" d="M16.51,35.38s-1.92,0-2,3.43c0,2.32,1.58,3,1.45,2.71a10.72,10.72,0,0,1,.27-4.16C16.71,35.71,16.51,35.38,16.51,35.38Z"/><path class="cls-3" d="M25.83,34.17a5.54,5.54,0,0,0-3.21,5c-.09,3.74,2.23,4.9,2.58,5s-.35-3.39.72-6.15a10.51,10.51,0,0,1,2.5-4S27.93,33.46,25.83,34.17Z"/><path class="cls-22" d="M14.26,36a6.31,6.31,0,0,0-.59,4.82,6.44,6.44,0,0,0,2.71,3.76,5.23,5.23,0,0,1-3-2.37C12,40.07,12.61,37.1,14.26,36Z"/><path class="cls-22" d="M21.27,35.51s-1.52,2.64-1.13,4.82a10,10,0,0,0,1.39,4c.4.53-.4-3.56-.07-5.94S22.19,34.72,21.27,35.51Z"/><path class="cls-3" d="M26.75,34.19a4.13,4.13,0,0,0-3.11,3.17c-.39,2.57,1-.33,2.64-1.52S27.93,33.73,26.75,34.19Z"/><path class="cls-3" d="M18.12,35.56s-1,.53-1.06,4c0,2.18.77,2.24,1.06,1.12A12.6,12.6,0,0,0,19,37.56C19,36.45,18.94,35,18.12,35.56Z"/><path class="cls-24" d="M32.13,36.28s-2.14,0-2.24.86c-.06.52,2.05.33,5.52,1.09a30.75,30.75,0,0,1,6.52,2.43A30,30,0,0,0,36.22,37,14,14,0,0,0,32.13,36.28Z"/><path class="cls-8" d="M42.52,42c-1.7.42-6,2.35-9.3,2.76a7.42,7.42,0,0,1-4.8-1,3.14,3.14,0,0,0,1.91,1.34,11.31,11.31,0,0,0,7-.84C39.5,43.21,41.59,42.51,42.52,42Z"/><path class="cls-9" d="M15.65,35.91A2,2,0,0,0,14.5,38.2C14.86,39.84,17.58,35.12,15.65,35.91Z"/><path class="cls-25" d="M28.67,41.7s1.14.93,5.5.93a29.17,29.17,0,0,0,7.95-1.14,24.57,24.57,0,0,1-6.51,2.07c-3.58.58-5.8.07-6.44-.21S28.45,41.42,28.67,41.7Z"/><path class="cls-9" d="M25.92,34.54s-1.47,1-.8,1.48S28,34.14,25.92,34.54Z"/><path class="cls-3" d="M23,40a4.16,4.16,0,0,0,1,3C25.12,44,23.51,38.43,23,40Z"/><path class="cls-6" d="M29.11,50.66c-.26,0-1.74.26-3.09.58a13.21,13.21,0,0,1-4.77-.19c-1.35-.26-2.32-.81-4.94.7-2.42,1.4-3.11,8.83.88,10.83s6.25.84,9.15,1.29,7,.9,9-2.19,1.55-5.28.45-7.41S33,50.08,29.11,50.66Z"/><path class="cls-3" d="M20,51.08c-1.55.07-3.45.42-4.22,1.9A4.33,4.33,0,0,0,16,57.35c.77,1.06,2.11,2.82,3.1,2.89s.27-.46,2,.16,3.2-2.32,3.38-1.77S26.34,61,27.75,61s1.06-1.55,1.2-4.22a5,5,0,0,1,2.4-4.3c1-.78-.92-1.55-2.89-1.34s-2.4.63-4.16.63A25,25,0,0,1,20,51.08Z"/><path class="cls-22" d="M32.07,50.8c.74.57,1.47,1.26,1.22,1.6-.47.66-2.71.66-3.45,3.36s-.28,4.29.46,5.13-1.95,2.33-3.54,1.4-2.15-3.73-2.15-3.73-.56,2.24-.09,3.17S20.7,63,18,61.92c-1.63-.68-2.95-2.64-3.63-4.49.14,2.13,1,4.22,2.83,5.15,4,2,6.25.84,9.15,1.29s7,.9,9-2.19,1.55-5.28.45-7.41A6.18,6.18,0,0,0,32.07,50.8Z"/><path class="cls-22" d="M30.77,55.12a5.33,5.33,0,0,0-.26,4.69c1.06,2,1.06,3.17.33,3.5s.53.2,2.05-.19a3,3,0,0,0,2.31-2.51C35.53,59.42,32.76,53.8,30.77,55.12Z"/><path class="cls-5" d="M33.69,53.41a2.66,2.66,0,0,0-1.93.49,3.54,3.54,0,0,0-1.66,3.17c.26,2.64,1.26,4.29,3.13,4.35a10.52,10.52,0,0,0,6.89-3.16c2.19-2.12,2.84-3.93,2.45-4.18s-3.15.38-5.15.12C35.86,54,34.81,53.57,33.69,53.41Z"/><path class="cls-8" d="M32.72,54.36a1.61,1.61,0,0,0-1.79,1.39,3.93,3.93,0,0,0,.12,1.6c.47,1.58,3.45.65,5.78,0a17,17,0,0,0,5-2.8,30.84,30.84,0,0,1-6.07.28C34.56,54.67,33.52,54.45,32.72,54.36Z"/><path class="cls-3" d="M21.13,51.46a1.27,1.27,0,0,0-.84.35,5.1,5.1,0,0,0-1.64,4.78C19.21,60,21,60.14,21.44,60s-.28-2,.47-5.31C22.51,52.12,21.85,51.47,21.13,51.46Z"/><path class="cls-3" d="M27.41,52s-2.05,1-1.77,4.66,3,4.11,3,4.11a8.37,8.37,0,0,1,.09-6c1.3-3,2.52-3.08,2.52-3.08A3.67,3.67,0,0,0,27.41,52Z"/><path class="cls-22" d="M19.88,51.51a4.85,4.85,0,0,0-2.29,3.06A8.4,8.4,0,0,0,18.88,60c.71,1.18-2.39-1.76-2.53-4.12C16.18,52.75,17.88,51.57,19.88,51.51Z"/><path class="cls-3" d="M20.23,52.29a3.77,3.77,0,0,0-1.5,3.79c.42,2.58,1,2.93,1.14.93S21.09,51.5,20.23,52.29Z"/><path class="cls-8" d="M36.12,60a7.67,7.67,0,0,1-5,.31,2.62,2.62,0,0,0,2.09,1.11,10.52,10.52,0,0,0,6.89-3.16,10.89,10.89,0,0,0,2.26-2.92A14.54,14.54,0,0,1,36.12,60Z"/><path class="cls-24" d="M32.72,54.36s-1.33,1-1.16,1.47,7.41.35,10.08-1.29C41.64,54.54,36.29,55.3,32.72,54.36Z"/><path class="cls-25" d="M31.82,59.11a15.66,15.66,0,0,0,5.52-1c3.44-1.12,4-2.84,4-2.84a6.61,6.61,0,0,1-4.31,3.61,17,17,0,0,1-5.43,1S31.22,59.11,31.82,59.11Z"/><path class="cls-3" d="M28.32,51.36a3.82,3.82,0,0,0-2.24,2.91c-.43,2.26.63,3.11,1.2,1.69a13.18,13.18,0,0,1,2.39-3.52C30.31,51.73,29.43,51,28.32,51.36Z"/><path class="cls-9" d="M19.8,52.44s-1.34,1.41-.92,2.75S21.07,51.94,19.8,52.44Z"/><path class="cls-9" d="M28.27,51.84s-1.07.74-.94,1.54S29.88,51.84,28.27,51.84Z"/><path class="cls-22" d="M24.65,52.31A6.65,6.65,0,0,0,23.84,56c.21,2,.68,1.54.61.4S25.32,51.71,24.65,52.31Z"/><path class="cls-3" d="M22.79,52.54s-.48,4.25,0,4.39.35-.21.55-1.85S22.93,51.45,22.79,52.54Z"/><path class="cls-6" d="M33.15,12.45a7.4,7.4,0,0,0-5.41-1A9,9,0,0,0,23,13.72a8.88,8.88,0,0,1-1,.88,5,5,0,0,1-.72.16c-.37,0-3.53.43-5.2,2.22A6.59,6.59,0,0,1,15,18.71c-2.67,2.67-5.7,5.52-6.06,8.37s.36,6.6,3,7.67,4.45-.72,7-.72,3.21-1.42,4.81-3.74,1.25-2.14,3.39-2.14,7-1.6,8.55-5C36.94,20.37,37.05,15,33.15,12.45Z"/><path class="cls-3" d="M12.55,22.54c-.27.2-2.71,3-2.36,5.28s3.58,3.72,6.71,2.12,2.81-3.09,4-4.62-.42-1.67,1.25-2,4.17.42,4.1-2.22S26,16.7,27.64,14.75s1-2.92-.83-2.64S23.05,14.68,22.29,15s-2.94.06-4.91,1.56a14.16,14.16,0,0,0-2.88,3.23A30.51,30.51,0,0,0,12.55,22.54Z"/><path class="cls-22" d="M27.07,16.18a8.22,8.22,0,0,0,1.32,7.94c1.09,1.4-1,3-3.5,2.8s-2.72-1.71-2.72-1.71a4,4,0,0,0,.7,2.49c.77.85-1.33,3.19-2.1,3.89S17.81,34.31,15,34s-4.83-2.57-5.76-5.21a1.11,1.11,0,0,0-.32-.5c0,2.62.8,5.53,3.11,6.46,2.67,1.07,4.45-.72,7-.72s3.21-1.42,4.81-3.74,1.25-2.14,3.39-2.14,6.94-1.6,8.55-5c1.14-2.42,1.38-6.74-1.11-9.54l-1.42-.16S28.39,12.6,27.07,16.18Z"/><path class="cls-22" d="M29.07,15.71A4.55,4.55,0,0,0,28,20.6a6.83,6.83,0,0,0,3.44,4.29c.5.36-2.79,1.94-3.08,2.15s3.79-.43,5.72-2.72,1.86-3.22,1.79-3.86S31.26,14.47,29.07,15.71Z"/><path class="cls-5" d="M32.89,14a4.4,4.4,0,0,0-3.14.56,3.88,3.88,0,0,0-1.57,2.07,6.09,6.09,0,0,0,1.05,5.74c1.3,1.48,3.38,1,5.09,1a14.9,14.9,0,0,1,5,1.06c.86.4.88.64,1.17.61s.93-2.31-.45-5.56A9.28,9.28,0,0,0,32.89,14Z"/><path class="cls-8" d="M32.41,14.45a3.31,3.31,0,0,0-3.34,1.26A1.86,1.86,0,0,0,28.7,17c.23,1.63,3.66,1.32,7.16,2.41a7,7,0,0,1,4.51,3.74S40.65,16,32.41,14.45Z"/><path class="cls-3" d="M17.45,16.66s-2.78,1.09-1.74,4.58,4.37,3.94,4.8,2.4c.24-.89-1-2.93-1.11-3.92C19.09,17.76,18.86,16.1,17.45,16.66Z"/><path class="cls-3" d="M26,12.51A6.08,6.08,0,0,0,23.37,18c.39,3.5,2.46,4,2.46,4s-.78-4.79,1-7.13S28.42,11.48,26,12.51Z"/><path class="cls-8" d="M40.18,25a6.88,6.88,0,0,0-4.8-2.54,17.81,17.81,0,0,0-6.15,0c1.3,1.48,3.38,1,5.09,1a14.9,14.9,0,0,1,5,1.06A4.63,4.63,0,0,1,40.18,25Z"/><path class="cls-22" d="M20.92,15.51A18.82,18.82,0,0,0,21,21c.55,1.95.44-.87.76-3S21.13,15,20.92,15.51Z"/><path class="cls-22" d="M14.28,20.48A4.45,4.45,0,0,0,16,24.42a6.68,6.68,0,0,0,3.7,1.63A6.26,6.26,0,0,1,15,24.58,3.43,3.43,0,0,1,14.28,20.48Z"/><path class="cls-24" d="M31.13,14.45s-1.26.52-.6,1.26,3.45.22,6.3,2a7.63,7.63,0,0,1,3.42,4.3s-.75-3.38-2.38-4.82A9,9,0,0,0,31.13,14.45Z"/><path class="cls-25" d="M29.46,20.16a18.48,18.48,0,0,1,7.6,1.26c2.53,1,2.89,2,2.89,2a6.82,6.82,0,0,0-4-1.67c-2.86-.37-5.56-.59-6.19-.63S28.72,20.34,29.46,20.16Z"/><path class="cls-3" d="M29.74,11.73s-1.14.65-.07.86,1.72.14,1.86-.14S31,11.59,29.74,11.73Z"/><path class="cls-3" d="M26,12.51S23.3,14,23.73,16.74s.86-1.14,2.58-2.79S26.9,12,26,12.51Z"/><path class="cls-3" d="M17,17a4.1,4.1,0,0,0-.91,4.52c1,2.85,2.57,2.92,2.64,2.78a7.66,7.66,0,0,1-1.39-4.59C17.56,17,17.5,16.61,17,17Z"/><path class="cls-3" d="M18.39,17.18a5.7,5.7,0,0,0,0,4.14c.87,2.4,1.35,2.61,1.28.59S19.37,16.07,18.39,17.18Z"/><path class="cls-9" d="M16.91,17.66a2.43,2.43,0,0,0-.71,2.89c.71,1.91,1.27,1,1.13.14S17.54,17.24,16.91,17.66Z"/><path class="cls-9" d="M26.81,12.11S25,12.86,25,13.92s.6,1,1.57,0S27.89,11.85,26.81,12.11Z"/><path class="cls-3" d="M20.7,28.54c.13-1.27-.85,3.07-6,3.83C12,32.78,20,35.25,20.7,28.54Z"/><path class="cls-2" d="M288.63,12.68a13,13,0,0,1-.75,3l-.45.82a7,7,0,0,0-.9-2.18l-.53-.6a5.51,5.51,0,0,1,.15,2c-.15.82-.3,1.9-.38,1.29s-1.35-1.67-1.35-1.67l.37,1.66s-4.44-.68-4.81-.68-7.33-5-7.84-3.7-.07,45.55-.22,46.3-.9,12.94-.9,12.94,2.94-.75,3.76-1.5a8.45,8.45,0,0,0,1.28-1.43s-1.95,2.93-2.25,3.54-.53,1.13-.53,1.13a3.26,3.26,0,0,0,1.8-.83c1.06-.83,2.56-2.34,2.56-2.34a2.21,2.21,0,0,0-.07,1.51,9.83,9.83,0,0,0,.9,2.18,7,7,0,0,1,.76-3.31c.82-1.43.66-1.64.66-1.64a5.43,5.43,0,0,1,1,1.56,11.84,11.84,0,0,0,1,1.89,30.47,30.47,0,0,1,.15-4.37c.23-.68,1.05,1.13,1.13,2a14.51,14.51,0,0,0,.3,1.89,8.49,8.49,0,0,0,1-3.32c.07-1.73.07-3,.07-3s1,2.86,2.11,3.77l1.13.9a13,13,0,0,1-1.2-3.46,8.23,8.23,0,0,1,.07-2,9.4,9.4,0,0,1,1.28,2,13.74,13.74,0,0,1,.9,2.33s.76-2.41.23-3.76S288,63,288,63s1.66,1.21,3,2.34a5.18,5.18,0,0,0,3.31,1,13.35,13.35,0,0,1-2.63-2.78,4,4,0,0,1-.6-2.78s3.46,2.25,3.68,2.78-1.28-3.24-2.7-4.44c0,0,3,1.13,4.06.83a12.3,12.3,0,0,1-2.79-2.49l2.11.61s-.6-2.71-1.88-3.54c0,0,3.09.83,4.29,2.63a14.19,14.19,0,0,0-1.2-3.54l-1.13-2s1.5,1.36,1.73,1.51.68-2.64-1.58-3.61a12.22,12.22,0,0,0,4.59,1.43,9,9,0,0,1-2.71-2.79c-.75-1.51-1.43-3-1.43-3l1.81.9s-1.13-2.63-2-2.86c0,0,2.71.76,3.47,2,0,0,0-2.56-3-4.74s.45-.45,2-1.21l1.58-.75s-3.09-1-4.14-1.2a4.61,4.61,0,0,1-1.58-.6,11.39,11.39,0,0,1,4.81-1.43h2.71a6.34,6.34,0,0,0-4.29-2.26c-2.86-.3-3.61.07-3.61.07a10.56,10.56,0,0,0,3.46-1.8c1.21-1.13,2-4.37,1.43-5.5,0,0-1.88,2.79-3,3.46l-1.13.68a13.72,13.72,0,0,1,1.06-3.91l.68-1.06a4.1,4.1,0,0,0-2.64,1.06l-1.05,1s-.75-2.18-.38-2.78,2-1.66,1.81-1.58-2.86.82-3.16.82,2.33-2.48,2.4-3.76l.08-1.28L291,19.75c-.68.38-.68.6-.68.38s1.35-2.49,1.28-3.39-.08-1.58-.08-1.58l-2.56,3.16A8.41,8.41,0,0,0,288.63,12.68Z"/><path class="cls-3" d="M280.55,64.25c.3,0,.83-.08.74,2.32a41.1,41.1,0,0,0,.14,4.68,13.33,13.33,0,0,1-1.21-3.6C279.8,65.49,279.47,64.17,280.55,64.25Z"/><path class="cls-3" d="M283.81,61.92a3.18,3.18,0,0,1,1.85,2.54c.2,1.79.27,3.77.48,3.91s-1.65-3-2-4S283.13,61.56,283.81,61.92Z"/><path class="cls-3" d="M286.68,54.33s2,.34,2.68,1.43a6.06,6.06,0,0,1,.82,1.85,30.33,30.33,0,0,0-4.08-1.74C284.7,55.49,284.56,53.91,286.68,54.33Z"/><path class="cls-3" d="M286.34,62.27a4.22,4.22,0,0,1,2,2.54,6.27,6.27,0,0,1,.48,2.6,11.92,11.92,0,0,0-1.65-2.74C286.2,63.57,285.31,61.72,286.34,62.27Z"/><path class="cls-3" d="M287.44,57.43a31.48,31.48,0,0,0,1,3.33,7.86,7.86,0,0,1,.55,1.72,13,13,0,0,1-2.46-3.91C286.07,56.86,286.83,56.23,287.44,57.43Z"/><path class="cls-3" d="M291.09,45.13a7,7,0,0,0,2.09,2.32,15,15,0,0,1,3.3,3.63,27,27,0,0,0-4.29-2.31c-2.26-.77-2.53-.66-2.92-1.71S290.1,44.42,291.09,45.13Z"/><path class="cls-3" d="M291.14,42.49s2.26.61,2.54,1c0,0-2.1.11-2.87.22S289.55,42.44,291.14,42.49Z"/><path class="cls-3" d="M291.16,16s-.94,4.23-2.89,4.34S289.38,18.66,291.16,16Z"/><path class="cls-3" d="M293.05,18.94s-1.82,3-3.8,3.6-1.59-.71-.09-1.26A21.9,21.9,0,0,0,293.05,18.94Z"/><path class="cls-3" d="M298.49,26.57c0-.08-.39,2.82-2.16,4.11s-2.55,1.44-2.83,1.05S297.59,28.7,298.49,26.57Z"/><path class="cls-3" d="M295.85,25.1a6.34,6.34,0,0,0-1.71,2.73c-.36,1.5-1.19,1.19-1.38.57S293.57,25.49,295.85,25.1Z"/><path class="cls-4" d="M291.42,34.81c-1,1.79-.45,1.79-.34,5s.22,7.3-1.8,9.32-2.47,3.48-2.35,5.73-1.46,7.3-4.27,9.32-5.84,1.8-7.41,3.15-2.7,1.57-3.94,3.25a3.11,3.11,0,0,1-.23.28c.18-2.84.72-11.39.84-12s-.14-29.43,0-41.3L291.19,30.2S292.43,33,291.42,34.81Z"/><path class="cls-11" d="M277.13,62.4c-.24.12-2.92,1.85-3.75,3.46s-1.43.18-1-2S277.13,62.4,277.13,62.4Z"/><path class="cls-12" d="M277.77,26.79s-3,1.32-3.29,14.76,2,17.66,4.48,16.87,4.51-4.71,3.05-6-4-2.59-3.71-5.88,4.22-7.78,3-9.1-3.56-5.4-2.37-7.64A2,2,0,0,0,277.77,26.79Z"/><path class="cls-3" d="M294.35,39.79s1,.08,3.07,1.77a8.24,8.24,0,0,1,1.47,2.33s-3.43-1.93-4.22-2.25S292.84,39.79,294.35,39.79Z"/><path class="cls-3" d="M293.64,36.42a6.75,6.75,0,0,0,2.54,1.17c1.77.48,2.87.74,2.87.74s-.72.6-2.87.36-2.69-1.07-3-1.49S293.22,36.15,293.64,36.42Z"/><path class="cls-3" d="M293.91,33.25a6.69,6.69,0,0,1,3.5-.27,6.88,6.88,0,0,1,3.26,1.47,11.24,11.24,0,0,0-4.46-.06c-2.27.48-2.78.72-3.23.21S293,33.61,293.91,33.25Z"/><path class="cls-3" d="M294.29,42a7.34,7.34,0,0,1,2.19,1.91c.69,1,.69,1.21.69,1.21a17.68,17.68,0,0,0-1.86-1.29,5.83,5.83,0,0,1-1.51-1.11C293.41,42.29,293.54,41.72,294.29,42Z"/><path class="cls-3" d="M292.1,36.92a12.56,12.56,0,0,0,1.47,1.68,6.69,6.69,0,0,0,1,.75,4.6,4.6,0,0,1-2.68-1C290.62,37.4,291.38,36.35,292.1,36.92Z"/><path class="cls-3" d="M294.56,44.47a5.61,5.61,0,0,1,1.87,2.26,10.68,10.68,0,0,0,1.93,3.3,9.69,9.69,0,0,1-3.31-2.86C293.84,45.3,293.79,44.09,294.56,44.47Z"/><path class="cls-13" d="M298,27.66s-1.22,2.45-2.45,2.73S297.15,28.89,298,27.66Z"/><path class="cls-13" d="M295.41,33a5.2,5.2,0,0,1,2.69.2l1.19.52a11.65,11.65,0,0,0-3.45-.24C294.66,33.68,294.38,33.08,295.41,33Z"/><path class="cls-13" d="M293.83,36.84s1.74.6,2.93.87l1.18.28a9,9,0,0,1-2.89-.28C293.83,37.32,293.43,36.88,293.83,36.84Z"/><path class="cls-3" d="M291.55,49.83s3.33,1.38,4.23,3a9.06,9.06,0,0,1,1,2.45,11.85,11.85,0,0,0-3.46-2.86C291.79,51.86,289.7,49.66,291.55,49.83Z"/><path class="cls-13" d="M295.75,40.49s1.72,1,1.94,1.85S294.42,40.49,295.75,40.49Z"/><path class="cls-13" d="M294.56,44.47a5.46,5.46,0,0,1,1.58,2.29,5.38,5.38,0,0,0,.95,1.89S294.69,46.79,294.56,44.47Z"/><path class="cls-3" d="M289.26,52a11.63,11.63,0,0,1,3.66,2.27,7.21,7.21,0,0,1,1.45,2.5,17.58,17.58,0,0,0-3.66-2.5C289.26,53.7,287.71,51.75,289.26,52Z"/><path class="cls-3" d="M289.48,58.14a5.21,5.21,0,0,1,1,2.61,8.28,8.28,0,0,0,1.83,4.16,4.48,4.48,0,0,1-2.44-2.28C288.76,60.69,287.76,57.25,289.48,58.14Z"/><path class="cls-3" d="M291,55.86s2,2.55,3.66,3.28a6.5,6.5,0,0,1-3.38-1.5C289.82,56.31,290.15,55.2,291,55.86Z"/><path class="cls-3" d="M282.87,65.08a12.59,12.59,0,0,1,.91,3.31,10.41,10.41,0,0,1,.08,2.82c-.08.25-.91-2.9-1.41-3.73S281.54,64.25,282.87,65.08Z"/><path class="cls-3" d="M279.35,66.77a7.05,7.05,0,0,1-.08,2.75c-.35,1.38-.75,1.41-.93,2.15s-.16,1.13-.21,1.17a3.62,3.62,0,0,1-.33-2.06c.14-1,.44-1.24.51-2.17S278.93,65.43,279.35,66.77Z"/><path class="cls-13" d="M292.75,47.56a5.48,5.48,0,0,1,2.46,1.8,5.17,5.17,0,0,1,1,1.56,28.53,28.53,0,0,0-3.32-2.36C292,48.18,291.24,47.23,292.75,47.56Z"/><path class="cls-13" d="M292.28,50.46a6.64,6.64,0,0,1,2.42,1.19,4.45,4.45,0,0,1,1.12,2,26.58,26.58,0,0,0-2.19-1.8C292.73,51.25,291.16,50.41,292.28,50.46Z"/><path class="cls-13" d="M290,52.71a5.82,5.82,0,0,1,2.39,1.37,5.25,5.25,0,0,1,.82,1l-2.7-1.58C289.75,53.05,289.13,52.6,290,52.71Z"/><path class="cls-13" d="M291.44,56.65s.78.67,1.57,1.24S291,57.89,291.44,56.65Z"/><path class="cls-13" d="M290.48,60.75a6.68,6.68,0,0,0,.73,2.82c.62.78,1.1,1.34,1.1,1.34a4,4,0,0,1-2.44-3.29C289.41,59,290.43,60.4,290.48,60.75Z"/><path class="cls-13" d="M287.56,63.28a10.17,10.17,0,0,1,1,2.08,4.45,4.45,0,0,1,.06,1.47s-.79-2.2-1.07-2.76S286.88,62.72,287.56,63.28Z"/><path class="cls-13" d="M295.85,25.1a9.58,9.58,0,0,0-2,2c-.44.83-.84.44-.59-.15A4.09,4.09,0,0,1,295.85,25.1Z"/><path class="cls-13" d="M292.47,19.58a3.52,3.52,0,0,1-1.71,1.53C289.73,21.4,291.15,20.17,292.47,19.58Z"/><path class="cls-13" d="M291,16.45a20.8,20.8,0,0,1-1.66,2C288.9,18.7,290.56,19.14,291,16.45Z"/><path class="cls-3" d="M277.74,67.14A5.5,5.5,0,0,1,277.1,70a8.21,8.21,0,0,1-2.86,2.62A16.89,16.89,0,0,0,276.05,70a13.44,13.44,0,0,0,.89-2.32C277.1,67.35,277.57,66.59,277.74,67.14Z"/><path class="cls-3" d="M274.74,68.58c.18-.16,1.52-1.52,1.44-1.1a5.21,5.21,0,0,1-2.24,2.79,5.48,5.48,0,0,1-1.77.63C272,70.94,273.94,69.3,274.74,68.58Z"/><path class="cls-22" d="M270.9,49.4a5.24,5.24,0,0,1,1.15.2c0-4.93-.19-9.52-.24-14.52a5.9,5.9,0,0,0-5.29.37c-2.46,1.64-7.13,3.65-7.94,4.84s-1.54,1.54.92,2.82,4.83,2.64,6.75,3.83S269.26,49.4,270.9,49.4Z"/><path class="cls-21" d="M262.94,39a27.53,27.53,0,0,0-5.57-.07c-2.79.28-10.15,1.28-13.8,1.43s-5.93.28-5.93.28,9.58.93,14.58,1.65a141.73,141.73,0,0,0,14.58.93C268.3,43.26,266.66,39.18,262.94,39Z"/><path class="cls-21" d="M261.37,40.18a26.91,26.91,0,0,0-5-.14c-2.64.07-7.64.64-7.64.64s8.79,1,10.29,1S262.58,41.11,261.37,40.18Z"/><path class="cls-6" d="M273.79,33.59a24.48,24.48,0,0,1,4.12.71,9.07,9.07,0,0,0,3.74.07c1.48-.13,6.38.38,7.92,2.31s3.29,5.93,1.48,9.47-7,2.77-8.24,2.52-.84-.91-3.48-.91-6.44,1.36-9.41-1a8.27,8.27,0,0,1-1.67-10.3A6.36,6.36,0,0,1,273.79,33.59Z"/><path class="cls-3" d="M283.38,34.82s3.14,0,4.34,1,2.47,1.05,2.89,3.66-1.2,5.14-3,5.35-1.55-1-2.89-.49-3.76.18-4.06-.37-1.08.37-2.77.72-2.33,1-2.26-2a10.75,10.75,0,0,0-2.47-7.4c-1.48-1.55,1.39-1.82,3.27-.77s2.58,1.19,3.36,1A25,25,0,0,1,283.38,34.82Z"/><path class="cls-22" d="M268.25,36.43a5.76,5.76,0,0,1,2.81-2.34.67.67,0,0,0,.1.69c.62.78,3.34,1.94,4,5A6.38,6.38,0,0,1,274,45.13c-.47.7,1,2.72,3.42,1.94a24,24,0,0,1,6.61-.93c1.25,0,2.26.7.39.85s-1.71-.07-1.16.47,4.74.62,6.53-.86a8.32,8.32,0,0,0,1.94-2.93,6.75,6.75,0,0,1-.72,2.48c-1.8,3.55-7,2.77-8.24,2.52s-.84-.91-3.48-.91-6.44,1.36-9.41-1A8.27,8.27,0,0,1,268.25,36.43Z"/><path class="cls-22" d="M273.14,38.81s1.59,3.3.27,5.48-.8,2.25-.27,2.58-.26.73-2.18-.27-1.91-1.25-2.44-2.31S270.11,38.09,273.14,38.81Z"/><path class="cls-5" d="M268.58,35.86a4.6,4.6,0,0,1,3.44.87,4.49,4.49,0,0,1,1.64,2.34c.9,3,.16,5.44-2.19,6a11.31,11.31,0,0,1-7-.84c-2.25-1.09-4.38-1.8-5.28-2.31s-.32-1,1.35-2.32A19.5,19.5,0,0,1,268.58,35.86Z"/><path class="cls-8" d="M270.36,36.29a3.66,3.66,0,0,1,2.8,2.12,1.94,1.94,0,0,1,.18,1.12c-.17.84-4.91.85-8.48,1s-5.76.62-5.53.38a45.15,45.15,0,0,1,4.28-2.64C265.09,37.47,267,35.73,270.36,36.29Z"/><path class="cls-3" d="M283.38,34.82s3.8-.2,4.16,2.74-1.75,5.72-2.73,5.72-1.25-2.14-2-4.9S282.76,34.64,283.38,34.82Z"/><path class="cls-3" d="M285.29,35.38s1.92,0,2,3.43c.05,2.32-1.58,3-1.45,2.71a10.86,10.86,0,0,0-.26-4.16C285.1,35.71,285.29,35.38,285.29,35.38Z"/><path class="cls-3" d="M276,34.17a5.54,5.54,0,0,1,3.2,5c.09,3.74-2.22,4.9-2.58,5s.36-3.39-.71-6.15a10.59,10.59,0,0,0-2.51-4S273.87,33.46,276,34.17Z"/><path class="cls-22" d="M287.54,36a6.26,6.26,0,0,1,.59,4.82,6.49,6.49,0,0,1-2.7,3.76,5.26,5.26,0,0,0,3-2.37C289.79,40.07,289.19,37.1,287.54,36Z"/><path class="cls-22" d="M280.54,35.51s1.52,2.64,1.12,4.82a10,10,0,0,1-1.38,4c-.4.53.39-3.56.06-5.94S279.62,34.72,280.54,35.51Z"/><path class="cls-3" d="M275.06,34.19a4.11,4.11,0,0,1,3.1,3.17c.4,2.57-1-.33-2.64-1.52S273.87,33.73,275.06,34.19Z"/><path class="cls-3" d="M283.68,35.56s1,.53,1.06,4c0,2.18-.76,2.24-1.06,1.12a12.6,12.6,0,0,1-.88-3.12C282.8,36.45,282.86,35,283.68,35.56Z"/><path class="cls-24" d="M269.67,36.28s2.15,0,2.24.86c.06.52-2,.33-5.52,1.09a31.28,31.28,0,0,0-6.52,2.43A30,30,0,0,1,265.58,37,14,14,0,0,1,269.67,36.28Z"/><path class="cls-8" d="M259.28,42c1.7.42,6,2.35,9.3,2.76a7.47,7.47,0,0,0,4.81-1,3.19,3.19,0,0,1-1.92,1.34,11.31,11.31,0,0,1-7-.84C262.3,43.21,260.21,42.51,259.28,42Z"/><path class="cls-9" d="M286.16,35.91a2,2,0,0,1,1.14,2.29C286.94,39.84,284.22,35.12,286.16,35.91Z"/><path class="cls-25" d="M273.14,41.7s-1.15.93-5.51.93a29.14,29.14,0,0,1-7.94-1.14,24.41,24.41,0,0,0,6.51,2.07c3.57.58,5.79.07,6.44-.21S273.35,41.42,273.14,41.7Z"/><path class="cls-9" d="M275.88,34.54s1.48,1,.8,1.48S273.8,34.14,275.88,34.54Z"/><path class="cls-3" d="M278.83,40a4.18,4.18,0,0,1-1,3C276.68,44,278.29,38.43,278.83,40Z"/><path class="cls-22" d="M272.06,50.85c-.28-.08-3.27-1-5.26-.17s-1.28,1.73-3.65,2.19-4.65.18-4.65,1.09,2.1,5,4.65,6.75,4.1,2.19,5.38,3.19,1.53,2.23,2.28,2.19a5.91,5.91,0,0,1,1.22,0C272.08,61.83,272.08,56.53,272.06,50.85Z"/><path class="cls-21" d="M262.51,53.83s-2.86-.07-8-.07-8.51.36-11.08.36-7.72.43-9.08.28,21.52,2.72,23.66,2.93a24,24,0,0,0,6.36-.43C265.73,56.62,266.15,54.19,262.51,53.83Z"/><path class="cls-21" d="M260.16,54.54s-3.44-.14-6-.21-6.22.22-6.22.22,10.79,1.64,12.44,1.64S262.74,54.75,260.16,54.54Z"/><path class="cls-6" d="M272.69,50.66c.26,0,1.74.26,3.1.58a13.16,13.16,0,0,0,4.76-.19c1.36-.26,2.32-.81,4.94.7,2.43,1.4,3.12,8.83-.88,10.83s-6.25.84-9.15,1.29-7,.9-8.95-2.19-1.55-5.28-.45-7.41S268.83,50.08,272.69,50.66Z"/><path class="cls-3" d="M281.8,51.08c1.55.07,3.45.42,4.23,1.9a4.37,4.37,0,0,1-.21,4.37c-.78,1.06-2.12,2.82-3.1,2.89s-.28-.46-2,.16-3.2-2.32-3.38-1.77S275.46,61,274.05,61s-1.06-1.55-1.2-4.22a5,5,0,0,0-2.39-4.3c-1-.78.91-1.55,2.88-1.34s2.4.63,4.16.63A24.85,24.85,0,0,0,281.8,51.08Z"/><path class="cls-22" d="M269.73,50.8c-.73.57-1.46,1.26-1.22,1.6.47.66,2.71.66,3.46,3.36s.28,4.29-.47,5.13,2,2.33,3.54,1.4,2.15-3.73,2.15-3.73.56,2.24.09,3.17,3.83,1.31,6.53.19c1.64-.68,3-2.64,3.63-4.49-.13,2.13-1,4.22-2.83,5.15-4,2-6.25.84-9.15,1.29s-7,.9-8.95-2.19-1.55-5.28-.45-7.41A6.21,6.21,0,0,1,269.73,50.8Z"/><path class="cls-22" d="M271,55.12a5.33,5.33,0,0,1,.26,4.69c-1.05,2-1.05,3.17-.33,3.5s-.53.2-2-.19a3,3,0,0,1-2.31-2.51C266.28,59.42,269.05,53.8,271,55.12Z"/><path class="cls-5" d="M268.12,53.41a2.67,2.67,0,0,1,1.93.49,3.54,3.54,0,0,1,1.65,3.17c-.26,2.64-1.26,4.29-3.13,4.35a10.52,10.52,0,0,1-6.89-3.16c-2.19-2.12-2.84-3.93-2.45-4.18s3.16.38,5.15.12C266,54,267,53.57,268.12,53.41Z"/><path class="cls-8" d="M269.08,54.36a1.61,1.61,0,0,1,1.79,1.39,3.76,3.76,0,0,1-.12,1.6c-.46,1.58-3.45.65-5.78,0a17,17,0,0,1-4.94-2.8,30.78,30.78,0,0,0,6.06.28C267.24,54.67,268.28,54.45,269.08,54.36Z"/><path class="cls-3" d="M280.67,51.46a1.27,1.27,0,0,1,.84.35,5.13,5.13,0,0,1,1.65,4.78c-.56,3.36-2.33,3.55-2.8,3.45s.28-2-.47-5.31C279.3,52.12,280,51.47,280.67,51.46Z"/><path class="cls-3" d="M274.39,52s2.05,1,1.77,4.66-3,4.11-3,4.11a8.44,8.44,0,0,0-.09-6c-1.31-3-2.52-3.08-2.52-3.08A3.65,3.65,0,0,1,274.39,52Z"/><path class="cls-22" d="M281.92,51.51a4.85,4.85,0,0,1,2.29,3.06A8.28,8.28,0,0,1,282.92,60c-.71,1.18,2.4-1.76,2.53-4.12C285.63,52.75,283.92,51.57,281.92,51.51Z"/><path class="cls-3" d="M281.58,52.29a3.77,3.77,0,0,1,1.5,3.79c-.43,2.58-1,2.93-1.15.93S280.72,51.5,281.58,52.29Z"/><path class="cls-8" d="M265.68,60a7.7,7.7,0,0,0,5,.31,2.64,2.64,0,0,1-2.1,1.11,10.52,10.52,0,0,1-6.89-3.16,10.81,10.81,0,0,1-2.25-2.92A14.5,14.5,0,0,0,265.68,60Z"/><path class="cls-24" d="M269.08,54.36s1.33,1,1.16,1.47-7.41.35-10.08-1.29C260.16,54.54,265.51,55.3,269.08,54.36Z"/><path class="cls-25" d="M270,59.11a15.6,15.6,0,0,1-5.51-1c-3.45-1.12-4.05-2.84-4.05-2.84a6.58,6.58,0,0,0,4.31,3.61,16.93,16.93,0,0,0,5.43,1S270.59,59.11,270,59.11Z"/><path class="cls-3" d="M273.49,51.36a3.84,3.84,0,0,1,2.24,2.91c.42,2.26-.64,3.11-1.2,1.69a13.42,13.42,0,0,0-2.4-3.52C271.5,51.73,272.37,51,273.49,51.36Z"/><path class="cls-9" d="M282,52.44s1.34,1.41.91,2.75S280.74,51.94,282,52.44Z"/><path class="cls-9" d="M273.53,51.84s1.08.74.94,1.54S271.93,51.84,273.53,51.84Z"/><path class="cls-22" d="M277.15,52.31A6.65,6.65,0,0,1,278,56c-.2,2-.67,1.54-.6.4S276.48,51.71,277.15,52.31Z"/><path class="cls-3" d="M279,52.54s.48,4.25,0,4.39-.34-.21-.55-1.85S278.87,51.45,279,52.54Z"/><path class="cls-22" d="M271.62,9.82a5.25,5.25,0,0,1-2.08,1.62c-1.73.7-4.24,2.51-4.56,3.37s-3.53,3.85-4,5.9-1.18,4.87-.48,5.26,4.17-.47,5,0A56.47,56.47,0,0,0,270.33,29c1,.39-.4.47,1,.39l.53-.06C271.79,21.39,271.68,14.26,271.62,9.82Z"/><path class="cls-21" d="M262.22,21.26s-.63.73-3.78,1.26-3.36,1.15-7.77,1.36-12.18,1.05-12.18,1.05S253,26.3,256.23,26.51s7.67-1.16,8.19-1.89S262.53,20.73,262.22,21.26Z"/><path class="cls-21" d="M261.43,23.19a42.06,42.06,0,0,0-5.12.74c-2.23.53-6,1.25-6,1.25s8.5,0,10.22-.08A3.6,3.6,0,0,0,263.08,24,1.35,1.35,0,0,0,261.43,23.19Z"/><path class="cls-6" d="M268.66,12.45a7.38,7.38,0,0,1,5.41-1,9,9,0,0,1,4.77,2.29,8,8,0,0,0,1,.88,5.69,5.69,0,0,0,.72.16c.37,0,3.53.43,5.2,2.22a7.06,7.06,0,0,0,1.09,1.73c2.67,2.67,5.7,5.52,6.05,8.37s-.35,6.6-3,7.67-4.45-.72-6.94-.72-3.21-1.42-4.82-3.74-1.24-2.14-3.38-2.14-6.95-1.6-8.56-5C264.86,20.37,264.75,15,268.66,12.45Z"/><path class="cls-3" d="M289.25,22.54c.28.2,2.71,3,2.36,5.28s-3.58,3.72-6.71,2.12-2.81-3.09-4-4.62.41-1.67-1.25-2-4.17.42-4.11-2.22.28-4.38-1.39-6.33-1-2.92.84-2.64,3.75,2.57,4.52,2.92,2.94.06,4.91,1.56a13.72,13.72,0,0,1,2.87,3.23A30.51,30.51,0,0,1,289.25,22.54Z"/><path class="cls-22" d="M274.74,16.18a8.22,8.22,0,0,1-1.33,7.94c-1.09,1.4,1,3,3.51,2.8s2.72-1.71,2.72-1.71a4,4,0,0,1-.7,2.49c-.78.85,1.32,3.19,2.1,3.89s3,2.72,5.76,2.41,4.82-2.57,5.75-5.21a1.12,1.12,0,0,1,.33-.5c0,2.62-.81,5.53-3.11,6.46-2.68,1.07-4.46-.72-6.95-.72s-3.21-1.42-4.82-3.74-1.24-2.14-3.38-2.14-6.95-1.6-8.55-5c-1.15-2.42-1.38-6.74,1.11-9.54l1.41-.16S273.41,12.6,274.74,16.18Z"/><path class="cls-22" d="M272.74,15.71a4.55,4.55,0,0,1,1.11,4.89,6.86,6.86,0,0,1-3.43,4.29c-.5.36,2.79,1.94,3.08,2.15s-3.8-.43-5.73-2.72-1.86-3.22-1.79-3.86S270.55,14.47,272.74,15.71Z"/><path class="cls-5" d="M268.91,14a4.4,4.4,0,0,1,3.14.56,3.9,3.9,0,0,1,1.58,2.07,6.12,6.12,0,0,1-1.06,5.74c-1.3,1.48-3.38,1-5.09,1a15,15,0,0,0-5,1.06c-.86.4-.87.64-1.17.61s-.93-2.31.46-5.56A9.26,9.26,0,0,1,268.91,14Z"/><path class="cls-8" d="M269.39,14.45a3.32,3.32,0,0,1,3.35,1.26A1.9,1.9,0,0,1,273.1,17c-.23,1.63-3.65,1.32-7.16,2.41a7,7,0,0,0-4.51,3.74S261.16,16,269.39,14.45Z"/><path class="cls-3" d="M284.36,16.66s2.77,1.09,1.74,4.58-4.38,3.94-4.8,2.4c-.25-.89.94-2.93,1.1-3.92C282.72,17.76,282.94,16.1,284.36,16.66Z"/><path class="cls-3" d="M275.84,12.51a6.1,6.1,0,0,1,2.6,5.44c-.39,3.5-2.47,4-2.47,4s.78-4.79-1-7.13S273.38,11.48,275.84,12.51Z"/><path class="cls-8" d="M261.63,25a6.86,6.86,0,0,1,4.79-2.54,17.81,17.81,0,0,1,6.15,0c-1.3,1.48-3.38,1-5.09,1a15,15,0,0,0-5,1.06A4.08,4.08,0,0,0,261.63,25Z"/><path class="cls-22" d="M280.89,15.51a19,19,0,0,1-.11,5.52c-.54,1.95-.43-.87-.76-3S280.67,15,280.89,15.51Z"/><path class="cls-22" d="M287.52,20.48a4.45,4.45,0,0,1-1.67,3.94,6.68,6.68,0,0,1-3.7,1.63,6.28,6.28,0,0,0,4.62-1.47A3.42,3.42,0,0,0,287.52,20.48Z"/><path class="cls-24" d="M270.68,14.45s1.26.52.59,1.26-3.45.22-6.3,2a7.64,7.64,0,0,0-3.41,4.3s.74-3.38,2.37-4.82A9,9,0,0,1,270.68,14.45Z"/><path class="cls-25" d="M272.35,20.16a18.46,18.46,0,0,0-7.6,1.26c-2.54,1-2.89,2-2.89,2a6.77,6.77,0,0,1,4-1.67c2.85-.37,5.56-.59,6.19-.63S273.09,20.34,272.35,20.16Z"/><path class="cls-3" d="M272.06,11.73s1.15.65.08.86-1.72.14-1.86-.14S270.85,11.59,272.06,11.73Z"/><path class="cls-3" d="M275.84,12.51s2.66,1.51,2.23,4.23-.86-1.14-2.57-2.79S274.9,12,275.84,12.51Z"/><path class="cls-3" d="M284.79,17a4.08,4.08,0,0,1,.91,4.52c-1,2.85-2.57,2.92-2.64,2.78a7.66,7.66,0,0,0,1.39-4.59C284.25,17,284.3,16.61,284.79,17Z"/><path class="cls-3" d="M283.41,17.18a5.7,5.7,0,0,1,0,4.14c-.86,2.4-1.35,2.61-1.28.59S282.44,16.07,283.41,17.18Z"/><path class="cls-9" d="M284.9,17.66a2.42,2.42,0,0,1,.7,2.89c-.7,1.91-1.27,1-1.12.14S284.26,17.24,284.9,17.66Z"/><path class="cls-9" d="M275,12.11s1.79.75,1.86,1.81-.61,1-1.57,0S273.92,11.85,275,12.11Z"/><path class="cls-3" d="M281.1,28.54c-.13-1.27.86,3.07,6,3.83C289.82,32.78,281.82,35.25,281.1,28.54Z"/><path class="cls-26" d="M196.91,70.8c-25.41.36-167,2.84-167,2.84l6.13,5s99-2.19,105.11-2.19c5.56,0,101,2.07,124.63.1,1.65-1.86,3.58-3.5,5.39-5.24C252.87,71.05,215.63,70.53,196.91,70.8Z"/><path class="cls-26" d="M252.46,73.05c-12.1,0-69.43.69-78.1.69S51.25,74.42,44.17,76c-3.14.71-3.81,1.69-3.58,2.56,19.46-.43,95.24-2.09,100.58-2.09s94.15,1.92,121.75.3C264.69,75,262.2,73.05,252.46,73.05Z"/><path class="cls-15" d="M167.14,71.53s9.8-5.81,12.71-5.81,11.25,2.54,13.43,2.9,14.16,2.18,14.16,2.18-20,1.45-25.05,1.45S167.14,71.53,167.14,71.53Z"/><path class="cls-27" d="M203.1,12.24a336.75,336.75,0,0,0-37.73-.49c-18.5,1-37.25-2.68-46,1.22s-6.09,5.84-14.12,5.35S99.88,16.13,87,16.38,47.05,24.16,46.81,30.25,62.39,48.51,88.92,58s41.63,1.22,66,.49,48.45,2.92,65.24-.49,19-4.13,27.51-10.22,15.92-10.25,5.29-19-6.26-10.21-22.08-12.65S203.1,12.24,203.1,12.24Z"/><path class="cls-28" d="M125.46,18.12,215,20.17l41.85,1.38s-19.12,1.34-23.36,1.51-30.2.17-34.28,0-49-1.53-55.66-2.21S127.38,18.45,125.46,18.12Z"/><path class="cls-15" d="M225.74,20.27c-1,0-19-1.22-27-1.22s-67.19.25-67.19.25,61.35,2.43,73,2.67,44.8-.24,46.5-.48S225.74,20.27,225.74,20.27Z"/><path class="cls-28" d="M56.75,58.31s23.42.56,35.67.56,61.48-.21,60.65-.21-40.5,2.49-52.13,2.28S59.66,58.94,56.75,58.31Z"/><path class="cls-15" d="M61.9,58.25s45.77-.73,52.59-.49L147.84,59S80.65,60.68,61.9,58.25Z"/><path class="cls-28" d="M38.59,12.58s33.69.53,36.29.7,33.39-.35,33.39-.35-23.13,2.27-29,2.27S44.33,16.58,38.59,12.58Z"/><path class="cls-15" d="M42.42,12.72c-.83-.28,41.39-.24,47.48,0l12.17.49S51.92,15.89,42.42,12.72Z"/><path class="cls-27" d="M224.42,68.55c-3.47-1-11.37-3.26-15.82-3.26-5.8,0-9,1.06-11.6.35s-13-4.26-13.62-4.26-5-1.3-8.29,1.18-8.77,3.44-12.44,4.27-11.49,1.54-11.84,1.66c-.05,0,.15.06.54.14,9-.15,17.21-.41,19.22-1.08,3.27-1.09,6.75-3.92,11.32-3s22,3.92,27.19,3.92C210.65,68.42,216.71,68.5,224.42,68.55Z"/><path class="cls-29" d="M189.81,70.69c-.66-.21-4.52-1.92-8.36-1.78s-8.77,1.64-8.77,2S194.19,72.06,189.81,70.69Z"/></g></g></g></svg>